<?xml version="1.0" standalone="no"?>
<!DOCTYPE svg PUBLIC "-//W3C//DTD SVG 1.1//EN" "http://www.w3.org/Graphics/SVG/1.1/DTD/svg11.dtd" >
<svg>
<metadata>
Created by FontForge 20110222 at Thu Jun  2 09:35:53 2011
 By www-data
Prisma Versalschrift
</metadata>
<defs>
<font id="Prisma" horiz-adv-x="831" >
  <font-face 
    font-family="Prisma"
    font-weight="400"
    font-stretch="normal"
    units-per-em="1000"
    panose-1="2 0 4 0 0 0 0 0 0 0"
    ascent="800"
    descent="-200"
    x-height="782"
    cap-height="782"
    bbox="-58 -247 1601 1132"
    underline-thickness="58"
    underline-position="-77"
    unicode-range="U+0020-203A"
  />
    <missing-glyph />
    <glyph glyph-name="exclam" unicode="!" horiz-adv-x="225" 
d="M117 175h-18v-175h18v175zM153 175h-18v-175h18v175zM189 175h-18v-175h18v175zM225 175h-18v-175h18v175zM81 175h-18v-175h18v175zM117 782h-18v-558h18v558zM153 782h-18v-558h18v558zM189 782h-18v-558h18v558zM225 782h-18v-558h18v558zM81 782h-18v-558h18v558z
" />
    <glyph glyph-name="quotedbl" unicode="&#x22;" horiz-adv-x="433" 
d="M101 790h-18v-196h18v196zM137 790h-18v-196h18v196zM173 790h-18v-196h18v196zM209 790h-18v-196h18v196zM65 790h-18v-196h18v196zM316 790h-18v-196h18v196zM352 790h-18v-196h18v196zM388 790h-18v-196h18v196zM424 790h-18v-196h18v196zM280 790h-18v-196h18v196z
" />
    <glyph glyph-name="numbersign" unicode="#" horiz-adv-x="825" 
d="M399 746l-77 -216h-143l-35 -99h142l-45 -129h-143l-35 -98h143l-77 -217h117l77 217h123l-77 -217h117l77 217h144l35 98h-144l46 129h144l35 99h-144l77 216h-118l-76 -216h-123l77 216h-117zM358 302l46 129h123l-46 -129h-123z" />
    <glyph glyph-name="dollar" unicode="$" horiz-adv-x="512" 
d="M330 327v21c45 -25 67 -61 67 -109c0 -50 -22 -86 -67 -109v20c33 26 49 56 49 89c0 38 -16 67 -49 88zM330 367v20c25 -9 47 -25 67 -48c24 -29 36 -63 36 -100c0 -39 -12 -73 -37 -102c-21 -25 -43 -40 -66 -45v19c20 7 38 21 54 40c21 25 31 55 31 88s-10 62 -31 87
c-17 20 -35 34 -54 41zM330 405v20c37 -11 69 -32 95 -63c29 -35 44 -76 44 -123c0 -48 -16 -90 -47 -127c-27 -31 -58 -50 -92 -58v18c31 9 57 27 80 54c27 33 41 70 41 113s-13 81 -39 112c-23 27 -50 45 -82 54zM330 443v19c47 -12 86 -36 119 -72c37 -43 56 -93 56 -151
s-19 -108 -57 -151c-33 -37 -73 -61 -118 -72v19c40 9 75 31 105 66c35 39 52 85 52 138s-17 99 -52 139c-31 35 -66 56 -105 65zM330 173v131c21 -17 32 -38 32 -65c0 -25 -11 -47 -32 -66zM240 768v-19c-43 -8 -80 -30 -109 -67s-44 -78 -44 -125s14 -88 43 -123
s65 -58 110 -69v-18c-49 9 -90 34 -123 73s-49 85 -49 137c0 51 16 97 49 136s74 64 123 75zM240 732v-20c-33 -8 -61 -27 -84 -56c-22 -29 -33 -62 -33 -99c0 -73 49 -135 117 -154v-19c-38 9 -70 29 -97 62c-26 33 -39 70 -39 111c0 42 13 79 38 111c26 33 59 54 98 64z
M240 695v-21c-48 -16 -81 -64 -81 -117s33 -99 81 -116v-20c-57 17 -100 73 -100 136c0 64 41 118 100 138zM240 655v-20c-31 -15 -47 -41 -47 -78c0 -36 16 -62 47 -78v-20c-43 19 -65 52 -65 98c0 43 28 83 65 98zM330 480v143c23 -11 37 -32 41 -61l17 10
c-3 17 -11 33 -24 47c-11 11 -23 19 -34 22v20c15 -3 29 -12 42 -25c17 -16 27 -34 32 -55l16 9c-7 25 -19 45 -38 62c-17 15 -34 24 -52 28v18c22 -5 43 -15 62 -31c21 -18 36 -40 45 -67l14 9c-10 29 -27 54 -51 74c-22 18 -45 29 -70 33v18c28 -3 55 -15 80 -35
c28 -22 47 -49 58 -82l15 10c-13 35 -34 64 -64 87c-27 21 -57 34 -89 38v19c37 -5 70 -19 99 -42c32 -24 56 -55 71 -93l15 10c-33 80 -108 134 -185 143v11h-18v-813h18v11c49 9 93 35 130 77c42 47 63 101 63 164s-21 117 -62 164c-37 41 -80 66 -131 77zM240 614v-114
c-19 15 -28 34 -28 57s9 42 28 57zM240 800v-14c-54 -9 -99 -36 -136 -79c-36 -43 -54 -93 -54 -150s18 -107 54 -150c37 -43 82 -69 136 -78v-174c-27 7 -47 23 -58 49l-15 -9c16 -33 40 -52 73 -58v-18c-39 5 -69 27 -88 65l-15 -11c22 -41 56 -65 103 -72v-19
c-53 6 -92 33 -117 81l-16 -10c28 -51 82 -84 133 -89v-17c-65 6 -115 38 -148 96l-15 -11c39 -63 94 -97 163 -103v-18c-76 5 -135 42 -177 111l-15 -10c43 -69 116 -114 192 -119v-6h18v813h-18zM294 800h-18v-813h18v813z" />
    <glyph glyph-name="percent" unicode="%" horiz-adv-x="1072" 
d="M285 791c-66 0 -123 -24 -170 -71s-70 -103 -70 -169s23 -123 70 -170s104 -70 170 -70c67 0 123 23 170 70s70 104 70 170s-23 122 -70 169s-103 71 -170 71zM63 551c0 61 22 114 65 157c44 43 96 65 157 65s114 -22 157 -65s65 -96 65 -157s-22 -114 -65 -157
s-96 -65 -157 -65s-114 22 -157 65s-65 96 -65 157zM285 347c57 0 105 20 144 59c40 40 60 88 60 145s-20 105 -60 144c-39 40 -87 60 -144 60s-105 -20 -145 -60c-39 -39 -59 -87 -59 -144s20 -105 59 -145c40 -39 88 -59 145 -59zM99 551c0 51 18 95 55 131
c37 37 80 55 131 55s95 -18 131 -55c37 -36 55 -80 55 -131s-18 -95 -55 -132c-36 -36 -80 -54 -131 -54s-95 18 -132 54c-36 37 -54 81 -54 132zM285 383c47 0 86 16 119 49s49 72 49 119s-16 86 -49 119s-72 49 -119 49s-86 -16 -119 -49s-49 -72 -49 -119s16 -86 49 -119
s72 -49 119 -49zM135 551c0 41 15 77 44 106c30 29 65 44 106 44s77 -15 106 -44c30 -29 45 -65 45 -106s-15 -77 -45 -106c-29 -29 -65 -44 -106 -44s-77 15 -106 44s-44 65 -44 106zM285 419c37 0 68 13 94 38c26 26 39 57 39 94s-13 68 -39 93c-26 26 -57 39 -94 39
s-68 -13 -94 -39c-25 -25 -38 -56 -38 -93s13 -68 38 -94c26 -25 57 -38 94 -38zM171 551c0 31 11 58 33 80c23 23 50 34 81 34c32 0 59 -11 81 -34c23 -22 34 -49 34 -80c0 -64 -51 -114 -115 -114c-31 0 -58 11 -81 33c-22 22 -33 49 -33 81zM847 471
c-66 0 -123 -23 -170 -70s-70 -103 -70 -169c0 -67 23 -123 70 -170s104 -70 170 -70s122 23 169 70s71 103 71 170c0 66 -24 122 -71 169s-103 70 -169 70zM625 232c0 61 22 113 65 156s96 65 157 65s114 -22 157 -65s65 -95 65 -156s-22 -114 -65 -157s-96 -65 -157 -65
s-114 22 -157 65s-65 96 -65 157zM847 27c57 0 105 20 144 60c40 40 60 88 60 145s-20 105 -60 144c-39 40 -87 60 -144 60s-105 -20 -145 -60c-39 -39 -59 -87 -59 -144s20 -105 59 -145c40 -40 88 -60 145 -60zM661 232c0 51 18 95 54 131c37 37 81 55 132 55
s95 -18 131 -55c37 -36 55 -80 55 -131s-18 -95 -55 -132c-36 -37 -80 -55 -131 -55s-95 18 -132 55c-36 37 -54 81 -54 132zM847 63c47 0 86 16 119 49s49 73 49 120s-16 86 -49 119s-72 49 -119 49s-86 -16 -119 -49s-49 -72 -49 -119s16 -87 49 -120s72 -49 119 -49z
M697 232c0 41 15 77 44 106s65 44 106 44s77 -15 106 -44s44 -65 44 -106s-15 -77 -44 -107c-29 -29 -65 -44 -106 -44s-77 15 -106 44c-29 30 -44 66 -44 107zM847 99c37 0 68 13 93 39c26 26 39 57 39 94c0 36 -13 67 -39 93c-25 26 -56 39 -93 39s-68 -13 -94 -39
c-25 -26 -38 -57 -38 -93c0 -37 13 -68 38 -94c26 -26 57 -39 94 -39zM733 232c0 31 11 58 33 80c22 23 49 34 81 34c31 0 58 -11 80 -34c23 -22 34 -49 34 -80c0 -32 -11 -59 -34 -82c-22 -22 -49 -33 -80 -33c-64 0 -114 51 -114 115zM683 784h-19l-307 -842h19zM759 784
h-19l-307 -842h19zM721 784h-19l-307 -842h19z" />
    <glyph glyph-name="ampersand" unicode="&#x26;" horiz-adv-x="660" 
d="M125 540c0 -30 7 -59 20 -88c10 -21 20 -36 29 -45l-4 -2c-80 -40 -126 -116 -126 -199c0 -32 7 -63 20 -92c36 -80 110 -126 198 -126c17 0 33 2 50 5c37 7 92 32 165 76l68 -76l13 13l-65 73l14 10l64 -71l14 12l-62 68l15 11l60 -67l13 12l-59 65l14 12l59 -65l13 12
l-58 65l13 11l58 -64l14 13l-58 64c25 22 45 43 61 63l-12 13c-59 -68 -123 -122 -192 -161c-68 -39 -120 -63 -155 -70c-14 -3 -29 -4 -44 -4c-87 0 -148 38 -184 114c-13 27 -19 56 -19 87c0 76 43 147 116 180l9 4l12 -14l-13 -6c-64 -29 -105 -97 -105 -168
c0 -27 6 -52 17 -76c15 -33 39 -59 71 -77c30 -18 63 -27 98 -27c13 0 25 1 38 4c28 5 77 28 148 67c74 41 138 95 192 160l-12 14c-51 -62 -115 -115 -192 -160c-60 -35 -106 -56 -139 -63c-12 -3 -24 -4 -37 -4c-64 0 -122 34 -150 94c-10 21 -15 44 -15 67
c0 61 36 120 93 152l18 10l12 -15l-22 -12c-55 -30 -82 -75 -82 -134c0 -20 4 -40 13 -59c12 -26 31 -47 57 -62c24 -15 50 -22 77 -22c11 0 22 1 33 4c38 10 81 29 129 58c77 47 142 100 193 159l-13 15c-55 -65 -119 -118 -192 -160c-51 -29 -91 -47 -120 -54
c-10 -3 -20 -4 -31 -4c-55 0 -94 24 -116 73c-8 18 -12 36 -12 54c0 51 24 89 72 115l28 15l14 -16c-15 -7 -26 -12 -33 -17c-41 -21 -61 -54 -61 -99c0 -15 3 -29 9 -43c19 -41 52 -62 100 -62c9 0 18 1 27 3c22 5 59 21 110 49c75 41 139 95 192 160l-13 14
c-53 -66 -117 -119 -192 -160c-49 -26 -82 -41 -100 -45c-8 -2 -16 -3 -25 -3c-41 0 -68 17 -83 51c-5 12 -8 25 -8 38c0 36 17 63 51 82l37 20l13 -14l-41 -22c-28 -15 -42 -37 -42 -68c0 -39 32 -71 71 -71c8 0 16 1 23 3c19 6 49 20 92 43c76 41 140 93 193 158l-13 14
c-24 -28 -44 -49 -60 -64l-64 70c25 15 46 34 64 57c29 37 43 79 43 125c0 57 -20 106 -61 147s-90 61 -147 61s-106 -20 -147 -61s-61 -90 -61 -147zM422 373l-13 13c63 33 95 85 95 154c0 47 -17 88 -51 121c-33 34 -73 51 -120 51s-87 -17 -121 -51
c-33 -33 -50 -74 -50 -121c0 -44 12 -80 37 -107l198 -222l-15 -8l-198 219c-27 30 -41 69 -41 118c0 53 18 97 55 134s82 56 135 56s97 -19 134 -56s56 -81 56 -134c0 -73 -44 -138 -101 -167zM486 540c0 -61 -38 -115 -89 -140l-12 14c48 21 84 69 84 126
c0 37 -13 69 -40 96s-59 41 -96 41s-69 -14 -96 -41s-40 -59 -40 -96c0 -35 10 -63 30 -85l201 -223l-16 -10l-198 222c-23 25 -34 57 -34 96c0 43 15 79 44 109c30 31 66 46 109 46s79 -15 108 -46c30 -30 45 -66 45 -109zM451 540c0 -52 -35 -96 -79 -113l-14 15
c50 20 75 53 75 98c0 55 -45 101 -100 101s-100 -46 -100 -101c0 -25 8 -47 23 -64l201 -223l-15 -11l-201 223c-17 19 -26 44 -26 75c0 33 11 61 34 84s51 35 84 35s60 -12 83 -35s35 -51 35 -84zM415 540c0 -39 -23 -67 -68 -84l-13 13c21 11 34 19 41 24
c15 12 22 28 22 47c0 36 -28 65 -64 65s-65 -29 -65 -65c0 -16 6 -30 17 -43l199 -222l-14 -11l-199 222c-13 15 -20 33 -20 54c0 45 37 83 82 83s82 -38 82 -83zM299 508c-9 13 -13 24 -13 32c0 25 22 47 47 47s46 -22 46 -47c0 -19 -9 -33 -28 -42l-30 -15zM241 256l47 24
l78 -87c-39 -19 -66 -32 -83 -37c-6 -2 -12 -3 -18 -3c-31 0 -54 23 -54 52c0 24 10 41 30 51z" />
    <glyph glyph-name="quotesingle" unicode="'" horiz-adv-x="221" 
d="M101 790h-18v-196h18v196zM137 790h-18v-196h18v196zM173 790h-18v-196h18v196zM209 790h-18v-196h18v196zM65 790h-18v-196h18v196z" />
    <glyph glyph-name="parenleft" unicode="(" horiz-adv-x="352" 
d="M225 187v412c0 35 12 65 37 90s55 37 90 37v18c-41 0 -75 -14 -103 -43c-28 -28 -42 -62 -42 -102v-412c0 -40 14 -74 42 -103c29 -28 63 -42 103 -42v18c-35 0 -65 12 -90 37s-37 55 -37 90zM189 187v412c0 45 16 84 48 115c32 32 70 48 115 48v18
c-49 0 -92 -18 -128 -53c-35 -35 -53 -78 -53 -128v-412c0 -49 18 -92 53 -128c36 -35 79 -53 128 -53v18c-45 0 -83 16 -115 48s-48 70 -48 115zM153 187v412c0 55 19 101 58 140s86 59 141 59v18c-59 0 -110 -21 -153 -64c-43 -42 -64 -93 -64 -153v-412
c0 -59 21 -110 64 -153s94 -64 153 -64v18c-55 0 -102 19 -141 58s-58 86 -58 141zM117 187v412c0 65 23 120 68 166c46 46 102 69 167 69v18c-70 0 -130 -25 -179 -74s-74 -109 -74 -179v-412c0 -69 25 -129 74 -179c49 -49 109 -74 179 -74v18c-65 0 -121 23 -167 69
c-45 46 -68 101 -68 166zM81 187v412c0 75 26 138 79 191s117 80 192 80v18c-80 0 -148 -28 -205 -85c-56 -56 -84 -124 -84 -204v-412c0 -80 28 -148 84 -204c57 -56 125 -84 205 -84v17c-75 0 -139 27 -192 80s-79 116 -79 191z" />
    <glyph glyph-name="parenright" unicode=")" horiz-adv-x="352" 
d="M190 599v-412c0 -35 -12 -65 -37 -90s-55 -37 -90 -37v-18c41 0 75 14 103 42c28 29 42 63 42 103v412c0 40 -14 74 -42 102c-28 29 -62 43 -103 43v-18c35 0 65 -12 90 -37s37 -55 37 -90zM226 599v-412c0 -45 -16 -83 -48 -115c-31 -32 -70 -48 -115 -48v-18
c50 0 93 18 128 53c35 36 53 79 53 128v412c0 50 -18 93 -53 128s-78 53 -128 53v-18c45 0 84 -16 115 -48c32 -31 48 -70 48 -115zM262 599v-412c0 -55 -20 -102 -59 -141s-85 -58 -140 -58v-18c60 0 111 21 153 64c43 43 64 94 64 153v412c0 60 -21 111 -64 153
c-42 43 -93 64 -153 64v-18c55 0 101 -20 140 -59s59 -85 59 -140zM298 599v-412c0 -65 -23 -120 -69 -166c-45 -46 -101 -69 -166 -69v-18c70 0 130 25 179 74c49 50 74 110 74 179v412c0 70 -25 130 -74 179s-109 74 -179 74v-18c65 0 121 -23 166 -69
c46 -46 69 -101 69 -166zM334 599v-412c0 -75 -27 -138 -80 -191s-116 -80 -191 -80v-17c80 0 148 28 204 84c57 56 85 124 85 204v412c0 80 -28 148 -85 204c-56 57 -124 85 -204 85v-18c75 0 138 -27 191 -80s80 -116 80 -191z" />
    <glyph glyph-name="asterisk" unicode="*" horiz-adv-x="308" 
d="M208 736v85h-18v-116l102 58l-9 16zM61 630l103 59l-103 59l-9 -15l76 -44l-76 -43zM208 643l75 -44l9 16l-102 58v-118h18v88zM154 821v-84l-75 43l-9 -16l102 -59v116h-18zM154 642v-87h18v118l-102 -59l9 -16zM237 689l73 43l-9 15l-101 -58l101 -58l9 16z" />
    <glyph glyph-name="plus" unicode="+" horiz-adv-x="719" 
d="M437 388h18v-18h-18v18zM401 388h18v-18h-18v18zM437 334v18h18v-18h-18zM401 334v18h18v-18h-18zM365 352h18v-18h-18v18zM365 388h18v-18h-18v18zM437 298v18h18v-18h-18zM401 298v18h18v-18h-18zM365 298v18h18v-18h-18zM329 316h18v-18h-18v18zM329 352h18v-18h-18
v18zM329 388h18v-18h-18v18zM437 262v18h18v-18h-18zM401 262v18h18v-18h-18zM365 262v18h18v-18h-18zM329 262v18h18v-18h-18zM717 244v18h-244v18h244v18h-244v18h244v18h-244v18h244v18h-244v18h244v18h-244v244h-18v-244h-18v244h-18v-244h-18v244h-18v-244h-18v244h-18
v-244h-18v244h-18v-244h-244v-18h244v-18h-244v-18h244v-18h-244v-18h244v-18h-244v-18h244v-18h-244v-18h244v-244h18v244h18v-244h18v244h18v-244h18v244h18v-244h18v244h18v-244h18v244h244z" />
    <glyph glyph-name="comma" unicode="," horiz-adv-x="237" 
d="M119 175h-19c13 -29 19 -63 19 -100c0 -41 -7 -75 -20 -102h20c12 35 18 69 18 102c0 37 -6 70 -18 100zM158 175h-20c11 -25 17 -59 17 -100c0 -38 -6 -72 -17 -102h20c10 36 15 70 15 102c0 33 -5 66 -15 100zM196 175h-19c9 -28 14 -61 14 -100c0 -28 -5 -62 -14 -102
h18c9 33 14 67 14 102c0 39 -4 73 -13 100zM233 175h-19c9 -26 13 -59 13 -100c0 -42 -4 -76 -13 -102h18c9 27 13 61 13 102c0 39 -4 73 -12 100zM81 175h-20c15 -33 23 -67 23 -100c0 -36 -8 -70 -24 -102h20c14 28 21 62 21 102c0 37 -7 70 -20 100z" />
    <glyph glyph-name="hyphen" unicode="-" horiz-adv-x="466" 
d="M63 301v-18h398v18h-398zM63 337v-18h398v18h-398zM63 373v-18h398v18h-398zM63 409v-18h398v18h-398zM63 265v-18h398v18h-398z" />
    <glyph glyph-name="hyphen" unicode="&#x2010;" horiz-adv-x="466" 
d="M63 301v-18h398v18h-398zM63 337v-18h398v18h-398zM63 373v-18h398v18h-398zM63 409v-18h398v18h-398zM63 265v-18h398v18h-398z" />
    <glyph glyph-name="period" unicode="." horiz-adv-x="226" 
d="M115 175h-18v-175h18v175zM151 175h-18v-175h18v175zM187 175h-18v-175h18v175zM223 175h-18v-175h18v175zM79 175h-18v-175h18v175z" />
    <glyph glyph-name="slash" unicode="/" horiz-adv-x="436" 
d="M358 784h-19l-286 -787h19zM434 784h-19l-286 -787h19zM396 784h-19l-286 -787h19z" />
    <glyph glyph-name="zero" unicode="0" horiz-adv-x="651" 
d="M68 502v-222c0 -79 28 -147 84 -204c57 -56 125 -84 204 -84c80 0 148 28 204 84c57 57 85 125 85 204v222c0 80 -28 148 -85 204c-56 57 -124 85 -204 85c-79 0 -147 -28 -204 -85c-56 -56 -84 -124 -84 -204zM86 280v222c0 75 26 138 79 191s116 80 191 80
s138 -27 191 -80s80 -116 80 -191v-222c0 -75 -27 -138 -80 -191s-116 -79 -191 -79s-138 26 -191 79s-79 116 -79 191zM140 502v-222c0 -59 21 -110 63 -153c43 -43 94 -64 153 -64c60 0 111 21 153 64c43 43 64 94 64 153v222c0 60 -21 111 -64 153c-42 43 -93 64 -153 64
c-59 0 -110 -21 -153 -64c-42 -42 -63 -93 -63 -153zM158 280v222c0 55 19 101 57 140c39 39 86 59 141 59s101 -20 140 -59s59 -85 59 -140v-222c0 -55 -20 -102 -59 -141s-85 -58 -140 -58s-102 19 -141 58c-38 39 -57 86 -57 141zM211 502v-222c0 -40 14 -74 42 -103
c29 -28 63 -42 103 -42c41 0 75 14 103 42c28 29 42 63 42 103v222c0 40 -14 74 -42 102c-28 29 -62 43 -103 43c-40 0 -74 -14 -103 -43c-28 -28 -42 -62 -42 -102zM229 280v222c0 35 12 65 37 90s55 37 90 37s65 -12 90 -37s37 -55 37 -90v-222c0 -35 -12 -65 -37 -90
s-55 -37 -90 -37s-65 12 -90 37s-37 55 -37 90zM175 502v-222c0 -49 18 -92 53 -128c36 -35 79 -53 128 -53c50 0 93 18 128 53c35 36 53 79 53 128v222c0 49 -18 92 -53 127c-35 36 -78 54 -128 54c-49 0 -92 -18 -128 -54c-35 -35 -53 -78 -53 -127zM193 280v222
c0 45 16 84 48 115c32 32 70 48 115 48s84 -16 115 -48c32 -31 48 -70 48 -115v-222c0 -45 -16 -83 -48 -115c-31 -32 -70 -48 -115 -48s-83 16 -115 48s-48 70 -48 115zM122 280v222c0 65 23 121 68 166c46 46 101 69 166 69s121 -23 166 -69c46 -46 69 -101 69 -166v-222
c0 -65 -23 -120 -69 -166c-45 -46 -101 -69 -166 -69s-120 23 -166 68c-45 46 -68 102 -68 167zM104 502v-222c0 -69 25 -129 74 -179c49 -49 109 -74 178 -74c70 0 130 25 179 74c49 50 74 110 74 179v222c0 70 -25 130 -74 179s-109 74 -179 74c-69 0 -129 -25 -178 -74
s-74 -109 -74 -179z" />
    <glyph glyph-name="one" unicode="1" horiz-adv-x="651" 
d="M367 782h-18v-782h18v782zM403 782h-18v-782h18v782zM439 782h-18v-782h18v782zM475 782h-18v-782h18v782zM313 591v-591h18v782h-18l-213 -132l10 -16l203 128v-22l-194 -121l10 -15l184 115v-21l-175 -109l10 -16l165 104v-22l-155 -97l9 -15l146 91v-21l-136 -86
l9 -14z" />
    <glyph glyph-name="two" unicode="2" horiz-adv-x="651" 
d="M101 18l-13 -18h509v18h-496zM128 54l-14 -18h483v18h-469zM153 90l-12 -18h456v18h-444zM180 126l-13 -18h430v18h-417zM439 481l-247 -337h405v18h-191l170 233c28 39 42 86 42 141c0 71 -25 131 -74 180c-49 50 -109 75 -179 75c-71 0 -131 -25 -180 -75
c-49 -49 -74 -109 -74 -180c0 -85 44 -165 109 -208l10 14c-68 47 -102 111 -102 194c0 65 23 121 70 167c47 47 102 70 167 70s120 -23 166 -70c47 -46 70 -102 70 -167c0 -51 -13 -95 -40 -132l-177 -242h-22l183 251c25 34 37 75 37 123c0 60 -21 111 -64 154
c-42 43 -93 65 -153 65s-111 -22 -154 -65s-64 -94 -64 -154c0 -75 31 -135 93 -180l11 15c-58 41 -87 96 -87 165c0 55 20 103 59 142s87 59 142 59s103 -20 142 -59s59 -87 59 -142c0 -44 -12 -82 -35 -113l-193 -261h-21l198 270c22 30 33 65 33 104c0 50 -18 93 -54 129
s-79 54 -129 54c-51 0 -94 -18 -130 -54c-35 -36 -53 -79 -53 -129c0 -63 26 -113 79 -150l12 14c-49 32 -73 77 -73 136c0 45 16 84 48 116c33 33 72 49 117 49s84 -16 116 -49c33 -32 49 -71 49 -116c0 -35 -10 -66 -30 -93l-205 -281h-23l213 290c18 25 27 53 27 84
c0 40 -15 74 -44 103s-63 44 -103 44c-41 0 -75 -15 -104 -44s-43 -63 -43 -103c0 -52 22 -93 65 -122l11 15c-39 25 -58 61 -58 107c0 35 13 66 38 91s56 38 91 38s66 -13 91 -38s38 -56 38 -91c0 -27 -8 -51 -25 -74l-220 -300h-21l227 309c14 19 21 41 21 65
c0 61 -50 111 -111 111s-111 -50 -111 -111c0 -40 17 -71 50 -92l11 15c-29 19 -43 44 -43 77c0 51 42 93 93 93s93 -42 93 -93c0 -19 -6 -38 -19 -55z" />
    <glyph glyph-name="three" unicode="3" horiz-adv-x="651" 
d="M281 426h45c31 0 57 11 78 32c22 22 33 48 33 78c0 61 -50 111 -111 111c-51 0 -86 -24 -105 -73l15 -14c11 40 47 69 90 69c51 0 93 -42 93 -93s-42 -92 -93 -92h-45v-18zM281 408v-18h45c37 0 69 -13 96 -40s40 -59 40 -96s-13 -70 -40 -97s-59 -40 -96 -40
c-59 0 -109 37 -128 90l-15 -12c23 -57 79 -96 143 -96c43 0 79 15 109 45c30 31 45 67 45 110c0 67 -42 123 -103 146c57 23 96 75 96 136c0 40 -15 74 -44 103s-63 44 -103 44c-59 0 -104 -28 -133 -83l14 -12c24 51 64 77 119 77c35 0 66 -13 91 -38s38 -56 38 -91
s-13 -66 -38 -91s-56 -37 -91 -37h-45zM227 236l-16 -15c15 -51 62 -86 115 -86c33 0 60 12 83 35s35 51 35 84s-12 60 -35 83s-50 35 -83 35h-45v-18h45c55 0 100 -45 100 -100s-45 -101 -100 -101c-48 0 -92 38 -99 83zM520 403c33 -49 50 -98 50 -149
c0 -68 -24 -126 -72 -173c-47 -47 -105 -71 -172 -71c-88 0 -167 47 -211 119l-14 -12c45 -76 130 -125 225 -125c72 0 134 25 185 76s77 113 77 186c0 58 -16 107 -47 148c25 38 38 83 38 134c0 71 -25 131 -74 180c-49 50 -109 75 -179 75c-45 0 -87 -12 -127 -35
c-37 -21 -66 -48 -86 -81l13 -11c49 73 116 109 200 109c65 0 120 -23 166 -70c47 -46 70 -102 70 -167c0 -49 -14 -94 -42 -133zM474 401c40 -41 60 -90 60 -147c0 -58 -20 -107 -61 -148s-90 -61 -147 -61c-79 0 -148 45 -184 110l-13 -13c40 -71 113 -115 197 -115
c62 0 115 22 159 66c45 45 67 98 67 161c0 55 -18 105 -55 148c31 36 46 81 46 134c0 60 -21 111 -64 154c-42 43 -93 65 -153 65c-82 0 -144 -35 -185 -105l12 -12c39 66 97 99 173 99c55 0 102 -20 141 -59s59 -87 59 -142c0 -51 -17 -96 -52 -135zM447 400
c41 35 61 80 61 136c0 50 -18 93 -54 129c-35 36 -78 54 -128 54c-71 0 -124 -31 -160 -93l14 -13c28 53 83 88 146 88c45 0 84 -16 116 -49c32 -32 48 -71 48 -116c0 -31 -8 -59 -24 -85c-13 -22 -30 -39 -50 -51c21 -13 40 -30 55 -53c18 -29 27 -60 27 -93
c0 -47 -17 -88 -51 -122c-33 -34 -74 -51 -121 -51c-68 0 -129 40 -157 100l-14 -13c39 -70 96 -105 171 -105c52 0 97 19 134 56s56 82 56 135c0 60 -23 109 -69 146z" />
    <glyph glyph-name="four" unicode="4" horiz-adv-x="651" 
d="M408 155v-155h18v155h18v-155h18v155h18v-155h18v155h18v-155h18v155h114v18h-582v-18h306v-155h18v155h18zM498 724l18 30v-437h-18v407zM462 664l18 32v-379h-18v347zM426 605l18 29v-317h-18v288zM390 545l18 30v-258h-18v228zM254 317l118 198v-198h-118zM534 782h-1
h-20l-280 -465h-22l281 465h-22l-279 -465h-22l281 465h-22l-280 -465h-21l280 465h-20l-280 -465h-20l279 465h-21l-279 -465v-18h582v18h-114v465zM66 209v-18h582v18h-582zM66 245v-18h582v18h-582zM66 281v-18h582v18h-582z" />
    <glyph glyph-name="five" unicode="5" horiz-adv-x="651" 
d="M298 621v-267h28c55 0 100 -45 100 -100s-45 -101 -100 -101c-44 0 -75 20 -92 61l-14 -12c17 -40 59 -67 106 -67c33 0 60 12 83 35s35 51 35 84s-12 60 -35 83s-50 35 -83 35h-10v18h10c37 0 69 -13 96 -40s40 -59 40 -96s-13 -70 -40 -97s-59 -40 -96 -40
c-54 0 -94 24 -120 71l-14 -11c24 -45 77 -78 134 -78c43 0 79 15 109 45c30 31 45 67 45 110s-15 79 -45 109s-66 45 -109 45h-10v18h10c47 0 88 -17 121 -51c34 -33 51 -74 51 -121s-17 -88 -51 -122c-33 -34 -74 -51 -121 -51c-66 0 -115 28 -147 83l-14 -13
c39 -59 92 -88 161 -88c52 0 97 19 134 56s56 82 56 135c0 52 -19 97 -56 134s-82 56 -134 56h-10v18h10c57 0 106 -20 147 -61s61 -90 61 -147c0 -58 -20 -107 -61 -148s-90 -61 -147 -61c-76 0 -134 32 -175 95l-13 -13c47 -67 109 -100 188 -100c62 0 115 22 159 66
c45 45 67 98 67 161c0 62 -22 115 -67 159c-44 45 -97 67 -159 67h-10v18h10c67 0 125 -24 172 -72c48 -47 72 -105 72 -172c0 -68 -24 -126 -72 -173c-47 -47 -105 -71 -172 -71c-85 0 -152 35 -201 104l-14 -11c53 -74 125 -111 215 -111c72 0 134 25 185 76
s77 113 77 186s-26 134 -77 185s-113 77 -185 77h-10v105h213v17h-375v-284h18v267h18v-267h18v267h18v-267h18v267h18v-267h18v267h18zM154 782v-18h375v18h-375zM154 746v-18h375v18h-375zM154 710v-18h375v18h-375zM154 674v-18h375v18h-375z" />
    <glyph glyph-name="six" unicode="6" horiz-adv-x="651" 
d="M618 254c0 69 -23 129 -70 179c-43 46 -94 73 -153 80l163 269h-21l-279 -462c-13 -22 -20 -44 -20 -66c0 -33 11 -61 34 -84s51 -35 84 -35s61 12 84 35s35 51 35 84s-12 60 -35 83s-51 35 -84 35c-19 0 -36 -4 -52 -12l15 25c10 3 22 5 37 5c37 0 69 -13 96 -40
s41 -59 41 -96s-14 -70 -41 -97s-59 -40 -96 -40s-69 13 -96 40s-40 60 -40 97c0 26 7 51 22 75l274 453h-21l-269 -445c-16 -27 -24 -54 -24 -83c0 -43 15 -79 45 -110c30 -30 66 -45 109 -45s80 15 110 45c30 31 45 67 45 110s-15 79 -46 109c-30 30 -66 45 -109 45h-13
c-6 -1 -10 -1 -11 -1l12 19h12c47 0 88 -17 122 -51c34 -33 51 -74 51 -121s-17 -88 -51 -122s-75 -51 -122 -51s-88 17 -122 51c-33 34 -50 75 -50 122c0 33 9 63 26 92l264 436h-22l-256 -427c-20 -33 -30 -67 -30 -101c0 -53 19 -98 56 -135s82 -56 134 -56
c53 0 98 19 135 56s56 82 56 135c0 52 -19 97 -56 134s-83 56 -137 56l11 18c55 -2 101 -23 140 -63s59 -88 59 -145c0 -58 -20 -107 -61 -148s-90 -61 -147 -61s-106 20 -147 61s-61 90 -61 148c0 38 10 74 31 109l252 419h-20l-247 -410c-23 -37 -34 -77 -34 -118
c0 -63 22 -116 66 -161c45 -44 98 -66 160 -66c63 0 116 22 160 66c44 45 66 98 66 161c0 61 -21 112 -62 155s-89 66 -145 70l11 17c57 -6 107 -31 148 -74c44 -47 66 -103 66 -168c0 -68 -24 -126 -71 -173s-105 -71 -173 -71c-67 0 -125 24 -173 71
c-47 47 -71 105 -71 173c0 45 12 88 37 129l241 399h-21l-236 -391c-26 -43 -39 -89 -39 -137c0 -73 25 -135 76 -186s113 -76 186 -76s134 25 185 76s77 113 77 186zM457 254c0 -27 -10 -51 -30 -71s-44 -30 -71 -30c-55 0 -100 46 -100 101s45 100 100 100
s101 -45 101 -100z" />
    <glyph glyph-name="seven" unicode="7" horiz-adv-x="651" 
d="M167 0h19l269 782h-348v-18h323l-6 -18h-317v-18h311l-7 -18h-304v-18h299l-6 -18h-293v-18h286l-6 -18h-280v-17h274zM493 782h-19l-269 -782h19zM531 782h-19l-269 -782h19zM569 782h-19l-269 -782h19zM607 782h-19l-269 -782h19z" />
    <glyph glyph-name="eight" unicode="8" horiz-adv-x="651" 
d="M433 232c0 -44 -34 -79 -78 -79c-43 0 -78 35 -78 79c0 43 35 79 78 79c44 0 78 -35 78 -79zM595 232c0 61 -20 114 -60 159c40 47 60 100 60 160c0 66 -24 122 -71 169s-103 71 -169 71s-123 -24 -170 -71s-70 -103 -70 -169c0 -62 21 -115 62 -160
c-41 -45 -62 -98 -62 -159c0 -67 23 -123 70 -170s104 -70 170 -70s122 23 169 70s71 103 71 170zM522 405c-6 5 -11 8 -14 11c34 38 51 83 51 135c0 57 -20 105 -60 144c-39 40 -87 60 -144 60s-105 -20 -145 -60c-39 -39 -59 -87 -59 -144s20 -105 59 -145
c40 -39 88 -59 145 -59c64 0 114 -51 114 -115s-50 -115 -114 -115c-31 0 -58 11 -81 33c-22 23 -33 50 -33 82c0 37 14 67 42 89c11 -3 20 -5 25 -6c-33 -16 -49 -44 -49 -83c0 -53 43 -97 96 -97s96 44 96 97c0 52 -44 97 -96 97c-61 0 -114 22 -157 65s-65 96 -65 157
s22 114 65 157c44 43 96 65 157 65s114 -22 157 -65s65 -96 65 -157c0 -55 -18 -104 -55 -146zM494 427c-6 5 -11 8 -14 11c29 31 43 68 43 113c0 47 -16 86 -49 119s-72 49 -119 49s-86 -16 -119 -49s-49 -72 -49 -119s16 -86 49 -119s72 -49 119 -49c41 0 77 -15 106 -45
c29 -29 44 -65 44 -106s-15 -77 -44 -107c-29 -29 -65 -44 -106 -44s-77 15 -106 44c-29 30 -44 66 -44 107s14 76 42 104c4 -1 14 -6 18 -7c-28 -27 -42 -59 -42 -97c0 -37 13 -68 38 -94c26 -26 57 -39 94 -39s68 13 93 39c26 26 39 57 39 94c0 36 -13 67 -39 93
c-26 27 -57 40 -93 40c-51 0 -95 18 -132 54c-36 37 -54 81 -54 132s18 95 55 131c37 37 80 55 131 55s95 -18 131 -55c37 -36 55 -80 55 -131c0 -47 -16 -89 -47 -124zM463 447c-6 1 -12 4 -17 8c27 26 41 58 41 96c0 37 -13 68 -39 93c-25 26 -56 39 -93 39
s-68 -13 -94 -39c-25 -25 -38 -56 -38 -93s13 -68 38 -94c26 -25 57 -38 94 -38c51 0 95 -18 131 -55c37 -37 55 -81 55 -132s-18 -95 -55 -132c-36 -37 -80 -55 -131 -55s-95 18 -132 55c-36 37 -54 81 -54 132c0 50 16 91 48 123c9 -5 14 -8 15 -9
c-30 -31 -45 -69 -45 -114c0 -47 16 -87 49 -120s72 -49 119 -49s86 16 119 49s49 73 49 120s-16 86 -49 119s-72 50 -119 50c-41 0 -77 15 -106 44s-44 65 -44 106s15 77 44 106c30 29 65 44 106 44s77 -15 106 -44s44 -65 44 -106s-14 -76 -42 -104zM426 461
c-7 3 -15 5 -22 6c31 19 47 47 47 84c0 53 -43 96 -96 96s-96 -43 -96 -96s43 -96 96 -96c61 0 114 -22 157 -66c43 -43 65 -96 65 -157s-22 -114 -65 -157s-96 -65 -157 -65s-114 22 -157 65s-65 96 -65 157c0 58 19 107 56 146c5 -6 9 -10 13 -11
c-34 -38 -51 -83 -51 -135c0 -57 20 -105 59 -145c40 -40 88 -60 145 -60s105 20 144 60c40 40 60 88 60 145s-20 105 -60 145c-39 40 -87 60 -144 60c-31 0 -58 11 -81 33c-22 22 -33 49 -33 81c0 31 11 58 33 80c23 23 50 34 81 34c32 0 59 -11 81 -34
c22 -22 33 -49 33 -80c0 -37 -14 -67 -43 -90zM433 551c0 -44 -34 -78 -78 -78c-43 0 -78 34 -78 78c0 43 35 78 78 78c44 0 78 -35 78 -78z" />
    <glyph glyph-name="nine" unicode="9" horiz-adv-x="651" 
d="M91 529c0 -69 23 -129 70 -179c43 -47 94 -73 153 -80l-163 -270h21l279 462c13 22 20 44 20 67c0 33 -12 60 -35 83s-50 35 -83 35s-61 -12 -84 -35s-34 -50 -34 -83s11 -61 34 -84s51 -35 84 -35c11 0 28 4 52 12l-15 -25c-10 -3 -22 -5 -37 -5c-37 0 -69 13 -96 40
s-40 59 -40 97c0 37 13 69 40 96s59 40 96 40s69 -13 96 -40s40 -59 40 -96c0 -27 -7 -52 -22 -76l-274 -453h22l268 445c16 27 24 55 24 84c0 43 -15 79 -45 109s-66 45 -109 45s-79 -15 -109 -45s-45 -66 -45 -109s15 -80 45 -110s66 -45 109 -45c4 0 9 0 14 1h10l-11 -19
h-13c-47 0 -88 17 -122 50c-33 34 -50 75 -50 123c0 47 17 88 50 121c34 34 75 51 122 51s88 -17 121 -51c34 -33 51 -74 51 -121c0 -33 -9 -63 -26 -92l-263 -437h21l257 427c19 32 29 66 29 102c0 52 -19 97 -56 134s-81 56 -134 56s-98 -19 -135 -56s-55 -82 -55 -134
c0 -53 18 -98 55 -135s83 -56 137 -56l-10 -18c-55 3 -102 24 -141 63c-39 40 -59 89 -59 146s20 106 61 147s90 61 147 61s106 -20 147 -61s61 -90 61 -147c0 -39 -10 -76 -30 -109l-253 -420h20l247 410c23 37 34 77 34 119c0 62 -22 115 -66 159c-44 45 -97 67 -160 67
s-116 -22 -160 -67c-44 -44 -66 -97 -66 -159c0 -61 21 -113 63 -157c40 -42 88 -65 144 -69l-11 -17c-57 6 -106 31 -147 75c-45 47 -67 103 -67 168c0 67 24 125 71 172c48 48 106 72 173 72s125 -24 172 -72c48 -47 72 -105 72 -172c0 -45 -12 -88 -37 -129l-241 -400h21
l236 391c26 43 39 89 39 138c0 72 -26 134 -77 185s-112 77 -185 77s-135 -26 -186 -77s-76 -113 -76 -185zM253 529c0 55 45 100 100 100s100 -45 100 -100s-45 -101 -100 -101s-100 46 -100 101z" />
    <glyph glyph-name="colon" unicode=":" horiz-adv-x="226" 
d="M117 175h-18v-175h18v175zM153 175h-18v-175h18v175zM189 175h-18v-175h18v175zM225 175h-18v-175h18v175zM81 175h-18v-175h18v175zM117 503h-18v-175h18v175zM153 503h-18v-175h18v175zM189 503h-18v-175h18v175zM225 503h-18v-175h18v175zM81 503h-18v-175h18v175z
" />
    <glyph glyph-name="semicolon" unicode=";" horiz-adv-x="237" 
d="M117 503h-18v-175h18v175zM153 503h-18v-175h18v175zM189 503h-18v-175h18v175zM225 503h-18v-175h18v175zM81 503h-18v-175h18v175zM119 175h-19c13 -29 19 -63 19 -100c0 -41 -7 -75 -20 -102h20c12 35 18 69 18 102c0 37 -6 70 -18 100zM158 175h-20
c11 -25 17 -59 17 -100c0 -38 -6 -72 -17 -102h20c10 36 15 70 15 102c0 33 -5 66 -15 100zM196 175h-19c9 -28 14 -61 14 -100c0 -28 -5 -62 -14 -102h18c9 33 14 67 14 102c0 39 -4 73 -13 100zM233 175h-19c9 -26 13 -59 13 -100c0 -42 -4 -76 -13 -102h18
c9 27 13 61 13 102c0 39 -4 73 -12 100zM81 175h-20c15 -33 23 -67 23 -100c0 -36 -8 -70 -24 -102h20c14 28 21 62 21 102c0 37 -7 70 -20 100z" />
    <glyph glyph-name="less" unicode="&#x3c;" horiz-adv-x="553" 
d="M63 389v-121l489 -181v130l-314 112l314 112v130z" />
    <glyph glyph-name="equal" unicode="=" horiz-adv-x="850" 
d="M851 549h-785v-170h785v170zM851 268h-785v-168h785v168z" />
    <glyph glyph-name="greater" unicode="&#x3e;" horiz-adv-x="553" 
d="M552 268v121l-489 182v-130l314 -112l-314 -112v-130z" />
    <glyph glyph-name="question" unicode="?" horiz-adv-x="383" 
d="M117 175h-18v-175h18v175zM153 175h-18v-175h18v175zM189 175h-18v-175h18v175zM225 175h-18v-175h18v175zM81 175h-18v-175h18v175zM63 758c37 10 70 15 100 15c59 0 109 -20 150 -61s62 -90 62 -148c0 -41 -11 -80 -34 -115c-21 -33 -48 -57 -81 -74
c-35 -17 -53 -47 -53 -89v-66h18v66c0 34 14 58 42 73c37 19 66 45 89 80c25 38 37 80 37 125c0 63 -23 116 -68 160c-45 45 -99 67 -162 67c-31 0 -65 -5 -100 -15v-18zM63 720c36 11 69 17 100 17c49 0 90 -17 124 -51c35 -33 52 -74 52 -122c0 -71 -32 -123 -95 -156
c-49 -25 -73 -66 -73 -122v-66h18v66c0 28 9 53 28 76c13 15 25 25 35 29c17 7 37 23 59 48c31 37 46 78 46 125c0 53 -19 98 -57 135c-37 37 -83 56 -137 56c-31 0 -65 -5 -100 -16v-19zM63 683c32 12 65 18 100 18c39 0 72 -13 99 -40s41 -59 41 -97c0 -29 -9 -57 -27 -82
c-15 -20 -30 -34 -47 -41c-19 -8 -37 -23 -55 -45c-26 -32 -39 -69 -39 -110v-66h18v66c0 37 11 70 34 98c15 18 32 31 50 40c51 24 84 84 84 140c0 43 -15 80 -46 110s-68 45 -112 45c-31 0 -64 -6 -100 -17v-19zM63 647c28 12 61 18 100 18c59 0 104 -44 104 -101
c0 -43 -18 -73 -53 -90c-25 -12 -47 -30 -68 -55c-31 -39 -47 -83 -47 -133v-66h18v66c0 45 15 85 44 121c17 21 37 38 60 51c43 24 64 59 64 106c0 33 -12 61 -36 84c-23 23 -52 35 -86 35c-37 0 -71 -6 -100 -18v-18zM63 612c26 11 59 17 100 17c39 0 69 -26 69 -65
c0 -29 -11 -49 -33 -59c-29 -14 -56 -35 -80 -64c-37 -45 -56 -96 -56 -155v-66h18v66c0 54 17 102 52 144c24 29 48 48 73 59c9 4 18 12 27 25c11 15 16 32 16 50c0 47 -38 83 -86 83c-43 0 -77 -6 -100 -17v-18z" />
    <glyph glyph-name="at" unicode="@" horiz-adv-x="987" 
d="M616 178c9 -47 33 -78 72 -93c16 -6 33 -9 52 -9c51 0 99 17 143 52c40 31 70 76 91 134c18 49 27 100 27 151c0 15 -1 30 -3 43c-17 120 -94 224 -206 273c-61 27 -131 40 -210 40c-129 0 -239 -32 -329 -97c-137 -98 -205 -228 -205 -390c0 -84 21 -162 64 -233
s103 -125 178 -162v1c74 -37 154 -56 239 -56c129 0 258 40 385 121l-29 43c-112 -67 -221 -101 -328 -101c-163 0 -279 63 -347 190c-30 56 -45 120 -45 192c0 78 17 148 52 210c80 142 194 217 343 224c56 3 113 -5 170 -23c73 -23 127 -59 162 -109
c33 -47 50 -102 50 -165c0 -47 -9 -94 -28 -141c-29 -73 -68 -114 -116 -124c-40 -8 -60 5 -60 40c0 17 8 54 25 112l68 237h-140l-19 -63c-9 18 -15 29 -18 32c-13 19 -34 33 -63 42c-22 7 -44 9 -66 7c-126 -8 -248 -150 -244 -303c0 -39 8 -72 23 -97
c32 -53 80 -79 143 -80c71 -1 127 33 169 102zM431 216c1 33 11 78 32 136c26 74 55 118 88 131c23 7 43 5 60 -8c21 -15 29 -40 25 -73c-4 -37 -15 -80 -34 -129c-25 -66 -52 -106 -81 -120c-10 -6 -21 -9 -32 -9c-12 0 -22 3 -31 9c-19 13 -28 34 -27 63z" />
    <glyph glyph-name="A" unicode="A" horiz-adv-x="819" 
d="M310 211h272l7 -18h-287zM323 247h246l6 -18h-259zM548 301h-203l101 259zM338 283h217l6 -18h-230zM604 158h-315l7 17h301zM282 140h329l54 -140h19l-227 584l9 27l238 -611h20l-248 635l9 25l257 -660h20l-267 684l9 24l276 -708h19l-285 734l9 24l296 -758h20
l-305 782h-20l-306 -782h19zM494 782h-19l-307 -782h20zM456 782h-19l-307 -782h20zM418 782h-21l-305 -782h20zM377 782h-19l-305 -782h20z" />
    <glyph glyph-name="B" unicode="B" horiz-adv-x="514" 
d="M225 400h41c37 0 69 -14 96 -41s41 -60 41 -97s-14 -69 -41 -96s-59 -40 -96 -40h-41v18h41c33 0 62 11 85 34s35 51 35 84s-12 62 -35 85s-52 35 -85 35h-41v18zM225 364h41c56 0 102 -46 102 -102s-46 -100 -102 -100h-41v202zM422 537c0 -55 -22 -97 -66 -127
c55 -33 83 -83 83 -148c0 -47 -17 -88 -51 -122c-33 -33 -74 -50 -122 -50h-41v18h41c43 0 80 15 110 45c31 30 46 66 46 109c0 67 -43 126 -106 147c21 7 39 21 55 40c22 25 33 55 33 88c0 37 -14 69 -41 96s-59 41 -97 41h-41v18h41c43 0 80 -15 110 -46
c31 -30 46 -66 46 -109zM458 537c0 -45 -16 -87 -47 -125c43 -42 65 -92 65 -150c0 -57 -21 -106 -62 -147s-90 -61 -148 -61h-41v18h41c53 0 99 18 136 55s56 82 56 135c0 61 -24 110 -73 149c12 9 23 23 33 42c15 27 22 55 22 84c0 48 -17 89 -51 122
c-33 34 -74 51 -123 51h-41v18h41c53 0 98 -19 135 -56c38 -37 57 -82 57 -135zM494 537c0 -45 -12 -86 -36 -123c36 -43 54 -94 54 -152c0 -67 -24 -125 -72 -173c-48 -47 -106 -71 -174 -71h-41v18h41c63 0 116 22 160 66c45 44 67 97 67 160c0 56 -19 106 -57 151
c27 43 40 84 40 124c0 57 -21 106 -62 147s-90 62 -148 62h-41v18h41c63 0 117 -22 161 -67c45 -44 67 -97 67 -160zM225 621h41c45 0 84 -39 84 -84s-37 -84 -84 -84h-41v168zM225 656h41c33 0 62 -12 85 -35s35 -51 35 -84s-12 -61 -35 -84s-52 -35 -85 -35h-41v18h41
c56 0 102 45 102 101s-46 101 -102 101h-41v18zM479 415c22 39 33 79 33 122c0 67 -24 125 -72 173s-106 72 -174 72h-59v-782h59c73 0 135 25 186 76s77 113 77 186c0 56 -17 107 -50 153zM117 782h-18v-782h18v782zM153 782h-18v-782h18v782zM189 782h-18v-782h18v782z
M81 782h-18v-782h18v782z" />
    <glyph glyph-name="C" unicode="C" horiz-adv-x="493" 
d="M494 625v18c-14 3 -30 4 -48 4c-71 0 -131 -25 -181 -75c-50 -49 -75 -110 -75 -181s25 -131 75 -181s110 -75 181 -75c19 0 35 2 48 5v19c-16 -4 -32 -6 -48 -6c-65 0 -121 23 -168 70s-70 103 -70 168s23 121 70 168s103 70 168 70c12 0 28 -1 48 -4zM494 661v18
c-14 3 -30 4 -48 4c-81 0 -150 -29 -207 -86s-85 -125 -85 -206s28 -150 85 -207s126 -85 207 -85c19 0 35 2 48 5v18c-13 -3 -29 -5 -48 -5c-75 0 -140 27 -194 80c-53 54 -80 119 -80 194s27 140 80 193c54 54 119 81 194 81c18 0 34 -1 48 -4zM494 697v19
c-16 2 -32 3 -48 3c-91 0 -168 -32 -232 -96s-96 -141 -96 -232s32 -168 96 -232s141 -96 232 -96c18 0 34 1 48 4v18c-14 -3 -30 -4 -48 -4c-85 0 -158 30 -219 91s-91 134 -91 219s30 158 91 219s134 91 219 91c19 0 35 -1 48 -4zM494 734v18c-16 2 -32 3 -48 3
c-101 0 -187 -36 -258 -107s-106 -156 -106 -257s35 -187 106 -258s157 -106 258 -106c11 0 27 1 48 4v18c-21 -3 -37 -4 -48 -4c-95 0 -177 34 -245 101c-67 68 -101 150 -101 245s34 177 101 244c68 68 150 102 245 102c16 0 32 -1 48 -3zM494 770v18c-16 2 -32 3 -48 3
c-111 0 -205 -39 -283 -117c-77 -78 -116 -172 -116 -283s39 -205 116 -283c78 -77 172 -116 283 -116c16 0 32 1 48 3v18c-16 -2 -32 -3 -48 -3c-105 0 -195 37 -270 112s-112 164 -112 269s37 195 112 270s165 112 270 112c16 0 32 -1 48 -3z" />
    <glyph glyph-name="D" unicode="D" horiz-adv-x="601" 
d="M225 36c99 2 183 37 252 105s103 151 103 250s-34 182 -103 250s-153 103 -252 105v18c103 -2 191 -39 264 -111s109 -159 109 -262s-36 -190 -109 -262s-161 -109 -264 -111v18zM225 72c89 2 164 34 226 95s93 136 93 224c0 89 -31 163 -93 224c-61 61 -137 93 -226 95
v18c94 -2 174 -35 239 -100s98 -144 98 -237s-33 -172 -98 -237s-145 -98 -239 -100v18zM225 108c79 2 145 30 200 84c55 55 83 121 83 199c0 79 -27 145 -82 199s-122 82 -201 84v18c84 -2 155 -32 213 -90c59 -57 88 -128 88 -211s-29 -154 -88 -212
c-58 -57 -129 -87 -213 -89v18zM225 144c69 2 128 26 176 73s72 105 72 174s-24 126 -72 173c-47 47 -106 72 -176 74v18c74 -2 137 -28 188 -79s77 -113 77 -186s-26 -135 -77 -186s-114 -77 -188 -79v18zM225 621c64 -3 118 -26 163 -70c45 -43 67 -97 67 -160
s-22 -117 -67 -161c-45 -43 -99 -66 -163 -68v459zM207 0h18c108 0 200 38 276 113c77 76 115 169 115 278s-38 202 -114 277c-75 76 -168 114 -277 114h-18v-782zM117 782h-18v-782h18v782zM153 782h-18v-782h18v782zM189 782h-18v-782h18v782zM81 782h-18v-782h18v782z
" />
    <glyph glyph-name="E" unicode="E" horiz-adv-x="513" 
d="M81 782h-18v-782h18v782zM189 782h-18v-782h18v782zM153 782h-18v-782h18v782zM117 782h-18v-782h18v782zM225 347h217v18h-217v18h217v18h-217v18h217v18h-217v18h217v18h-217v148h292v17h-292v18h292v18h-292v18h292v18h-292v18h292v18h-292v18h292v18h-310v-782h310
v18h-292v18h292v18h-292v18h292v18h-292v18h292v18h-292v18h292v18h-292v149h217v18h-217v18z" />
    <glyph glyph-name="F" unicode="F" horiz-adv-x="510" 
d="M81 782h-18v-782h18v782zM189 782h-18v-782h18v782zM153 782h-18v-782h18v782zM117 782h-18v-782h18v782zM225 347h217v18h-217v18h217v18h-217v18h217v18h-217v18h217v18h-217v148h292v17h-292v18h292v18h-292v18h292v18h-292v18h292v18h-292v18h292v18h-310v-782h18
v311h217v18h-217v18z" />
    <glyph glyph-name="G" unicode="G" horiz-adv-x="688" 
d="M526 382v-185c-20 -29 -47 -44 -80 -44c-65 0 -121 23 -168 70s-70 103 -70 168s23 121 70 168s103 70 168 70c57 0 105 -17 145 -51l12 16c-47 35 -100 53 -157 53c-71 0 -131 -25 -181 -75c-50 -49 -75 -110 -75 -181s25 -131 75 -181s110 -75 181 -75
c33 0 59 12 80 35v-24c-27 -19 -54 -29 -80 -29c-75 0 -140 27 -194 80c-53 54 -80 119 -80 194s27 140 80 193c54 54 119 81 194 81c61 0 117 -19 167 -56l10 15c-55 39 -114 59 -177 59c-81 0 -150 -29 -207 -86s-85 -125 -85 -206s28 -150 85 -207s126 -85 207 -85
c27 0 53 8 80 25v-23c-33 -13 -59 -20 -80 -20c-85 0 -158 30 -219 91s-91 134 -91 219s30 158 91 219s134 91 219 91c68 0 130 -21 187 -63l11 14c-60 45 -126 67 -198 67c-91 0 -168 -32 -232 -96s-96 -141 -96 -232s32 -168 96 -232s141 -96 232 -96c23 0 49 6 80 17v-19
c-37 -11 -63 -16 -80 -16c-95 0 -177 34 -245 101c-67 68 -101 150 -101 245s34 177 101 244c68 68 150 102 245 102c77 0 146 -23 207 -70l11 15c-65 49 -137 73 -218 73c-101 0 -187 -36 -258 -107s-106 -156 -106 -257s35 -187 106 -258s157 -106 258 -106
c15 0 41 5 80 14v-19c-40 -8 -67 -12 -80 -12c-105 0 -195 37 -270 112s-112 164 -112 269s37 195 112 270s165 112 270 112c84 0 160 -25 228 -76l11 14c-71 53 -151 80 -239 80c-111 0 -205 -39 -283 -117c-77 -78 -116 -172 -116 -283s39 -205 116 -283
c78 -77 172 -116 283 -116c24 0 51 4 80 11v-3h18v382h-18zM580 382h-18v-382h18v382zM616 382h-18v-382h18v382zM652 382h-18v-382h18v382zM688 382h-18v-382h18v382z" />
    <glyph glyph-name="H" unicode="H" horiz-adv-x="695" 
d="M693 782h-18v-782h18v782zM658 782h-18v-782h18v782zM622 782h-18v-782h18v782zM586 782h-18v-782h18v782zM81 782h-18v-782h18v782zM189 782h-18v-782h18v782zM153 782h-18v-782h18v782zM117 782h-18v-782h18v782zM225 365v18h307v-18h-307zM225 329v18h307v-18h-307z
M532 473h-307v309h-18v-782h18v311h307v-311h18v782h-18v-309zM225 437v18h307v-18h-307zM532 401h-307v18h307v-18z" />
    <glyph glyph-name="I" unicode="I" horiz-adv-x="225" 
d="M117 782h-18v-782h18v782zM153 782h-18v-782h18v782zM189 782h-18v-782h18v782zM225 782h-18v-782h18v782zM81 782h-18v-782h18v782z" />
    <glyph glyph-name="J" unicode="J" horiz-adv-x="402" 
d="M294 199v583h-18v-583c0 -40 -34 -73 -74 -73h-139v-18h139c51 0 92 40 92 91zM366 199v583h-18v-583c0 -40 -14 -74 -43 -103c-29 -28 -63 -42 -103 -42h-139v-18h139c45 0 84 16 116 48s48 70 48 115zM240 199c0 -20 -18 -37 -38 -37h-139v-18h139c31 0 56 24 56 55
v583h-18v-583zM384 199c0 -50 -18 -93 -54 -128c-35 -35 -78 -53 -128 -53h-139v-18h139c55 0 102 19 141 58s59 86 59 141v583h-18v-583zM312 199c0 -60 -50 -109 -110 -109h-139v-18h139c35 0 65 12 90 37s38 55 38 90v583h-18v-583z" />
    <glyph glyph-name="K" unicode="K" horiz-adv-x="698" 
d="M304 504l382 -504h21l-289 385l288 397h-22l-278 -382l-11 15l267 367h-21l-257 -353l-11 16l244 337h-22l-233 -322l-12 15l223 307h-22l-212 -293l-11 15l201 278h-23zM225 0v371l280 -371h22l-302 401v381h-18v-782h18zM249 428l-10 -15l311 -413h22zM272 460l-12 -16
l335 -444h22zM294 489l-12 -15l358 -474h22zM117 782h-18v-782h18v782zM153 782h-18v-782h18v782zM189 782h-18v-782h18v782zM81 782h-18v-782h18v782z" />
    <glyph glyph-name="L" unicode="L" horiz-adv-x="536" 
d="M81 782h-18v-782h18v782zM189 782h-18v-782h18v782zM153 782h-18v-782h18v782zM117 782h-18v-782h18v782zM225 162v620h-18v-782h337v18h-319v18h319v18h-319v18h319v18h-319v18h319v18h-319v18h319v18h-319z" />
    <glyph glyph-name="M" unicode="M" horiz-adv-x="1134" 
d="M668 0h20l212 488l82 -488h18l-131 782h-18l-252 -579l-245 579h-19l255 -601l-10 -22l-264 623h-20l275 -646l-11 -24l-281 670h-21l292 -694l-10 -22l-303 716h-19l313 -740l-10 -21l-322 761h-19l-131 -782h18l125 751l14 -32l-120 -719h17l116 690l13 -31l-110 -659
h18l105 627l13 -32l-99 -595h16l96 567l12 -32l-88 -535h17l85 504l214 -504h20l325 751l6 -32l-312 -719h19l298 684l5 -30l-282 -654h21l267 619l6 -34l-254 -585h20l239 553l5 -32zM906 782h-18l131 -782h17zM942 782h-18l131 -782h18zM978 782h-17l130 -782h18z
M1015 782h-18l131 -782h18z" />
    <glyph glyph-name="N" unicode="N" horiz-adv-x="702" 
d="M209 782h-21l450 -782h21zM168 782h-21l449 -782h22zM126 782h-20l449 -782h21zM593 187v595h-18v-563l-18 30v533h-18v-502l-290 502h-20l450 -782h22v782h-18v-750l-18 30v720h-18v-688l-18 31v657h-18v-626zM99 720v-720h18v689l18 -31v-658h18v626l18 -32v-594h18
v563l18 -31v-532h18v501l288 -501h22l-453 782h-19v-782h18v752z" />
    <glyph glyph-name="O" unicode="O" 
d="M446 -8c111 0 205 39 283 116c78 78 117 172 117 283s-39 205 -117 283s-172 117 -283 117s-205 -39 -283 -117c-77 -78 -116 -172 -116 -283s39 -205 116 -283c78 -77 172 -116 283 -116zM64 391c0 105 37 195 112 270s165 112 270 112s195 -37 270 -112
s112 -165 112 -270s-37 -194 -112 -269s-165 -112 -270 -112s-195 37 -270 112s-112 164 -112 269zM446 27c101 0 186 35 257 106s107 157 107 258s-36 186 -107 257s-156 107 -257 107s-187 -36 -258 -107s-106 -156 -106 -257s35 -187 106 -258s157 -106 258 -106z
M100 391c0 95 34 177 101 244c68 68 150 102 245 102s177 -34 244 -102c68 -67 102 -149 102 -244s-34 -177 -102 -245c-67 -67 -149 -101 -244 -101s-177 34 -245 101c-67 68 -101 150 -101 245zM446 63c91 0 168 32 232 96s96 141 96 232s-32 168 -96 232s-141 96 -232 96
s-168 -32 -232 -96s-96 -141 -96 -232s32 -168 96 -232s141 -96 232 -96zM136 391c0 85 30 158 91 219s134 91 219 91s158 -30 219 -91s91 -134 91 -219s-30 -158 -91 -219s-134 -91 -219 -91s-158 30 -219 91s-91 134 -91 219zM446 99c81 0 149 28 206 85s86 126 86 207
s-29 149 -86 206s-125 86 -206 86s-150 -29 -207 -86s-85 -125 -85 -206s28 -150 85 -207s126 -85 207 -85zM172 391c0 75 27 140 80 193c54 54 119 81 194 81s140 -27 193 -81c54 -53 81 -118 81 -193s-27 -140 -81 -194c-53 -53 -118 -80 -193 -80s-140 27 -194 80
c-53 54 -80 119 -80 194zM446 135c71 0 132 25 181 75c50 50 75 110 75 181s-25 132 -75 181c-49 50 -110 75 -181 75s-131 -25 -181 -75c-50 -49 -75 -110 -75 -181s25 -131 75 -181s110 -75 181 -75zM208 391c0 65 23 121 70 168s103 70 168 70s121 -23 168 -70
s70 -103 70 -168s-23 -121 -70 -168s-103 -70 -168 -70s-121 23 -168 70s-70 103 -70 168z" />
    <glyph glyph-name="P" unicode="P" horiz-adv-x="524" 
d="M117 782h-18v-782h18v782zM153 782h-18v-782h18v782zM189 782h-18v-782h18v782zM81 782h-18v-782h18v782zM225 764h69c63 0 117 -22 161 -66s66 -98 66 -161s-22 -116 -66 -161c-44 -44 -98 -66 -161 -66h-69v18h69c57 0 106 20 147 61s62 91 62 148s-21 106 -62 147
s-90 62 -147 62h-69v18zM225 728h69c53 0 98 -19 135 -56s56 -82 56 -135s-19 -98 -56 -135s-82 -56 -135 -56h-69v18h69c47 0 88 17 122 51s51 75 51 122s-17 88 -51 122c-33 34 -74 51 -122 51h-69v18zM225 692h69c43 0 79 -15 109 -46c31 -30 46 -66 46 -109
s-15 -79 -46 -110c-30 -30 -66 -45 -109 -45h-69v18h69c37 0 69 13 96 40s41 60 41 97s-13 69 -40 96s-59 41 -97 41h-69v18zM225 656h69c33 0 61 -12 84 -35s35 -51 35 -84s-12 -61 -35 -84s-51 -35 -84 -35h-69v18h69c56 0 101 45 101 101s-45 101 -101 101h-69v18z
M225 621h69c45 0 83 -39 83 -84s-38 -84 -83 -84h-69v168zM294 782h-87v-782h18v292h69c67 0 125 24 173 72s72 106 72 173s-24 125 -72 173s-106 72 -173 72z" />
    <glyph glyph-name="Q" unicode="Q" 
d="M648 48l49 -59l13 12l-152 181c-30 -19 -67 -29 -112 -29c-65 0 -121 23 -168 70s-70 103 -70 168s23 121 70 168s103 70 168 70s121 -23 168 -70s70 -103 70 -168c0 -45 -12 -86 -35 -123l158 -187l13 12l-52 61c52 75 78 154 78 237c0 111 -39 205 -117 283
s-172 117 -283 117s-205 -39 -283 -117c-77 -78 -116 -172 -116 -283s39 -205 116 -283c78 -77 172 -116 283 -116c81 0 148 19 202 56zM554 159l12 -13c-33 -19 -73 -29 -120 -29c-75 0 -140 27 -194 80c-53 54 -80 119 -80 194s27 140 80 193c54 54 119 81 194 81
s140 -27 193 -81c54 -53 81 -118 81 -193c0 -47 -12 -92 -36 -135l-13 14c21 37 31 77 31 121c0 71 -25 132 -75 181c-49 50 -110 75 -181 75s-131 -25 -181 -75c-50 -49 -75 -110 -75 -181s25 -131 75 -181s110 -75 181 -75c33 0 69 8 108 24zM577 131l13 -14
c-41 -24 -89 -36 -144 -36c-85 0 -158 30 -219 91s-91 134 -91 219s30 158 91 219s134 91 219 91s158 -30 219 -91s91 -134 91 -219c0 -63 -16 -118 -48 -165l-12 15c28 47 42 97 42 150c0 81 -29 149 -86 206s-125 86 -206 86s-150 -29 -207 -86s-85 -125 -85 -206
s28 -150 85 -207s126 -85 207 -85c47 0 90 11 131 32zM601 103l13 -14c-52 -29 -108 -44 -168 -44c-95 0 -177 34 -245 101c-67 68 -101 150 -101 245s34 177 101 244c68 68 150 102 245 102s177 -34 244 -102c68 -67 102 -149 102 -244c0 -75 -20 -139 -59 -193l-13 14
c36 51 54 111 54 179c0 91 -32 168 -96 232s-141 96 -232 96s-168 -32 -232 -96s-96 -141 -96 -232s32 -168 96 -232s141 -96 232 -96c55 0 106 13 155 40zM626 75l10 -15c-55 -33 -119 -50 -190 -50c-105 0 -195 37 -270 112s-112 164 -112 269s37 195 112 270
s165 112 270 112s195 -37 270 -112s112 -165 112 -270c0 -81 -24 -155 -72 -222l-12 15c44 59 66 128 66 207c0 101 -36 186 -107 257s-156 107 -257 107s-187 -36 -258 -107s-106 -156 -106 -257s35 -187 106 -258s157 -106 258 -106c61 0 121 16 180 48zM589 201l-15 -10
l150 -179l14 11zM615 225c-4 -5 -8 -10 -12 -14l149 -176l13 12zM640 253c-5 -6 -9 -11 -12 -15l151 -180l14 12z" />
    <glyph glyph-name="R" unicode="R" horiz-adv-x="541" 
d="M271 430c-7 -1 -13 -2 -18 -3l173 -427h19zM307 441c-7 -3 -13 -5 -18 -7l175 -434h20zM338 456c-4 -4 -9 -7 -16 -8l181 -448h20zM431 323c26 13 51 34 74 65c34 44 51 94 51 149c0 67 -24 125 -72 173s-106 72 -173 72h-104v-782h18v401l162 -401h19l-171 426h-10v195
h86c45 0 83 -39 83 -84c0 -27 -13 -51 -40 -73l188 -464h19zM424 339l-6 18c68 41 102 101 102 180c0 57 -21 106 -62 147s-90 62 -147 62h-86v18h86c63 0 117 -22 161 -66s66 -98 66 -161c0 -87 -38 -153 -114 -198zM410 373l-6 18c53 35 80 83 80 146c0 47 -17 88 -51 122
c-33 34 -74 51 -122 51h-86v18h86c52 0 97 -19 134 -56c38 -37 57 -82 57 -135c0 -69 -31 -123 -92 -164zM396 407l-6 18c39 28 58 65 58 112c0 37 -13 69 -40 96s-59 41 -97 41h-86v18h86c43 0 79 -15 109 -46c31 -30 46 -66 46 -109c0 -55 -23 -98 -70 -130zM383 442
l-7 18c24 16 36 42 36 77c0 56 -45 101 -101 101h-86v18h86c33 0 61 -12 84 -35s35 -51 35 -84c0 -39 -16 -71 -47 -95zM117 782h-18v-782h18v782zM153 782h-18v-782h18v782zM189 782h-18v-782h18v782zM81 782h-18v-782h18v782z" />
    <glyph glyph-name="S" unicode="S" horiz-adv-x="489" 
d="M481 636l15 10c-36 85 -120 145 -216 145c-65 0 -120 -23 -165 -69c-45 -45 -68 -100 -68 -165c0 -61 21 -113 62 -158c41 -44 92 -68 151 -73c45 -4 82 -42 82 -87c0 -47 -38 -86 -85 -86c-38 0 -64 17 -78 51l-15 -9c19 -40 50 -60 93 -60c57 0 103 47 103 104
c0 56 -41 100 -100 105c-55 5 -102 28 -140 68c-37 41 -56 89 -56 145c0 59 21 110 64 152c43 43 93 64 152 64c89 0 168 -56 201 -137zM418 600l14 9c-23 64 -83 110 -152 110c-45 0 -83 -16 -114 -48c-31 -31 -47 -69 -47 -114c0 -42 14 -78 42 -109
c29 -31 63 -48 104 -51s76 -20 105 -51c29 -30 44 -66 44 -107c0 -43 -15 -81 -46 -112s-68 -46 -111 -46c-62 0 -108 27 -138 82l-15 -10c29 -55 88 -90 153 -90c48 0 89 17 123 52c35 35 52 76 52 124c0 47 -16 86 -47 119s-70 52 -118 56c-37 3 -68 19 -93 46
s-38 60 -38 97c0 39 14 73 42 101c29 29 63 43 102 43c64 0 119 -41 138 -101zM351 561l18 11c-7 41 -45 75 -89 75c-49 0 -90 -39 -90 -90c0 -48 35 -85 84 -89c59 -5 109 -29 150 -72s62 -95 62 -157c0 -63 -22 -117 -67 -162s-99 -67 -162 -67c-87 0 -153 37 -197 112
l-16 -10c45 -73 125 -120 213 -120c68 0 126 24 174 72c49 49 73 107 73 175c0 66 -23 123 -69 171c-44 45 -97 70 -159 75c-37 3 -67 33 -67 72s32 72 71 72c37 0 68 -31 71 -68zM385 581l16 9c-15 55 -64 93 -121 93c-35 0 -64 -12 -89 -37c-24 -25 -36 -54 -36 -89
c0 -32 11 -60 33 -84c23 -24 50 -38 82 -41c52 -5 95 -25 129 -62c34 -36 51 -80 51 -131c0 -53 -19 -99 -57 -137c-37 -38 -83 -57 -136 -57c-71 0 -135 39 -168 98l-15 -11c44 -70 105 -105 183 -105c58 0 108 21 149 62c41 42 62 92 62 150c0 57 -19 105 -58 144
c-38 40 -84 62 -138 67c-57 5 -100 51 -100 107c0 29 11 55 32 76s47 32 76 32c51 0 96 -36 105 -84zM449 617l15 10c-28 76 -100 128 -184 128c-55 0 -101 -19 -139 -58s-57 -85 -57 -140c0 -51 17 -96 51 -133c35 -37 77 -58 127 -62c33 -3 60 -16 82 -40
c23 -23 34 -51 34 -83c0 -33 -12 -62 -36 -86c-23 -24 -52 -36 -85 -36c-49 0 -85 22 -108 67l-15 -11c25 -49 66 -74 123 -74c39 0 71 14 98 41s41 60 41 99c0 37 -13 69 -39 95c-25 27 -57 42 -94 45c-45 4 -84 23 -116 57c-31 34 -47 74 -47 121c0 49 18 92 53 127
s78 53 127 53c76 0 145 -49 169 -120z" />
    <glyph glyph-name="T" unicode="T" horiz-adv-x="531" 
d="M55 782v-18h478v18h-478zM55 746v-18h478v18h-478zM55 710v-18h478v18h-478zM55 674v-18h478v18h-478zM249 621v-621h18v621h18v-621h18v621h18v-621h18v621h18v-621h18v621h158v17h-478v-17h159v-621h18v621h17z" />
    <glyph glyph-name="U" unicode="U" horiz-adv-x="641" 
d="M641 280v502h-18v-502c0 -75 -27 -138 -80 -191s-116 -79 -191 -79s-139 26 -192 79s-79 116 -79 191v502h-18v-502c0 -79 28 -147 84 -204c57 -56 125 -84 205 -84s148 28 204 84c57 57 85 125 85 204zM605 280v502h-18v-502c0 -65 -23 -120 -69 -166
c-45 -46 -101 -69 -166 -69s-120 23 -166 69s-69 101 -69 166v502h-18v-502c0 -69 25 -129 74 -179c49 -49 109 -74 179 -74s130 25 179 74c49 50 74 110 74 179zM569 280v502h-18v-502c0 -55 -20 -102 -59 -141s-85 -58 -140 -58s-102 19 -141 58s-58 86 -58 141v502h-18
v-502c0 -59 21 -110 64 -153s94 -64 153 -64s110 21 153 64s64 94 64 153zM533 280v502h-18v-502c0 -45 -16 -83 -48 -115c-31 -32 -70 -48 -115 -48s-83 16 -115 48s-48 70 -48 115v502h-18v-502c0 -49 18 -92 53 -128c36 -35 79 -53 128 -53s92 18 127 53
c36 36 54 79 54 128zM497 280v502h-18v-502c0 -35 -12 -65 -37 -90s-55 -37 -90 -37s-65 12 -90 37s-37 55 -37 90v502h-18v-502c0 -40 14 -74 42 -103c29 -28 63 -42 103 -42s74 14 102 42c29 29 43 63 43 103z" />
    <glyph glyph-name="V" unicode="V" horiz-adv-x="768" 
d="M439 156l225 626h-19l-216 -598l-9 25l207 573h-20l-197 -545l-196 545h-19l282 -782h19l284 782h-19l-275 -757l-9 26l264 731h-19l-255 -704l-9 27l245 677h-19l-236 -651zM99 782h-19l283 -782h19zM137 782h-20l285 -782h19zM175 782h-19l283 -782h20zM61 782h-19
l283 -782h19z" />
    <glyph glyph-name="W" unicode="W" horiz-adv-x="1191" 
d="M174 782h-20l225 -782h18zM549 782l-190 -516l-148 516h-19l226 -782h18l196 539l184 -539h19l-192 566l9 26l202 -592h20l-212 621l10 26l221 -647h19l-230 672l9 27l239 -699h19l-247 728l9 26l258 -754h19l220 782h-18l-212 -752l-11 29l204 723h-19l-195 -691l-10 30
l186 661h-18l-178 -632l-10 30l169 602h-19l-161 -573l-10 31l153 542h-19l-145 -511l-174 511h-19l-275 -752l-8 29l264 723h-20l-253 -692l-8 29l243 663h-19l-233 -633l-8 29l222 604h-20l-211 -576l-8 31l200 545h-19zM136 782h-18l224 -782h20zM99 782h-19l224 -782h19
zM61 782h-18l224 -782h19z" />
    <glyph glyph-name="X" unicode="X" horiz-adv-x="668" 
d="M396 499l161 283h-21l-150 -265l-10 19l140 246h-21l-129 -228l-129 228h-22l443 -782h21l-220 390l222 392h-21l-212 -375l-10 19l200 356h-20l-191 -338l-9 19l180 319h-21l-170 -301zM334 280l-159 -280h22l148 262l10 -19l-137 -243h19l128 226l129 -226h19l-442 782
h-21l223 -392l-221 -390h21l210 371l10 -18l-200 -353h20l190 334l11 -18l-180 -316h21l170 298zM112 782h-20l442 -782h21zM153 782h-21l443 -782h21zM195 782h-22l444 -782h20z" />
    <glyph glyph-name="Y" unicode="Y" horiz-adv-x="690" 
d="M441 281v-281h18v281l249 501h-19l-239 -482l-9 18l228 464h-19l-218 -445l-9 18l208 427h-19l-198 -408l-9 19l189 389h-19l-179 -370l-9 18l169 352h-19l-159 -332l-159 332h-19zM423 0v281l-242 501h-19l243 -501v-281h18zM387 0v281l-243 501h-19l244 -501v-281h18z
M351 0v281l-245 501h-19l246 -501v-281h18zM315 0v281l-248 501h-19l249 -501v-281h18z" />
    <glyph glyph-name="Z" unicode="Z" horiz-adv-x="618" 
d="M59 782v-18h540l9 18h-549zM59 746v-18h523l9 18h-532zM59 710v-18h505l9 18h-514zM59 674v-18h488l9 18h-497zM510 621l-303 -621h411v18h-381l8 18h373v18h-364l8 18h356v18h-346l8 18h338v18h-329l8 18h321v18h-313l233 476h-479v-17h291l-302 -621h20l302 621h19
l-302 -621h20l303 621h20l-302 -621h19l303 621h19l-302 -621h20l302 621h21z" />
    <glyph glyph-name="bracketleft" unicode="[" horiz-adv-x="267" 
d="M117 782h-18v-925h18v925zM81 782h-18v-925h18v925zM153 -89v817h112v18h-112v18h112v18h-130v-925h130v18h-112v18h112v18h-112z" />
    <glyph glyph-name="backslash" unicode="\" horiz-adv-x="434" 
d="M149 784h-19l286 -787h20zM73 784h-19l286 -787h19zM111 784h-19l286 -787h19z" />
    <glyph glyph-name="bracketright" unicode="]" horiz-adv-x="267" 
d="M265 782h-18v-925h18v925zM175 728v-817h-112v-18h112v-18h-112v-18h130v925h-130v-18h112v-18h-112v-18h112zM229 782h-18v-925h18v925z" />
    <glyph glyph-name="asciicircum" unicode="^" horiz-adv-x="458" 
d="M225 974h-25l-140 -140h26zM276 974h-25l-139 -140h25zM289 936l100 -102h25l-113 114l13 13l127 -127h25l-139 140h-26l-138 -140h25l75 76l75 -76h26l-88 89z" />
    <glyph glyph-name="underscore" unicode="_" horiz-adv-x="588" 
d="M663 -146v70h-601v-70h601z" />
    <glyph glyph-name="grave" unicode="`" horiz-adv-x="326" 
d="M140 974h-26l139 -140h25zM190 974h-25l139 -140h26zM89 974h-26l139 -140h25z" />
    <glyph glyph-name="a" unicode="a" horiz-adv-x="819" 
d="M310 211h272l7 -18h-287zM323 247h246l6 -18h-259zM548 301h-203l101 259zM338 283h217l6 -18h-230zM604 158h-315l7 17h301zM282 140h329l54 -140h19l-227 584l9 27l238 -611h20l-248 635l9 25l257 -660h20l-267 684l9 24l276 -708h19l-285 734l9 24l296 -758h20
l-305 782h-20l-306 -782h19zM494 782h-19l-307 -782h20zM456 782h-19l-307 -782h20zM418 782h-21l-305 -782h20zM377 782h-19l-305 -782h20z" />
    <glyph glyph-name="b" unicode="b" horiz-adv-x="514" 
d="M225 400h41c37 0 69 -14 96 -41s41 -60 41 -97s-14 -69 -41 -96s-59 -40 -96 -40h-41v18h41c33 0 62 11 85 34s35 51 35 84s-12 62 -35 85s-52 35 -85 35h-41v18zM225 364h41c56 0 102 -46 102 -102s-46 -100 -102 -100h-41v202zM422 537c0 -55 -22 -97 -66 -127
c55 -33 83 -83 83 -148c0 -47 -17 -88 -51 -122c-33 -33 -74 -50 -122 -50h-41v18h41c43 0 80 15 110 45c31 30 46 66 46 109c0 67 -43 126 -106 147c21 7 39 21 55 40c22 25 33 55 33 88c0 37 -14 69 -41 96s-59 41 -97 41h-41v18h41c43 0 80 -15 110 -46
c31 -30 46 -66 46 -109zM458 537c0 -45 -16 -87 -47 -125c43 -42 65 -92 65 -150c0 -57 -21 -106 -62 -147s-90 -61 -148 -61h-41v18h41c53 0 99 18 136 55s56 82 56 135c0 61 -24 110 -73 149c12 9 23 23 33 42c15 27 22 55 22 84c0 48 -17 89 -51 122
c-33 34 -74 51 -123 51h-41v18h41c53 0 98 -19 135 -56c38 -37 57 -82 57 -135zM494 537c0 -45 -12 -86 -36 -123c36 -43 54 -94 54 -152c0 -67 -24 -125 -72 -173c-48 -47 -106 -71 -174 -71h-41v18h41c63 0 116 22 160 66c45 44 67 97 67 160c0 56 -19 106 -57 151
c27 43 40 84 40 124c0 57 -21 106 -62 147s-90 62 -148 62h-41v18h41c63 0 117 -22 161 -67c45 -44 67 -97 67 -160zM225 621h41c45 0 84 -39 84 -84s-37 -84 -84 -84h-41v168zM225 656h41c33 0 62 -12 85 -35s35 -51 35 -84s-12 -61 -35 -84s-52 -35 -85 -35h-41v18h41
c56 0 102 45 102 101s-46 101 -102 101h-41v18zM479 415c22 39 33 79 33 122c0 67 -24 125 -72 173s-106 72 -174 72h-59v-782h59c73 0 135 25 186 76s77 113 77 186c0 56 -17 107 -50 153zM117 782h-18v-782h18v782zM153 782h-18v-782h18v782zM189 782h-18v-782h18v782z
M81 782h-18v-782h18v782z" />
    <glyph glyph-name="c" unicode="c" horiz-adv-x="493" 
d="M494 625v18c-14 3 -30 4 -48 4c-71 0 -131 -25 -181 -75c-50 -49 -75 -110 -75 -181s25 -131 75 -181s110 -75 181 -75c19 0 35 2 48 5v19c-16 -4 -32 -6 -48 -6c-65 0 -121 23 -168 70s-70 103 -70 168s23 121 70 168s103 70 168 70c12 0 28 -1 48 -4zM494 661v18
c-14 3 -30 4 -48 4c-81 0 -150 -29 -207 -86s-85 -125 -85 -206s28 -150 85 -207s126 -85 207 -85c19 0 35 2 48 5v18c-13 -3 -29 -5 -48 -5c-75 0 -140 27 -194 80c-53 54 -80 119 -80 194s27 140 80 193c54 54 119 81 194 81c18 0 34 -1 48 -4zM494 697v19
c-16 2 -32 3 -48 3c-91 0 -168 -32 -232 -96s-96 -141 -96 -232s32 -168 96 -232s141 -96 232 -96c18 0 34 1 48 4v18c-14 -3 -30 -4 -48 -4c-85 0 -158 30 -219 91s-91 134 -91 219s30 158 91 219s134 91 219 91c19 0 35 -1 48 -4zM494 734v18c-16 2 -32 3 -48 3
c-101 0 -187 -36 -258 -107s-106 -156 -106 -257s35 -187 106 -258s157 -106 258 -106c11 0 27 1 48 4v18c-21 -3 -37 -4 -48 -4c-95 0 -177 34 -245 101c-67 68 -101 150 -101 245s34 177 101 244c68 68 150 102 245 102c16 0 32 -1 48 -3zM494 770v18c-16 2 -32 3 -48 3
c-111 0 -205 -39 -283 -117c-77 -78 -116 -172 -116 -283s39 -205 116 -283c78 -77 172 -116 283 -116c16 0 32 1 48 3v18c-16 -2 -32 -3 -48 -3c-105 0 -195 37 -270 112s-112 164 -112 269s37 195 112 270s165 112 270 112c16 0 32 -1 48 -3z" />
    <glyph glyph-name="d" unicode="d" horiz-adv-x="601" 
d="M225 36c99 2 183 37 252 105s103 151 103 250s-34 182 -103 250s-153 103 -252 105v18c103 -2 191 -39 264 -111s109 -159 109 -262s-36 -190 -109 -262s-161 -109 -264 -111v18zM225 72c89 2 164 34 226 95s93 136 93 224c0 89 -31 163 -93 224c-61 61 -137 93 -226 95
v18c94 -2 174 -35 239 -100s98 -144 98 -237s-33 -172 -98 -237s-145 -98 -239 -100v18zM225 108c79 2 145 30 200 84c55 55 83 121 83 199c0 79 -27 145 -82 199s-122 82 -201 84v18c84 -2 155 -32 213 -90c59 -57 88 -128 88 -211s-29 -154 -88 -212
c-58 -57 -129 -87 -213 -89v18zM225 144c69 2 128 26 176 73s72 105 72 174s-24 126 -72 173c-47 47 -106 72 -176 74v18c74 -2 137 -28 188 -79s77 -113 77 -186s-26 -135 -77 -186s-114 -77 -188 -79v18zM225 621c64 -3 118 -26 163 -70c45 -43 67 -97 67 -160
s-22 -117 -67 -161c-45 -43 -99 -66 -163 -68v459zM207 0h18c108 0 200 38 276 113c77 76 115 169 115 278s-38 202 -114 277c-75 76 -168 114 -277 114h-18v-782zM117 782h-18v-782h18v782zM153 782h-18v-782h18v782zM189 782h-18v-782h18v782zM81 782h-18v-782h18v782z
" />
    <glyph glyph-name="e" unicode="e" horiz-adv-x="513" 
d="M81 782h-18v-782h18v782zM189 782h-18v-782h18v782zM153 782h-18v-782h18v782zM117 782h-18v-782h18v782zM225 347h217v18h-217v18h217v18h-217v18h217v18h-217v18h217v18h-217v148h292v17h-292v18h292v18h-292v18h292v18h-292v18h292v18h-292v18h292v18h-310v-782h310
v18h-292v18h292v18h-292v18h292v18h-292v18h292v18h-292v18h292v18h-292v149h217v18h-217v18z" />
    <glyph glyph-name="f" unicode="f" horiz-adv-x="510" 
d="M81 782h-18v-782h18v782zM189 782h-18v-782h18v782zM153 782h-18v-782h18v782zM117 782h-18v-782h18v782zM225 347h217v18h-217v18h217v18h-217v18h217v18h-217v18h217v18h-217v148h292v17h-292v18h292v18h-292v18h292v18h-292v18h292v18h-292v18h292v18h-310v-782h18
v311h217v18h-217v18z" />
    <glyph glyph-name="g" unicode="g" horiz-adv-x="688" 
d="M526 382v-185c-20 -29 -47 -44 -80 -44c-65 0 -121 23 -168 70s-70 103 -70 168s23 121 70 168s103 70 168 70c57 0 105 -17 145 -51l12 16c-47 35 -100 53 -157 53c-71 0 -131 -25 -181 -75c-50 -49 -75 -110 -75 -181s25 -131 75 -181s110 -75 181 -75
c33 0 59 12 80 35v-24c-27 -19 -54 -29 -80 -29c-75 0 -140 27 -194 80c-53 54 -80 119 -80 194s27 140 80 193c54 54 119 81 194 81c61 0 117 -19 167 -56l10 15c-55 39 -114 59 -177 59c-81 0 -150 -29 -207 -86s-85 -125 -85 -206s28 -150 85 -207s126 -85 207 -85
c27 0 53 8 80 25v-23c-33 -13 -59 -20 -80 -20c-85 0 -158 30 -219 91s-91 134 -91 219s30 158 91 219s134 91 219 91c68 0 130 -21 187 -63l11 14c-60 45 -126 67 -198 67c-91 0 -168 -32 -232 -96s-96 -141 -96 -232s32 -168 96 -232s141 -96 232 -96c23 0 49 6 80 17v-19
c-37 -11 -63 -16 -80 -16c-95 0 -177 34 -245 101c-67 68 -101 150 -101 245s34 177 101 244c68 68 150 102 245 102c77 0 146 -23 207 -70l11 15c-65 49 -137 73 -218 73c-101 0 -187 -36 -258 -107s-106 -156 -106 -257s35 -187 106 -258s157 -106 258 -106
c15 0 41 5 80 14v-19c-40 -8 -67 -12 -80 -12c-105 0 -195 37 -270 112s-112 164 -112 269s37 195 112 270s165 112 270 112c84 0 160 -25 228 -76l11 14c-71 53 -151 80 -239 80c-111 0 -205 -39 -283 -117c-77 -78 -116 -172 -116 -283s39 -205 116 -283
c78 -77 172 -116 283 -116c24 0 51 4 80 11v-3h18v382h-18zM580 382h-18v-382h18v382zM616 382h-18v-382h18v382zM652 382h-18v-382h18v382zM688 382h-18v-382h18v382z" />
    <glyph glyph-name="h" unicode="h" horiz-adv-x="695" 
d="M693 782h-18v-782h18v782zM658 782h-18v-782h18v782zM622 782h-18v-782h18v782zM586 782h-18v-782h18v782zM81 782h-18v-782h18v782zM189 782h-18v-782h18v782zM153 782h-18v-782h18v782zM117 782h-18v-782h18v782zM225 365v18h307v-18h-307zM225 329v18h307v-18h-307z
M532 473h-307v309h-18v-782h18v311h307v-311h18v782h-18v-309zM225 437v18h307v-18h-307zM532 401h-307v18h307v-18z" />
    <glyph glyph-name="i" unicode="i" horiz-adv-x="225" 
d="M117 782h-18v-782h18v782zM153 782h-18v-782h18v782zM189 782h-18v-782h18v782zM225 782h-18v-782h18v782zM81 782h-18v-782h18v782z" />
    <glyph glyph-name="j" unicode="j" horiz-adv-x="402" 
d="M294 199v583h-18v-583c0 -40 -34 -73 -74 -73h-139v-18h139c51 0 92 40 92 91zM366 199v583h-18v-583c0 -40 -14 -74 -43 -103c-29 -28 -63 -42 -103 -42h-139v-18h139c45 0 84 16 116 48s48 70 48 115zM240 199c0 -20 -18 -37 -38 -37h-139v-18h139c31 0 56 24 56 55
v583h-18v-583zM384 199c0 -50 -18 -93 -54 -128c-35 -35 -78 -53 -128 -53h-139v-18h139c55 0 102 19 141 58s59 86 59 141v583h-18v-583zM312 199c0 -60 -50 -109 -110 -109h-139v-18h139c35 0 65 12 90 37s38 55 38 90v583h-18v-583z" />
    <glyph glyph-name="k" unicode="k" horiz-adv-x="698" 
d="M304 504l382 -504h21l-289 385l288 397h-22l-278 -382l-11 15l267 367h-21l-257 -353l-11 16l244 337h-22l-233 -322l-12 15l223 307h-22l-212 -293l-11 15l201 278h-23zM225 0v371l280 -371h22l-302 401v381h-18v-782h18zM249 428l-10 -15l311 -413h22zM272 460l-12 -16
l335 -444h22zM294 489l-12 -15l358 -474h22zM117 782h-18v-782h18v782zM153 782h-18v-782h18v782zM189 782h-18v-782h18v782zM81 782h-18v-782h18v782z" />
    <glyph glyph-name="l" unicode="l" horiz-adv-x="536" 
d="M81 782h-18v-782h18v782zM189 782h-18v-782h18v782zM153 782h-18v-782h18v782zM117 782h-18v-782h18v782zM225 162v620h-18v-782h337v18h-319v18h319v18h-319v18h319v18h-319v18h319v18h-319v18h319v18h-319z" />
    <glyph glyph-name="m" unicode="m" horiz-adv-x="1134" 
d="M668 0h20l212 488l82 -488h18l-131 782h-18l-252 -579l-245 579h-19l255 -601l-10 -22l-264 623h-20l275 -646l-11 -24l-281 670h-21l292 -694l-10 -22l-303 716h-19l313 -740l-10 -21l-322 761h-19l-131 -782h18l125 751l14 -32l-120 -719h17l116 690l13 -31l-110 -659
h18l105 627l13 -32l-99 -595h16l96 567l12 -32l-88 -535h17l85 504l214 -504h20l325 751l6 -32l-312 -719h19l298 684l5 -30l-282 -654h21l267 619l6 -34l-254 -585h20l239 553l5 -32zM906 782h-18l131 -782h17zM942 782h-18l131 -782h18zM978 782h-17l130 -782h18z
M1015 782h-18l131 -782h18z" />
    <glyph glyph-name="n" unicode="n" horiz-adv-x="702" 
d="M209 782h-21l450 -782h21zM168 782h-21l449 -782h22zM126 782h-20l449 -782h21zM593 187v595h-18v-563l-18 30v533h-18v-502l-290 502h-20l450 -782h22v782h-18v-750l-18 30v720h-18v-688l-18 31v657h-18v-626zM99 720v-720h18v689l18 -31v-658h18v626l18 -32v-594h18
v563l18 -31v-532h18v501l288 -501h22l-453 782h-19v-782h18v752z" />
    <glyph glyph-name="o" unicode="o" 
d="M446 -8c111 0 205 39 283 116c78 78 117 172 117 283s-39 205 -117 283s-172 117 -283 117s-205 -39 -283 -117c-77 -78 -116 -172 -116 -283s39 -205 116 -283c78 -77 172 -116 283 -116zM64 391c0 105 37 195 112 270s165 112 270 112s195 -37 270 -112
s112 -165 112 -270s-37 -194 -112 -269s-165 -112 -270 -112s-195 37 -270 112s-112 164 -112 269zM446 27c101 0 186 35 257 106s107 157 107 258s-36 186 -107 257s-156 107 -257 107s-187 -36 -258 -107s-106 -156 -106 -257s35 -187 106 -258s157 -106 258 -106z
M100 391c0 95 34 177 101 244c68 68 150 102 245 102s177 -34 244 -102c68 -67 102 -149 102 -244s-34 -177 -102 -245c-67 -67 -149 -101 -244 -101s-177 34 -245 101c-67 68 -101 150 -101 245zM446 63c91 0 168 32 232 96s96 141 96 232s-32 168 -96 232s-141 96 -232 96
s-168 -32 -232 -96s-96 -141 -96 -232s32 -168 96 -232s141 -96 232 -96zM136 391c0 85 30 158 91 219s134 91 219 91s158 -30 219 -91s91 -134 91 -219s-30 -158 -91 -219s-134 -91 -219 -91s-158 30 -219 91s-91 134 -91 219zM446 99c81 0 149 28 206 85s86 126 86 207
s-29 149 -86 206s-125 86 -206 86s-150 -29 -207 -86s-85 -125 -85 -206s28 -150 85 -207s126 -85 207 -85zM172 391c0 75 27 140 80 193c54 54 119 81 194 81s140 -27 193 -81c54 -53 81 -118 81 -193s-27 -140 -81 -194c-53 -53 -118 -80 -193 -80s-140 27 -194 80
c-53 54 -80 119 -80 194zM446 135c71 0 132 25 181 75c50 50 75 110 75 181s-25 132 -75 181c-49 50 -110 75 -181 75s-131 -25 -181 -75c-50 -49 -75 -110 -75 -181s25 -131 75 -181s110 -75 181 -75zM208 391c0 65 23 121 70 168s103 70 168 70s121 -23 168 -70
s70 -103 70 -168s-23 -121 -70 -168s-103 -70 -168 -70s-121 23 -168 70s-70 103 -70 168z" />
    <glyph glyph-name="p" unicode="p" horiz-adv-x="524" 
d="M117 782h-18v-782h18v782zM153 782h-18v-782h18v782zM189 782h-18v-782h18v782zM81 782h-18v-782h18v782zM225 764h69c63 0 117 -22 161 -66s66 -98 66 -161s-22 -116 -66 -161c-44 -44 -98 -66 -161 -66h-69v18h69c57 0 106 20 147 61s62 91 62 148s-21 106 -62 147
s-90 62 -147 62h-69v18zM225 728h69c53 0 98 -19 135 -56s56 -82 56 -135s-19 -98 -56 -135s-82 -56 -135 -56h-69v18h69c47 0 88 17 122 51s51 75 51 122s-17 88 -51 122c-33 34 -74 51 -122 51h-69v18zM225 692h69c43 0 79 -15 109 -46c31 -30 46 -66 46 -109
s-15 -79 -46 -110c-30 -30 -66 -45 -109 -45h-69v18h69c37 0 69 13 96 40s41 60 41 97s-13 69 -40 96s-59 41 -97 41h-69v18zM225 656h69c33 0 61 -12 84 -35s35 -51 35 -84s-12 -61 -35 -84s-51 -35 -84 -35h-69v18h69c56 0 101 45 101 101s-45 101 -101 101h-69v18z
M225 621h69c45 0 83 -39 83 -84s-38 -84 -83 -84h-69v168zM294 782h-87v-782h18v292h69c67 0 125 24 173 72s72 106 72 173s-24 125 -72 173s-106 72 -173 72z" />
    <glyph glyph-name="q" unicode="q" 
d="M648 48l49 -59l13 12l-152 181c-30 -19 -67 -29 -112 -29c-65 0 -121 23 -168 70s-70 103 -70 168s23 121 70 168s103 70 168 70s121 -23 168 -70s70 -103 70 -168c0 -45 -12 -86 -35 -123l158 -187l13 12l-52 61c52 75 78 154 78 237c0 111 -39 205 -117 283
s-172 117 -283 117s-205 -39 -283 -117c-77 -78 -116 -172 -116 -283s39 -205 116 -283c78 -77 172 -116 283 -116c81 0 148 19 202 56zM554 159l12 -13c-33 -19 -73 -29 -120 -29c-75 0 -140 27 -194 80c-53 54 -80 119 -80 194s27 140 80 193c54 54 119 81 194 81
s140 -27 193 -81c54 -53 81 -118 81 -193c0 -47 -12 -92 -36 -135l-13 14c21 37 31 77 31 121c0 71 -25 132 -75 181c-49 50 -110 75 -181 75s-131 -25 -181 -75c-50 -49 -75 -110 -75 -181s25 -131 75 -181s110 -75 181 -75c33 0 69 8 108 24zM577 131l13 -14
c-41 -24 -89 -36 -144 -36c-85 0 -158 30 -219 91s-91 134 -91 219s30 158 91 219s134 91 219 91s158 -30 219 -91s91 -134 91 -219c0 -63 -16 -118 -48 -165l-12 15c28 47 42 97 42 150c0 81 -29 149 -86 206s-125 86 -206 86s-150 -29 -207 -86s-85 -125 -85 -206
s28 -150 85 -207s126 -85 207 -85c47 0 90 11 131 32zM601 103l13 -14c-52 -29 -108 -44 -168 -44c-95 0 -177 34 -245 101c-67 68 -101 150 -101 245s34 177 101 244c68 68 150 102 245 102s177 -34 244 -102c68 -67 102 -149 102 -244c0 -75 -20 -139 -59 -193l-13 14
c36 51 54 111 54 179c0 91 -32 168 -96 232s-141 96 -232 96s-168 -32 -232 -96s-96 -141 -96 -232s32 -168 96 -232s141 -96 232 -96c55 0 106 13 155 40zM626 75l10 -15c-55 -33 -119 -50 -190 -50c-105 0 -195 37 -270 112s-112 164 -112 269s37 195 112 270
s165 112 270 112s195 -37 270 -112s112 -165 112 -270c0 -81 -24 -155 -72 -222l-12 15c44 59 66 128 66 207c0 101 -36 186 -107 257s-156 107 -257 107s-187 -36 -258 -107s-106 -156 -106 -257s35 -187 106 -258s157 -106 258 -106c61 0 121 16 180 48zM589 201l-15 -10
l150 -179l14 11zM615 225c-4 -5 -8 -10 -12 -14l149 -176l13 12zM640 253c-5 -6 -9 -11 -12 -15l151 -180l14 12z" />
    <glyph glyph-name="r" unicode="r" horiz-adv-x="541" 
d="M271 430c-7 -1 -13 -2 -18 -3l173 -427h19zM307 441c-7 -3 -13 -5 -18 -7l175 -434h20zM338 456c-4 -4 -9 -7 -16 -8l181 -448h20zM431 323c26 13 51 34 74 65c34 44 51 94 51 149c0 67 -24 125 -72 173s-106 72 -173 72h-104v-782h18v401l162 -401h19l-171 426h-10v195
h86c45 0 83 -39 83 -84c0 -27 -13 -51 -40 -73l188 -464h19zM424 339l-6 18c68 41 102 101 102 180c0 57 -21 106 -62 147s-90 62 -147 62h-86v18h86c63 0 117 -22 161 -66s66 -98 66 -161c0 -87 -38 -153 -114 -198zM410 373l-6 18c53 35 80 83 80 146c0 47 -17 88 -51 122
c-33 34 -74 51 -122 51h-86v18h86c52 0 97 -19 134 -56c38 -37 57 -82 57 -135c0 -69 -31 -123 -92 -164zM396 407l-6 18c39 28 58 65 58 112c0 37 -13 69 -40 96s-59 41 -97 41h-86v18h86c43 0 79 -15 109 -46c31 -30 46 -66 46 -109c0 -55 -23 -98 -70 -130zM383 442
l-7 18c24 16 36 42 36 77c0 56 -45 101 -101 101h-86v18h86c33 0 61 -12 84 -35s35 -51 35 -84c0 -39 -16 -71 -47 -95zM117 782h-18v-782h18v782zM153 782h-18v-782h18v782zM189 782h-18v-782h18v782zM81 782h-18v-782h18v782z" />
    <glyph glyph-name="s" unicode="s" horiz-adv-x="489" 
d="M481 636l15 10c-36 85 -120 145 -216 145c-65 0 -120 -23 -165 -69c-45 -45 -68 -100 -68 -165c0 -61 21 -113 62 -158c41 -44 92 -68 151 -73c45 -4 82 -42 82 -87c0 -47 -38 -86 -85 -86c-38 0 -64 17 -78 51l-15 -9c19 -40 50 -60 93 -60c57 0 103 47 103 104
c0 56 -41 100 -100 105c-55 5 -102 28 -140 68c-37 41 -56 89 -56 145c0 59 21 110 64 152c43 43 93 64 152 64c89 0 168 -56 201 -137zM418 600l14 9c-23 64 -83 110 -152 110c-45 0 -83 -16 -114 -48c-31 -31 -47 -69 -47 -114c0 -42 14 -78 43 -109s63 -48 104 -51
s75 -20 104 -51c29 -30 44 -66 44 -107c0 -43 -15 -81 -46 -112s-68 -46 -111 -46c-62 0 -108 27 -138 82l-15 -10c29 -55 88 -90 153 -90c48 0 89 17 123 52c35 35 52 76 52 124c0 47 -16 86 -47 119s-70 52 -118 56c-37 3 -68 19 -93 46s-38 60 -38 97c0 39 14 73 42 101
c29 29 63 43 102 43c64 0 119 -41 138 -101zM351 561l18 11c-7 41 -45 75 -89 75c-49 0 -90 -39 -90 -90c0 -48 35 -85 84 -89c59 -5 109 -29 150 -72s62 -95 62 -157c0 -63 -22 -117 -67 -162s-99 -67 -162 -67c-87 0 -153 37 -197 112l-16 -10c45 -73 125 -120 213 -120
c68 0 126 24 174 72c49 49 73 107 73 175c0 66 -23 123 -69 171c-44 45 -97 70 -159 75c-37 3 -67 33 -67 72s32 72 71 72c37 0 68 -31 71 -68zM385 581l16 9c-15 55 -64 93 -121 93c-35 0 -64 -12 -89 -37c-24 -25 -36 -54 -36 -89c0 -32 11 -60 33 -84
c23 -24 50 -38 82 -41c52 -5 95 -25 129 -62c34 -36 51 -80 51 -131c0 -53 -19 -99 -57 -137c-37 -38 -83 -57 -136 -57c-71 0 -135 39 -168 98l-15 -11c44 -70 105 -105 183 -105c58 0 108 21 149 62c41 42 62 92 62 150c0 57 -19 105 -58 144c-38 40 -84 62 -138 67
c-57 5 -100 51 -100 107c0 29 11 55 32 76s47 32 76 32c51 0 96 -36 105 -84zM449 617l15 10c-28 76 -100 128 -184 128c-55 0 -101 -19 -139 -58s-57 -85 -57 -140c0 -51 17 -96 51 -133c35 -37 77 -58 127 -62c33 -3 60 -16 82 -40c23 -23 34 -51 34 -83
c0 -33 -12 -62 -36 -86c-23 -24 -52 -36 -85 -36c-49 0 -85 22 -108 67l-15 -11c25 -49 66 -74 123 -74c39 0 71 14 98 41s41 60 41 99c0 37 -13 69 -39 95c-25 27 -57 42 -94 45c-45 4 -84 23 -116 57c-31 34 -47 74 -47 121c0 49 18 92 53 127s78 53 127 53
c76 0 145 -49 169 -120z" />
    <glyph glyph-name="t" unicode="t" horiz-adv-x="531" 
d="M55 782v-18h478v18h-478zM55 746v-18h478v18h-478zM55 710v-18h478v18h-478zM55 674v-18h478v18h-478zM249 621v-621h18v621h18v-621h18v621h18v-621h18v621h18v-621h18v621h158v17h-478v-17h159v-621h18v621h17z" />
    <glyph glyph-name="u" unicode="u" horiz-adv-x="641" 
d="M641 280v502h-18v-502c0 -75 -27 -138 -80 -191s-116 -79 -191 -79s-139 26 -192 79s-79 116 -79 191v502h-18v-502c0 -79 28 -147 84 -204c57 -56 125 -84 205 -84s148 28 204 84c57 57 85 125 85 204zM605 280v502h-18v-502c0 -65 -23 -120 -69 -166
c-45 -46 -101 -69 -166 -69s-120 23 -166 69s-69 101 -69 166v502h-18v-502c0 -69 25 -129 74 -179c49 -49 109 -74 179 -74s130 25 179 74c49 50 74 110 74 179zM569 280v502h-18v-502c0 -55 -20 -102 -59 -141s-85 -58 -140 -58s-102 19 -141 58s-58 86 -58 141v502h-18
v-502c0 -59 21 -110 64 -153s94 -64 153 -64s110 21 153 64s64 94 64 153zM533 280v502h-18v-502c0 -45 -16 -83 -48 -115c-31 -32 -70 -48 -115 -48s-83 16 -115 48s-48 70 -48 115v502h-18v-502c0 -49 18 -92 53 -128c36 -35 79 -53 128 -53s92 18 127 53
c36 36 54 79 54 128zM497 280v502h-18v-502c0 -35 -12 -65 -37 -90s-55 -37 -90 -37s-65 12 -90 37s-37 55 -37 90v502h-18v-502c0 -40 14 -74 42 -103c29 -28 63 -42 103 -42s74 14 102 42c29 29 43 63 43 103z" />
    <glyph glyph-name="v" unicode="v" horiz-adv-x="768" 
d="M439 156l225 626h-19l-216 -598l-9 25l207 573h-20l-197 -545l-196 545h-19l282 -782h19l284 782h-19l-275 -757l-9 26l264 731h-19l-255 -704l-9 27l245 677h-19l-236 -651zM99 782h-19l283 -782h19zM137 782h-20l285 -782h19zM175 782h-19l283 -782h20zM61 782h-19
l283 -782h19z" />
    <glyph glyph-name="w" unicode="w" horiz-adv-x="1191" 
d="M174 782h-20l225 -782h18zM549 782l-190 -516l-148 516h-19l226 -782h18l196 539l184 -539h19l-192 566l9 26l202 -592h20l-212 621l10 26l221 -647h19l-230 672l9 27l239 -699h19l-247 728l9 26l258 -754h19l220 782h-18l-212 -752l-11 29l204 723h-19l-195 -691l-10 30
l186 661h-18l-178 -632l-10 30l169 602h-19l-161 -573l-10 31l153 542h-19l-145 -511l-174 511h-19l-275 -752l-8 29l264 723h-20l-253 -692l-8 29l243 663h-19l-233 -633l-8 29l222 604h-20l-211 -576l-8 31l200 545h-19zM136 782h-18l224 -782h20zM99 782h-19l224 -782h19
zM61 782h-18l224 -782h19z" />
    <glyph glyph-name="x" unicode="x" horiz-adv-x="668" 
d="M396 499l161 283h-21l-150 -265l-10 19l140 246h-21l-129 -228l-129 228h-22l443 -782h21l-220 390l222 392h-21l-212 -375l-10 19l200 356h-20l-191 -338l-9 19l180 319h-21l-170 -301zM334 280l-159 -280h22l148 262l10 -19l-137 -243h19l128 226l129 -226h19l-442 782
h-21l223 -392l-221 -390h21l210 371l10 -18l-200 -353h20l190 334l11 -18l-180 -316h21l170 298zM112 782h-20l442 -782h21zM153 782h-21l443 -782h21zM195 782h-22l444 -782h20z" />
    <glyph glyph-name="y" unicode="y" horiz-adv-x="690" 
d="M441 281v-281h18v281l249 501h-19l-239 -482l-9 18l228 464h-19l-218 -445l-9 18l208 427h-19l-198 -408l-9 19l189 389h-19l-179 -370l-9 18l169 352h-19l-159 -332l-159 332h-19zM423 0v281l-242 501h-19l243 -501v-281h18zM387 0v281l-243 501h-19l244 -501v-281h18z
M351 0v281l-245 501h-19l246 -501v-281h18zM315 0v281l-248 501h-19l249 -501v-281h18z" />
    <glyph glyph-name="z" unicode="z" horiz-adv-x="618" 
d="M59 782v-18h540l9 18h-549zM59 746v-18h523l9 18h-532zM59 710v-18h505l9 18h-514zM59 674v-18h488l9 18h-497zM510 621l-303 -621h411v18h-381l8 18h373v18h-364l8 18h356v18h-346l8 18h338v18h-329l8 18h321v18h-313l233 476h-479v-17h291l-302 -621h20l302 621h19
l-302 -621h20l303 621h20l-302 -621h19l303 621h19l-302 -621h20l302 621h21z" />
    <glyph glyph-name="braceleft" unicode="{" horiz-adv-x="525" 
d="M523 796c-84 -3 -148 -18 -193 -44c-39 -23 -65 -54 -77 -94c-7 -21 -10 -56 -10 -105v-54c0 -69 -13 -116 -38 -142c-23 -23 -71 -41 -142 -53v-59c59 -9 99 -21 120 -34c31 -19 50 -45 57 -77c2 -10 3 -37 3 -81v-59c0 -43 1 -72 4 -87c6 -29 20 -56 43 -79
c25 -27 64 -46 117 -59c38 -9 77 -14 117 -14v49c-43 5 -79 17 -108 37c-41 28 -61 65 -61 111v22c1 9 1 17 1 22v52c0 82 -19 139 -56 170c-29 25 -87 43 -172 56c83 16 138 34 166 55c29 21 47 48 56 82c5 18 7 48 7 89v59c0 41 0 64 1 70c4 21 15 41 34 60
c30 31 74 49 131 55v52z" />
    <glyph glyph-name="bar" unicode="|" horiz-adv-x="144" 
d="M143 -77v931h-80v-931h80z" />
    <glyph glyph-name="braceright" unicode="}" horiz-adv-x="525" 
d="M63 796v-51c36 -4 65 -12 87 -23c38 -19 62 -44 71 -74c4 -13 6 -42 6 -86v-56c0 -83 18 -141 55 -173c29 -25 87 -45 174 -60c-79 -11 -134 -28 -167 -53c-41 -31 -62 -89 -62 -173v-52c0 -63 -10 -107 -31 -134c-24 -31 -68 -50 -133 -57v-51c83 6 144 18 181 37
c45 23 74 52 87 89c9 24 14 63 14 117v70c0 63 15 107 45 133c25 21 69 36 134 43v59c-61 11 -102 24 -125 41c-38 28 -57 77 -57 146v65c0 45 -2 76 -5 92c-12 59 -51 108 -164 136c-39 9 -76 14 -110 15z" />
    <glyph glyph-name="asciitilde" unicode="~" horiz-adv-x="467" 
d="M164 940c34 0 68 -6 102 -18c34 -11 68 -17 101 -17c35 0 69 5 102 16v19c-30 -11 -64 -17 -102 -17c-33 0 -67 6 -101 17c-33 12 -67 18 -102 18c-30 0 -64 -5 -101 -16v-19c30 11 64 17 101 17zM164 904c35 0 69 -6 102 -18c34 -11 68 -17 101 -17c37 0 71 5 102 15v18
c-37 -10 -71 -15 -102 -15c-33 0 -67 6 -101 17c-34 12 -68 18 -102 18c-33 0 -66 -6 -101 -18v-19c34 13 68 19 101 19zM367 851c-33 0 -67 6 -101 17c-33 12 -67 18 -102 18c-33 0 -66 -7 -101 -20v-20c35 15 69 22 101 22c34 0 68 -6 102 -18c34 -11 68 -17 101 -17
c43 0 77 5 102 14v18c-25 -9 -59 -14 -102 -14z" />
    <glyph glyph-name="quotesinglbase" unicode="&#x201a;" horiz-adv-x="237" 
d="M119 176h-19c13 -29 19 -63 19 -100c0 -42 -7 -76 -20 -103h20c12 36 18 70 18 103c0 37 -6 70 -18 100zM158 176h-20c11 -25 17 -59 17 -100c0 -37 -6 -72 -17 -103h20c10 37 15 72 15 103c0 33 -5 66 -15 100zM196 176h-19c9 -28 14 -61 14 -100c0 -27 -5 -62 -14 -103
h18c9 35 14 69 14 103c0 39 -4 73 -13 100zM233 176h-19c9 -26 13 -59 13 -100s-4 -75 -13 -103h18c9 27 13 62 13 103c0 38 -4 71 -12 100zM81 176h-20c15 -33 23 -67 23 -100c0 -35 -8 -70 -24 -103h20c14 28 21 62 21 103c0 37 -7 70 -20 100z" />
    <glyph glyph-name="quotedblbase" unicode="&#x201e;" horiz-adv-x="476" 
d="M124 176h-19c13 -33 19 -66 19 -100c0 -39 -7 -74 -20 -103h20c12 39 18 74 18 103c0 33 -6 67 -18 100zM162 176h-19c11 -28 17 -61 17 -100c0 -33 -6 -68 -17 -103h19c11 39 16 74 16 103c0 31 -5 64 -16 100zM200 176h-19c10 -30 15 -63 15 -100
c0 -25 -5 -59 -15 -103h18c10 37 15 72 15 103c0 37 -5 71 -14 100zM237 176h-19c9 -28 14 -61 14 -100s-5 -73 -14 -103h18c9 27 13 62 13 103c0 38 -4 71 -12 100zM86 176h-20c15 -34 22 -67 22 -100c0 -35 -8 -70 -24 -103h21c14 31 21 66 21 103c0 33 -7 67 -20 100z
M346 176h-19c13 -33 19 -66 19 -100c0 -39 -7 -74 -20 -103h20c12 39 18 74 18 103c0 33 -6 67 -18 100zM384 176h-19c11 -28 17 -61 17 -100c0 -33 -6 -68 -17 -103h19c11 39 16 74 16 103c0 31 -5 64 -16 100zM422 176h-19c10 -30 15 -63 15 -100c0 -25 -5 -59 -15 -103
h18c10 37 15 72 15 103c0 37 -5 71 -14 100zM459 176h-19c9 -26 13 -59 13 -100s-4 -75 -13 -103h18c9 27 13 62 13 103c0 38 -4 71 -12 100zM308 176h-20c15 -34 22 -67 22 -100c0 -35 -8 -70 -24 -103h21c14 31 21 66 21 103c0 33 -7 67 -20 100z" />
    <glyph glyph-name="ellipsis" unicode="&#x2026;" horiz-adv-x="678" 
d="M567 175h-18v-175h18v175zM603 175h-18v-175h18v175zM639 175h-18v-175h18v175zM675 175h-18v-175h18v175zM531 175h-18v-175h18v175zM115 175h-18v-175h18v175zM151 175h-18v-175h18v175zM187 175h-18v-175h18v175zM223 175h-18v-175h18v175zM79 175h-18v-175h18v175z
M341 175h-18v-175h18v175zM377 175h-18v-175h18v175zM413 175h-18v-175h18v175zM449 175h-18v-175h18v175zM305 175h-18v-175h18v175z" />
    <glyph glyph-name="circumflex" unicode="&#x2c6;" horiz-adv-x="458" 
d="M217 974h-26l-139 -140h25zM267 974h-25l-138 -140h25zM280 936l101 -102h25l-113 114l12 13l127 -127h26l-140 140h-25l-139 -140h26l75 76l75 -76h25l-88 89z" />
    <glyph glyph-name="perthousand" unicode="&#x2030;" horiz-adv-x="1587" 
d="M285 791c-66 0 -123 -24 -170 -71s-70 -103 -70 -169s23 -123 70 -170s104 -70 170 -70c67 0 123 23 170 70s70 104 70 170s-23 122 -70 169s-103 71 -170 71zM63 551c0 61 22 114 65 157c44 43 96 65 157 65s114 -22 157 -65s65 -96 65 -157s-22 -114 -65 -157
s-96 -65 -157 -65s-114 22 -157 65s-65 96 -65 157zM285 347c57 0 105 20 144 59c40 40 60 88 60 145s-20 105 -60 144c-39 40 -87 60 -144 60s-105 -20 -145 -60c-39 -39 -59 -87 -59 -144s20 -105 59 -145c40 -39 88 -59 145 -59zM99 551c0 51 18 95 55 131
c37 37 80 55 131 55s95 -18 131 -55c37 -36 55 -80 55 -131s-18 -95 -55 -132c-36 -36 -80 -54 -131 -54s-95 18 -132 54c-36 37 -54 81 -54 132zM285 383c47 0 86 16 119 49s49 72 49 119s-16 86 -49 119s-72 49 -119 49s-86 -16 -119 -49s-49 -72 -49 -119s16 -86 49 -119
s72 -49 119 -49zM135 551c0 41 15 77 44 106c30 29 65 44 106 44s77 -15 106 -44c30 -29 45 -65 45 -106s-15 -77 -45 -106c-29 -29 -65 -44 -106 -44s-77 15 -106 44s-44 65 -44 106zM285 419c37 0 68 13 94 38c26 26 39 57 39 94s-13 68 -39 93c-26 26 -57 39 -94 39
s-68 -13 -94 -39c-25 -25 -38 -56 -38 -93s13 -68 38 -94c26 -25 57 -38 94 -38zM171 551c0 31 11 58 33 80c23 23 50 34 81 34c32 0 59 -11 81 -34c23 -22 34 -49 34 -80c0 -64 -51 -114 -115 -114c-31 0 -58 11 -81 33c-22 22 -33 49 -33 81zM847 471
c-66 0 -123 -23 -170 -70s-70 -103 -70 -169c0 -67 23 -123 70 -170s104 -70 170 -70s122 23 169 70s71 103 71 170c0 66 -24 122 -71 169s-103 70 -169 70zM625 232c0 61 22 113 65 156s96 65 157 65s114 -22 157 -65s65 -95 65 -156s-22 -114 -65 -157s-96 -65 -157 -65
s-114 22 -157 65s-65 96 -65 157zM847 27c57 0 105 20 144 60c40 40 60 88 60 145s-20 105 -60 144c-39 40 -87 60 -144 60s-105 -20 -145 -60c-39 -39 -59 -87 -59 -144s20 -105 59 -145c40 -40 88 -60 145 -60zM661 232c0 51 18 95 54 131c37 37 81 55 132 55
s95 -18 131 -55c37 -36 55 -80 55 -131s-18 -95 -55 -132c-36 -37 -80 -55 -131 -55s-95 18 -132 55c-36 37 -54 81 -54 132zM847 63c47 0 86 16 119 49s49 73 49 120s-16 86 -49 119s-72 49 -119 49s-86 -16 -119 -49s-49 -72 -49 -119s16 -87 49 -120s72 -49 119 -49z
M697 232c0 41 15 77 44 106s65 44 106 44s77 -15 106 -44s44 -65 44 -106s-15 -77 -44 -107c-29 -29 -65 -44 -106 -44s-77 15 -106 44c-29 30 -44 66 -44 107zM847 99c37 0 68 13 93 39c26 26 39 57 39 94c0 36 -13 67 -39 93c-25 26 -56 39 -93 39s-68 -13 -94 -39
c-25 -26 -38 -57 -38 -93c0 -37 13 -68 38 -94c26 -26 57 -39 94 -39zM733 232c0 31 11 58 33 80c22 23 49 34 81 34c31 0 58 -11 80 -34c23 -22 34 -49 34 -80c0 -32 -11 -59 -34 -82c-22 -22 -49 -33 -80 -33c-64 0 -114 51 -114 115zM683 784h-19l-307 -842h19zM759 784
h-19l-307 -842h19zM721 784h-19l-307 -842h19zM1361 470c-66 0 -123 -23 -170 -70s-70 -103 -70 -169c0 -67 23 -123 70 -170s104 -70 170 -70s122 23 169 70s71 103 71 170c0 66 -24 122 -71 169s-103 70 -169 70zM1139 231c0 61 22 113 65 156s96 65 157 65
s114 -22 157 -65s65 -95 65 -156s-22 -114 -65 -157s-96 -65 -157 -65s-114 22 -157 65s-65 96 -65 157zM1361 26c57 0 105 20 144 60c40 40 60 88 60 145s-20 105 -60 144c-39 40 -87 60 -144 60s-105 -20 -145 -60c-39 -39 -59 -87 -59 -144s20 -105 59 -145
c40 -40 88 -60 145 -60zM1175 231c0 51 18 95 54 131c37 37 81 55 132 55s95 -18 131 -55c37 -36 55 -80 55 -131s-18 -95 -55 -132c-36 -37 -80 -55 -131 -55s-95 18 -132 55c-36 37 -54 81 -54 132zM1361 62c47 0 86 16 119 49s49 73 49 120s-16 86 -49 119
s-72 49 -119 49s-86 -16 -119 -49s-49 -72 -49 -119s16 -87 49 -120s72 -49 119 -49zM1211 231c0 41 15 77 44 106s65 44 106 44s77 -15 106 -44s44 -65 44 -106s-15 -77 -44 -107c-29 -29 -65 -44 -106 -44s-77 15 -106 44c-29 30 -44 66 -44 107zM1361 98
c37 0 68 13 93 39c26 26 39 57 39 94c0 36 -13 67 -39 93c-25 26 -56 39 -93 39s-68 -13 -94 -39c-25 -26 -38 -57 -38 -93c0 -37 13 -68 38 -94c26 -26 57 -39 94 -39zM1247 231c0 31 11 58 33 80c22 23 49 34 81 34c31 0 58 -11 80 -34c23 -22 34 -49 34 -80
c0 -32 -11 -59 -34 -82c-22 -22 -49 -33 -80 -33c-64 0 -114 51 -114 115z" />
    <glyph glyph-name="Scaron" unicode="&#x160;" horiz-adv-x="489" 
d="M481 636l15 10c-36 85 -120 145 -216 145c-65 0 -120 -23 -165 -69c-45 -45 -68 -100 -68 -165c0 -61 21 -113 62 -158c41 -44 92 -68 151 -73c45 -4 82 -42 82 -87c0 -47 -38 -86 -85 -86c-38 0 -64 17 -78 51l-15 -9c19 -40 50 -60 93 -60c57 0 103 47 103 104
c0 56 -41 100 -100 105c-55 5 -102 28 -140 68c-37 41 -56 89 -56 145c0 59 21 110 64 152c43 43 93 64 152 64c89 0 168 -56 201 -137zM418 600l14 9c-23 64 -83 110 -152 110c-45 0 -83 -16 -114 -48c-31 -31 -47 -69 -47 -114c0 -42 14 -78 43 -109s63 -48 104 -51
s75 -20 104 -51c29 -30 44 -66 44 -107c0 -43 -15 -81 -46 -112s-68 -46 -111 -46c-62 0 -108 27 -138 82l-15 -10c29 -55 88 -90 153 -90c48 0 89 17 123 52c35 35 52 76 52 124c0 47 -16 86 -47 119s-70 52 -118 56c-37 3 -68 19 -93 46s-38 60 -38 97c0 39 14 73 42 101
c29 29 63 43 102 43c64 0 119 -41 138 -101zM351 561l18 11c-7 41 -45 75 -89 75c-49 0 -90 -39 -90 -90c0 -48 35 -85 84 -89c59 -5 109 -29 150 -72s62 -95 62 -157c0 -63 -22 -117 -67 -162s-99 -67 -162 -67c-87 0 -153 37 -197 112l-16 -10c45 -73 125 -120 213 -120
c68 0 126 24 174 72c49 49 73 107 73 175c0 66 -23 123 -69 171c-44 45 -97 70 -159 75c-37 3 -67 33 -67 72s32 72 71 72c37 0 68 -31 71 -68zM385 581l16 9c-15 55 -64 93 -121 93c-35 0 -64 -12 -89 -37c-24 -25 -36 -54 -36 -89c0 -32 11 -60 33 -84
c23 -24 50 -38 82 -41c52 -5 95 -25 129 -62c34 -36 51 -80 51 -131c0 -53 -19 -99 -57 -137c-37 -38 -83 -57 -136 -57c-71 0 -135 39 -168 98l-15 -11c44 -70 105 -105 183 -105c58 0 108 21 149 62c41 42 62 92 62 150c0 57 -19 105 -58 144c-38 40 -84 62 -138 67
c-57 5 -100 51 -100 107c0 29 11 55 32 76s47 32 76 32c51 0 96 -36 105 -84zM449 617l15 10c-28 76 -100 128 -184 128c-55 0 -101 -19 -139 -58s-57 -85 -57 -140c0 -51 17 -96 51 -133c35 -37 77 -58 127 -62c33 -3 60 -16 82 -40c23 -23 34 -51 34 -83
c0 -33 -12 -62 -36 -86c-23 -24 -52 -36 -85 -36c-49 0 -85 22 -108 67l-15 -11c25 -49 66 -74 123 -74c39 0 71 14 98 41s41 60 41 99c0 37 -13 69 -39 95c-25 27 -57 42 -94 45c-45 4 -84 23 -116 57c-31 34 -47 74 -47 121c0 49 18 92 53 127s78 53 127 53
c76 0 145 -49 169 -120zM331 834h26l139 140h-25zM281 834h25l138 140h-25zM268 872l-101 102h-25l113 -114l-13 -13l-126 127h-26l140 -140h25l139 140h-26l-75 -76l-75 76h-25l88 -89z" />
    <glyph glyph-name="OE" unicode="&#x152;" horiz-adv-x="1279" 
d="M64 391c0 105 37 195 112 270s165 112 270 112s195 -37 270 -112s112 -165 112 -270s-37 -194 -112 -269s-165 -112 -270 -112s-195 37 -270 112s-112 164 -112 269zM847 792h-18v-285c-25 83 -73 151 -142 204c-71 53 -152 80 -241 80c-111 0 -205 -39 -283 -117
c-77 -78 -116 -172 -116 -283s39 -205 116 -283c78 -77 172 -116 283 -116c89 0 170 27 241 80c69 53 117 120 142 203v-265h18v782zM446 27c101 0 186 35 257 106s107 157 107 258s-36 186 -107 257s-156 107 -257 107s-187 -36 -258 -107s-106 -156 -106 -257
s35 -187 106 -258s157 -106 258 -106zM100 391c0 95 34 177 101 244c68 68 150 102 245 102s177 -34 244 -102c68 -67 102 -149 102 -244s-34 -177 -102 -245c-67 -67 -149 -101 -244 -101s-177 34 -245 101c-67 68 -101 150 -101 245zM446 63c91 0 168 32 232 96
s96 141 96 232s-32 168 -96 232s-141 96 -232 96s-168 -32 -232 -96s-96 -141 -96 -232s32 -168 96 -232s141 -96 232 -96zM136 391c0 85 30 158 91 219s134 91 219 91s158 -30 219 -91s91 -134 91 -219s-30 -158 -91 -219s-134 -91 -219 -91s-158 30 -219 91
s-91 134 -91 219zM446 99c81 0 149 28 206 85s86 126 86 207s-29 149 -86 206s-125 86 -206 86s-150 -29 -207 -86s-85 -125 -85 -206s28 -150 85 -207s126 -85 207 -85zM172 391c0 75 27 140 80 193c54 54 119 81 194 81s140 -27 193 -81c54 -53 81 -118 81 -193
s-27 -140 -81 -194c-53 -53 -118 -80 -193 -80s-140 27 -194 80c-53 54 -80 119 -80 194zM446 135c71 0 132 25 181 75c50 50 75 110 75 181s-25 132 -75 181c-49 50 -110 75 -181 75s-131 -25 -181 -75c-50 -49 -75 -110 -75 -181s25 -131 75 -181s110 -75 181 -75z
M208 391c0 65 23 121 70 168s103 70 168 70s121 -23 168 -70s70 -103 70 -168s-23 -121 -70 -168s-103 -70 -168 -70s-121 23 -168 70s-70 103 -70 168zM955 792h-18v-782h18v782zM919 792h-18v-782h18v782zM883 792h-18v-782h18v782zM991 357h217v18h-217v18h217v18h-217
v18h217v18h-217v18h217v18h-217v148h292v17h-292v18h292v18h-292v18h292v18h-292v18h292v18h-292v18h292v18h-310v-782h310v18h-292v18h292v18h-292v18h292v18h-292v18h292v18h-292v18h292v18h-292v149h217v18h-217v18z" />
    <glyph glyph-name="quoteleft" unicode="&#x2018;" horiz-adv-x="237" 
d="M204 782h-19c-12 -30 -18 -63 -18 -100c0 -33 6 -67 18 -103h20c-13 29 -20 64 -20 103c0 34 6 67 19 100zM166 782h-19c-11 -32 -16 -65 -16 -100c0 -29 5 -64 16 -103h19c-11 35 -17 70 -17 103c0 39 6 72 17 100zM128 782h-19c-9 -29 -14 -63 -14 -100
c0 -31 5 -66 15 -103h18c-10 44 -15 78 -15 103c0 37 5 70 15 100zM91 782h-19c-9 -31 -13 -65 -13 -100c0 -39 5 -74 14 -103h18c-9 30 -14 64 -14 103s5 72 14 100zM243 782h-20c-13 -30 -20 -63 -20 -100s7 -72 21 -103h20c-15 32 -23 66 -23 103c0 35 7 69 22 100z" />
    <glyph glyph-name="quoteright" unicode="&#x2019;" horiz-adv-x="237" 
d="M119 782h-19c13 -29 19 -63 19 -100c0 -42 -7 -76 -20 -103h20c12 36 18 70 18 103c0 37 -6 70 -18 100zM158 782h-20c11 -25 17 -59 17 -100c0 -37 -6 -72 -17 -103h20c10 37 15 72 15 103c0 33 -5 66 -15 100zM196 782h-19c9 -28 14 -61 14 -100c0 -27 -5 -62 -14 -103
h18c9 35 14 69 14 103c0 39 -4 73 -13 100zM233 782h-19c9 -26 13 -59 13 -100s-4 -75 -13 -103h18c9 27 13 62 13 103c0 38 -4 71 -12 100zM81 782h-20c15 -33 23 -67 23 -100c0 -35 -8 -70 -24 -103h20c14 28 21 62 21 103c0 37 -7 70 -20 100z" />
    <glyph glyph-name="quotedblleft" unicode="&#x201c;" horiz-adv-x="476" 
d="M208 782h-19c-12 -33 -18 -67 -18 -100c0 -29 6 -64 18 -103h20c-13 29 -20 64 -20 103c0 34 6 67 19 100zM170 782h-19c-11 -36 -16 -69 -16 -100c0 -29 5 -64 16 -103h19c-11 35 -17 70 -17 103c0 39 6 72 17 100zM132 782h-19c-9 -29 -14 -63 -14 -100
c0 -31 5 -66 15 -103h18c-10 44 -15 78 -15 103c0 37 5 70 15 100zM95 782h-19c-9 -31 -13 -65 -13 -100c0 -39 5 -74 14 -103h18c-9 30 -14 64 -14 103s5 72 14 100zM247 782h-20c-13 -33 -20 -67 -20 -100c0 -37 7 -72 21 -103h20c-15 34 -23 68 -23 103c0 33 7 66 22 100
zM430 782h-19c-12 -33 -18 -67 -18 -100c0 -29 6 -64 18 -103h20c-13 29 -20 64 -20 103c0 34 6 67 19 100zM392 782h-19c-11 -36 -16 -69 -16 -100c0 -29 5 -64 16 -103h19c-11 35 -17 70 -17 103c0 39 6 72 17 100zM354 782h-19c-9 -29 -14 -63 -14 -100
c0 -31 5 -66 15 -103h18c-10 44 -15 78 -15 103c0 37 5 70 15 100zM317 782h-19c-9 -31 -13 -65 -13 -100c0 -39 5 -74 14 -103h18c-9 30 -14 64 -14 103s5 72 14 100zM469 782h-20c-13 -33 -20 -67 -20 -100c0 -37 7 -72 21 -103h20c-15 34 -23 68 -23 103
c0 33 7 66 22 100z" />
    <glyph glyph-name="quotedblright" unicode="&#x201d;" horiz-adv-x="476" 
d="M124 782h-19c13 -33 19 -66 19 -100c0 -39 -7 -74 -20 -103h20c12 39 18 74 18 103c0 33 -6 67 -18 100zM162 782h-19c11 -28 17 -61 17 -100c0 -33 -6 -68 -17 -103h19c11 39 16 74 16 103c0 31 -5 64 -16 100zM200 782h-19c10 -30 15 -63 15 -100
c0 -25 -5 -59 -15 -103h18c10 37 15 72 15 103c0 37 -5 71 -14 100zM237 782h-19c9 -28 14 -61 14 -100s-5 -73 -14 -103h18c9 27 13 62 13 103c0 38 -4 71 -12 100zM86 782h-20c15 -34 22 -67 22 -100c0 -35 -8 -70 -24 -103h21c14 31 21 66 21 103c0 33 -7 67 -20 100z
M346 782h-19c13 -33 19 -66 19 -100c0 -39 -7 -74 -20 -103h20c12 39 18 74 18 103c0 33 -6 67 -18 100zM384 782h-19c11 -28 17 -61 17 -100c0 -33 -6 -68 -17 -103h19c11 39 16 74 16 103c0 31 -5 64 -16 100zM422 782h-19c10 -30 15 -63 15 -100c0 -25 -5 -59 -15 -103
h18c10 37 15 72 15 103c0 37 -5 71 -14 100zM459 782h-19c9 -26 13 -59 13 -100s-4 -75 -13 -103h18c9 27 13 62 13 103c0 38 -4 71 -12 100zM308 782h-20c15 -34 22 -67 22 -100c0 -35 -8 -70 -24 -103h21c14 31 21 66 21 103c0 33 -7 67 -20 100z" />
    <glyph glyph-name="bullet" unicode="&#x2022;" horiz-adv-x="223" 
d="M117 415h-18v-175h18v175zM153 415h-18v-175h18v175zM189 415h-18v-175h18v175zM225 415h-18v-175h18v175zM81 415h-18v-175h18v175z" />
    <glyph glyph-name="endash" unicode="&#x2013;" horiz-adv-x="701" 
d="M63 301v-18h636v18h-636zM63 337v-18h636v18h-636zM63 373v-18h636v18h-636zM63 409v-18h636v18h-636zM63 265v-18h636v18h-636z" />
    <glyph glyph-name="emdash" unicode="&#x2014;" horiz-adv-x="1152" 
d="M63 301v-18h1087v18h-1087zM63 337v-18h1087v18h-1087zM63 373v-18h1087v18h-1087zM63 409v-18h1087v18h-1087zM63 265v-18h1087v18h-1087z" />
    <glyph glyph-name="tilde" unicode="&#x2dc;" horiz-adv-x="467" 
d="M160 940c34 0 68 -6 102 -18c34 -11 68 -17 101 -17c35 0 69 5 102 16v19c-30 -11 -64 -17 -102 -17c-33 0 -67 6 -101 17c-33 12 -67 18 -102 18c-30 0 -64 -5 -101 -16v-19c29 11 62 17 101 17zM160 904c35 0 69 -6 102 -18c34 -11 68 -17 101 -17c37 0 71 5 102 15v18
c-39 -10 -73 -15 -102 -15c-33 0 -67 6 -101 17c-34 12 -68 18 -102 18c-33 0 -66 -6 -101 -18v-19c33 13 66 19 101 19zM363 851c-33 0 -67 6 -101 17c-33 12 -67 18 -102 18c-33 0 -66 -7 -101 -20v-20c35 15 69 22 101 22c34 0 68 -6 102 -18c34 -11 68 -17 101 -17
c43 0 77 5 102 14v18c-25 -9 -59 -14 -102 -14z" />
    <glyph glyph-name="scaron" unicode="&#x161;" horiz-adv-x="489" 
d="M481 636l15 10c-36 85 -120 145 -216 145c-65 0 -120 -23 -165 -69c-45 -45 -68 -100 -68 -165c0 -61 21 -113 62 -158c41 -44 92 -68 151 -73c45 -4 82 -42 82 -87c0 -47 -38 -86 -85 -86c-38 0 -64 17 -78 51l-15 -9c19 -40 50 -60 93 -60c57 0 103 47 103 104
c0 56 -41 100 -100 105c-55 5 -102 28 -140 68c-37 41 -56 89 -56 145c0 59 21 110 64 152c43 43 93 64 152 64c89 0 168 -56 201 -137zM418 600l14 9c-23 64 -83 110 -152 110c-45 0 -83 -16 -114 -48c-31 -31 -47 -69 -47 -114c0 -42 14 -78 43 -109s63 -48 104 -51
s75 -20 104 -51c29 -30 44 -66 44 -107c0 -43 -15 -81 -46 -112s-68 -46 -111 -46c-62 0 -108 27 -138 82l-15 -10c29 -55 88 -90 153 -90c48 0 89 17 123 52c35 35 52 76 52 124c0 47 -16 86 -47 119s-70 52 -118 56c-37 3 -68 19 -93 46s-38 60 -38 97c0 39 14 73 42 101
c29 29 63 43 102 43c64 0 119 -41 138 -101zM351 561l18 11c-7 41 -45 75 -89 75c-49 0 -90 -39 -90 -90c0 -48 35 -85 84 -89c59 -5 109 -29 150 -72s62 -95 62 -157c0 -63 -22 -117 -67 -162s-99 -67 -162 -67c-87 0 -153 37 -197 112l-16 -10c45 -73 125 -120 213 -120
c68 0 126 24 174 72c49 49 73 107 73 175c0 66 -23 123 -69 171c-44 45 -97 70 -159 75c-37 3 -67 33 -67 72s32 72 71 72c37 0 68 -31 71 -68zM385 581l16 9c-15 55 -64 93 -121 93c-35 0 -64 -12 -89 -37c-24 -25 -36 -54 -36 -89c0 -32 11 -60 33 -84
c23 -24 50 -38 82 -41c52 -5 95 -25 129 -62c34 -36 51 -80 51 -131c0 -53 -19 -99 -57 -137c-37 -38 -83 -57 -136 -57c-71 0 -135 39 -168 98l-15 -11c44 -70 105 -105 183 -105c58 0 108 21 149 62c41 42 62 92 62 150c0 57 -19 105 -58 144c-38 40 -84 62 -138 67
c-57 5 -100 51 -100 107c0 29 11 55 32 76s47 32 76 32c51 0 96 -36 105 -84zM449 617l15 10c-28 76 -100 128 -184 128c-55 0 -101 -19 -139 -58s-57 -85 -57 -140c0 -51 17 -96 51 -133c35 -37 77 -58 127 -62c33 -3 60 -16 82 -40c23 -23 34 -51 34 -83
c0 -33 -12 -62 -36 -86c-23 -24 -52 -36 -85 -36c-49 0 -85 22 -108 67l-15 -11c25 -49 66 -74 123 -74c39 0 71 14 98 41s41 60 41 99c0 37 -13 69 -39 95c-25 27 -57 42 -94 45c-45 4 -84 23 -116 57c-31 34 -47 74 -47 121c0 49 18 92 53 127s78 53 127 53
c76 0 145 -49 169 -120zM331 834h26l139 140h-25zM281 834h25l138 140h-25zM268 872l-101 102h-25l113 -114l-13 -13l-126 127h-26l140 -140h25l139 140h-26l-75 -76l-75 76h-25l88 -89z" />
    <glyph glyph-name="guilsinglright" unicode="&#x203a;" horiz-adv-x="1000" 
 />
    <glyph glyph-name="oe" unicode="&#x153;" horiz-adv-x="1279" 
d="M64 391c0 105 37 195 112 270s165 112 270 112s195 -37 270 -112s112 -165 112 -270s-37 -194 -112 -269s-165 -112 -270 -112s-195 37 -270 112s-112 164 -112 269zM847 792h-18v-285c-25 83 -73 151 -142 204c-71 53 -152 80 -241 80c-111 0 -205 -39 -283 -117
c-77 -78 -116 -172 -116 -283s39 -205 116 -283c78 -77 172 -116 283 -116c89 0 170 27 241 80c69 53 117 120 142 203v-265h18v782zM446 27c101 0 186 35 257 106s107 157 107 258s-36 186 -107 257s-156 107 -257 107s-187 -36 -258 -107s-106 -156 -106 -257
s35 -187 106 -258s157 -106 258 -106zM100 391c0 95 34 177 101 244c68 68 150 102 245 102s177 -34 244 -102c68 -67 102 -149 102 -244s-34 -177 -102 -245c-67 -67 -149 -101 -244 -101s-177 34 -245 101c-67 68 -101 150 -101 245zM446 63c91 0 168 32 232 96
s96 141 96 232s-32 168 -96 232s-141 96 -232 96s-168 -32 -232 -96s-96 -141 -96 -232s32 -168 96 -232s141 -96 232 -96zM136 391c0 85 30 158 91 219s134 91 219 91s158 -30 219 -91s91 -134 91 -219s-30 -158 -91 -219s-134 -91 -219 -91s-158 30 -219 91
s-91 134 -91 219zM446 99c81 0 149 28 206 85s86 126 86 207s-29 149 -86 206s-125 86 -206 86s-150 -29 -207 -86s-85 -125 -85 -206s28 -150 85 -207s126 -85 207 -85zM172 391c0 75 27 140 80 193c54 54 119 81 194 81s140 -27 193 -81c54 -53 81 -118 81 -193
s-27 -140 -81 -194c-53 -53 -118 -80 -193 -80s-140 27 -194 80c-53 54 -80 119 -80 194zM446 135c71 0 132 25 181 75c50 50 75 110 75 181s-25 132 -75 181c-49 50 -110 75 -181 75s-131 -25 -181 -75c-50 -49 -75 -110 -75 -181s25 -131 75 -181s110 -75 181 -75z
M208 391c0 65 23 121 70 168s103 70 168 70s121 -23 168 -70s70 -103 70 -168s-23 -121 -70 -168s-103 -70 -168 -70s-121 23 -168 70s-70 103 -70 168zM955 792h-18v-782h18v782zM919 792h-18v-782h18v782zM883 792h-18v-782h18v782zM991 357h217v18h-217v18h217v18h-217
v18h217v18h-217v18h217v18h-217v148h292v17h-292v18h292v18h-292v18h292v18h-292v18h292v18h-292v18h292v18h-310v-782h310v18h-292v18h292v18h-292v18h292v18h-292v18h292v18h-292v18h292v18h-292v149h217v18h-217v18z" />
    <glyph glyph-name="Ydieresis" unicode="&#x178;" horiz-adv-x="690" 
d="M438 281v-281h18v281l249 501h-19l-239 -482l-9 18l228 464h-19l-218 -445l-9 18l208 427h-19l-198 -408l-9 19l189 389h-19l-179 -370l-9 18l169 352h-19l-159 -332l-159 332h-19zM420 0v281l-242 501h-19l243 -501v-281h18zM384 0v281l-243 501h-19l244 -501v-281h18z
M348 0v281l-245 501h-19l246 -501v-281h18zM312 0v281l-249 501h-19l250 -501v-281h18zM260 967h-18v-133h18v133zM296 967h-18v-133h18v133zM332 967h-18v-133h18v133zM224 967h-18v-133h18v133zM465 967h-18v-133h18v133zM501 967h-18v-133h18v133zM537 967h-18v-133h18
v133zM429 967h-18v-133h18v133z" />
    <glyph glyph-name="exclamdown" unicode="&#xa1;" horiz-adv-x="225" 
d="M171 607h18v175h-18v-175zM135 607h18v175h-18v-175zM99 607h18v175h-18v-175zM63 607h18v175h-18v-175zM207 607h18v175h-18v-175zM171 0h18v558h-18v-558zM135 0h18v558h-18v-558zM99 0h18v558h-18v-558zM63 0h18v558h-18v-558zM207 0h18v558h-18v-558z" />
    <glyph glyph-name="cent" unicode="&#xa2;" horiz-adv-x="401" 
d="M315 701v18c29 0 60 -9 91 -26l7 16c-30 19 -63 28 -98 28v40h-18v-579h18v31c39 4 75 15 106 32l-8 17c-28 -17 -61 -27 -98 -31v19c31 2 62 12 91 29l-7 16c-26 -16 -54 -25 -84 -27v18c29 3 54 12 77 26l-7 17c-19 -13 -43 -22 -70 -25v18c23 3 43 11 62 24l-7 15
c-21 -11 -39 -18 -55 -21v18c17 3 33 9 48 20l-8 17c-14 -10 -27 -16 -40 -19v182c11 -1 22 -6 34 -14l6 17c-9 7 -23 12 -40 16v18c16 -2 32 -8 48 -17l7 16c-21 12 -39 18 -55 19v18c11 0 32 -6 62 -19l8 16c-28 14 -51 21 -70 21v18c25 -1 50 -9 76 -22l9 16
c-35 16 -63 24 -85 24zM225 541v-116c-14 17 -21 37 -21 58s7 41 21 58zM225 399v-22c-38 25 -57 60 -57 106c0 45 19 81 57 107v-22c-26 -21 -39 -50 -39 -85c0 -33 13 -61 39 -84zM225 356v-21c-53 24 -93 84 -93 148c0 65 37 121 93 148v-20c-50 -29 -75 -71 -75 -128
c0 -55 25 -98 75 -127zM225 316v-20c-76 29 -129 103 -129 187s53 159 129 188v-20c-67 -28 -111 -95 -111 -168s47 -140 111 -167zM225 277v-18c-48 15 -88 43 -119 84s-46 88 -46 140s16 99 47 141c32 43 71 71 118 84v-19c-41 -13 -76 -39 -104 -78s-42 -81 -42 -128
c0 -93 59 -174 146 -206zM243 198v579h-18v-50c-53 -15 -96 -45 -131 -91c-34 -45 -51 -96 -51 -153s17 -108 51 -153s78 -75 131 -90v-42h18zM279 777h-18v-579h18v579z" />
    <glyph glyph-name="sterling" unicode="&#xa3;" horiz-adv-x="581" 
d="M578 718l10 15c-12 12 -30 24 -53 35c-34 15 -69 23 -105 23c-57 0 -109 -18 -154 -54s-74 -82 -87 -137l-44 -189h-77v-18h426v18h-182l35 151c9 39 43 67 83 67c21 0 42 -9 63 -28l10 15c-19 21 -43 31 -73 31c-47 0 -90 -34 -101 -79l-36 -157h-18l37 161
c12 55 61 93 118 93c33 0 61 -11 84 -34l11 15c-27 25 -58 37 -95 37c-31 0 -60 -10 -87 -31c-26 -21 -42 -46 -49 -75l-38 -166h-18l39 168c16 71 78 122 153 122c38 0 73 -13 106 -40l9 13c-30 30 -68 45 -115 45c-41 0 -77 -13 -110 -39c-32 -25 -52 -57 -61 -96
l-40 -173h-18l41 177c10 43 33 78 68 106c35 29 75 43 120 43c48 0 90 -16 126 -48l11 15c-36 34 -82 51 -137 51c-49 0 -93 -16 -132 -47s-63 -69 -74 -116l-42 -181h-18l43 184c12 51 39 94 80 127c42 34 90 51 143 51c58 0 107 -18 148 -55zM68 375v-18h426v18h-426z
M254 162l37 159h203v18h-426v-18h57l-41 -177h486v18h-316zM106 162l38 159h17l-36 -159h-19zM143 162l37 159h18l-37 -159h-18zM180 162l37 159h18l-37 -159h-18zM217 162l37 159h18l-37 -159h-18zM62 54l-3 -18h511v18h-508zM71 90l-4 -18h503v18h-499zM79 126l-4 -18h495
v18h-491zM55 18l-5 -18h520v18h-515z" />
    <glyph glyph-name="dieresis" unicode="&#xa8;" horiz-adv-x="396" 
d="M117 967h-18v-133h18v133zM153 967h-18v-133h18v133zM189 967h-18v-133h18v133zM81 967h-18v-133h18v133zM322 967h-18v-133h18v133zM358 967h-18v-133h18v133zM394 967h-18v-133h18v133zM286 967h-18v-133h18v133z" />
    <glyph glyph-name="ordfeminine" unicode="&#xaa;" horiz-adv-x="1000" 
 />
    <glyph glyph-name="twosuperior" unicode="&#xb2;" horiz-adv-x="292" 
d="M49 415l-8 -8h245v8h-237zM61 432l-7 -8h232v8h-225zM73 450l-6 -8h219v8h-213zM86 467l-7 -8h207v8h-200zM210 637l-118 -161h194v8h-91l81 113c13 19 20 41 20 67c0 34 -12 63 -36 86c-23 24 -52 36 -86 36c-33 0 -62 -12 -86 -36c-23 -23 -35 -52 -35 -86
c0 -43 17 -76 52 -100l5 8c-33 21 -49 51 -49 92c0 31 11 58 33 80c23 23 49 34 80 34s58 -11 81 -34c23 -22 34 -49 34 -80c0 -23 -7 -45 -21 -64l-84 -116h-11l88 122c12 17 18 36 18 58c0 59 -46 106 -105 106c-29 0 -53 -10 -74 -31c-20 -21 -30 -46 -30 -75
c0 -35 15 -64 45 -86l4 7c-27 20 -41 46 -41 79c0 53 44 97 96 97c55 0 97 -42 97 -97c0 -21 -5 -39 -16 -54l-93 -126h-10l94 130c11 15 16 31 16 50c0 48 -39 88 -88 88c-47 0 -87 -40 -87 -88c0 -29 13 -53 38 -72l5 6c-23 17 -35 39 -35 66c0 44 36 79 79 79
c44 0 80 -35 80 -79c0 -17 -5 -32 -14 -45l-98 -135h-12l103 140c8 11 12 24 12 40c0 39 -31 71 -71 71c-39 0 -70 -32 -70 -71c0 -26 10 -45 31 -58l6 7c-19 12 -28 29 -28 51c0 35 28 62 61 62c35 0 63 -27 63 -62c0 -13 -4 -24 -12 -35l-106 -145h-10l109 149
c7 9 10 20 10 31c0 29 -25 54 -54 54s-52 -25 -52 -54c0 -20 8 -34 24 -43l5 6c-14 9 -21 21 -21 37c0 24 20 45 44 45c25 0 45 -21 45 -45c0 -10 -3 -19 -9 -27z" />
    <glyph glyph-name="threesuperior" unicode="&#xb3;" horiz-adv-x="288" 
d="M134 611h21c29 0 53 24 53 53s-24 54 -53 54c-24 0 -41 -12 -50 -35l7 -8c6 23 20 34 43 34c25 0 45 -21 45 -45s-20 -43 -45 -43h-21v-10zM134 603v-9h21c36 0 66 -30 66 -65c0 -36 -30 -66 -66 -66c-31 0 -51 14 -61 43l-7 -6c11 -30 34 -45 68 -45c43 0 74 33 74 74
c0 35 -16 58 -49 69c30 13 45 35 45 66c0 39 -31 71 -70 71c-29 0 -50 -13 -63 -39l6 -7c13 25 32 37 57 37c35 0 62 -27 62 -62c0 -33 -27 -61 -62 -61h-21zM108 520l-8 -7c8 -28 26 -42 55 -42c31 0 56 26 56 58c0 31 -25 57 -56 57h-21v-9h21c27 0 48 -21 48 -48
s-21 -48 -48 -48c-23 0 -44 18 -47 39zM248 600c17 -25 25 -48 25 -71c0 -33 -12 -61 -35 -84s-50 -34 -83 -34c-45 0 -79 19 -101 58l-6 -6c24 -40 60 -60 107 -60c35 0 64 12 89 37s37 54 37 89c0 28 -7 51 -22 70c12 21 18 43 18 65c0 34 -12 63 -36 86
c-23 24 -52 36 -86 36c-45 0 -79 -18 -102 -54l6 -7c23 35 55 53 96 53c31 0 58 -11 80 -34c22 -22 33 -49 33 -80c0 -23 -7 -45 -20 -64zM226 599c19 -19 29 -43 29 -70c0 -55 -45 -100 -100 -100c-40 0 -69 18 -88 53l-7 -7c21 -37 53 -55 95 -55c60 0 108 49 108 109
c0 27 -9 51 -26 70c15 19 23 41 23 65c0 57 -48 106 -105 106c-39 0 -69 -17 -88 -51l5 -5c20 31 48 47 83 47c53 0 97 -44 97 -97c0 -25 -9 -46 -26 -65zM214 598c19 19 29 41 29 66c0 48 -40 88 -88 88c-33 0 -59 -15 -77 -45l7 -6c15 28 38 42 70 42c44 0 80 -35 80 -79
c0 -29 -12 -51 -36 -66c26 -14 39 -37 39 -69c0 -45 -36 -83 -83 -83c-35 0 -60 16 -75 48l-7 -7c19 -33 47 -49 82 -49c51 0 91 42 91 91c0 31 -11 54 -32 69z" />
    <glyph glyph-name="acute" unicode="&#xb4;" horiz-adv-x="326" 
d="M278 974h-25l-139 -140h26zM227 974h-25l-140 -140h26zM329 974h-26l-138 -140h25z" />
    <glyph glyph-name="onesuperior" unicode="&#xb9;" horiz-adv-x="249" 
d="M165 782h-10v-375h10v375zM182 782h-9v-375h9v375zM199 782h-9v-375h9v375zM216 782h-9v-375h9v375zM138 690v-283h9v375h-9l-101 -63l4 -8l97 62v-11l-93 -58l6 -7l87 55v-10l-83 -53l4 -7l79 50v-10l-75 -48l6 -6l69 43v-10l-65 -40l4 -8z" />
    <glyph glyph-name="ordmasculine" unicode="&#xba;" horiz-adv-x="323" 
d="M49 648v-107c0 -38 13 -71 40 -98s59 -40 98 -40c38 0 71 13 98 40s41 60 41 98v107c0 38 -14 70 -41 97s-60 41 -98 41c-39 0 -71 -14 -98 -41s-40 -59 -40 -97zM57 541v107c0 36 13 67 38 92s56 38 92 38s67 -13 92 -38s38 -56 38 -92v-107c0 -35 -13 -66 -38 -92
c-25 -25 -56 -38 -92 -38s-67 13 -92 38c-25 26 -38 57 -38 92zM82 648v-107c0 -57 48 -103 105 -103s104 46 104 103v107c0 57 -47 104 -104 104s-105 -47 -105 -104zM92 541v107c0 52 42 95 95 95c52 0 95 -42 95 -95v-107c0 -53 -43 -95 -95 -95c-53 0 -95 43 -95 95z
M117 648v-107c0 -39 31 -70 70 -70s70 31 70 70v107c0 39 -31 70 -70 70s-70 -31 -70 -70zM126 541v107c0 35 28 61 61 61s60 -26 60 -61v-107c0 -33 -27 -60 -60 -60s-61 27 -61 60zM100 648v-107c0 -47 40 -86 87 -86c48 0 87 39 87 86v107c0 48 -39 87 -87 87
c-47 0 -87 -39 -87 -87zM109 541v107c0 43 35 78 78 78s78 -35 78 -78v-107c0 -43 -35 -78 -78 -78s-78 35 -78 78zM74 541v107c0 31 11 58 33 80c23 22 49 33 80 33s57 -11 79 -33s33 -49 33 -80v-107c0 -31 -11 -57 -33 -79s-48 -33 -79 -33s-58 11 -80 33s-33 48 -33 79z
M66 648v-107c0 -33 12 -62 35 -86c23 -23 52 -35 86 -35c33 0 62 12 86 35c24 24 36 53 36 86v107c0 33 -12 62 -36 86s-53 36 -86 36c-68 0 -121 -54 -121 -122z" />
    <glyph glyph-name="questiondown" unicode="&#xbf;" horiz-adv-x="383" 
d="M339 616h18v175h-18v-175zM303 616h18v175h-18v-175zM267 616h18v175h-18v-175zM231 616h18v175h-18v-175zM375 616h18v175h-18v-175zM393 33c-37 -10 -70 -15 -100 -15c-59 0 -109 20 -150 61s-62 90 -62 148c0 41 11 80 34 115c21 33 48 57 82 74c35 17 52 47 52 89v66
h-18v-66c0 -34 -14 -58 -42 -73c-37 -19 -66 -45 -89 -80c-25 -38 -37 -80 -37 -125c0 -63 22 -116 67 -161c45 -44 100 -66 163 -66c31 0 65 5 100 15v18zM393 71c-36 -11 -69 -17 -100 -17c-49 0 -90 17 -125 50c-34 34 -51 75 -51 123c0 71 32 123 95 156
c49 25 73 66 73 122v66h-18v-66c0 -28 -9 -53 -28 -76c-13 -15 -25 -25 -35 -29c-17 -7 -37 -23 -59 -48c-31 -37 -46 -78 -46 -125c0 -53 19 -99 56 -136c38 -37 84 -55 138 -55c31 0 65 5 100 16v19zM393 108c-32 -12 -65 -18 -100 -18c-39 0 -72 13 -99 40s-41 59 -41 97
c0 29 9 57 27 82c15 20 31 34 48 41c18 8 36 23 54 45c26 32 39 69 39 110v66h-18v-66c0 -37 -11 -70 -34 -98c-15 -18 -32 -31 -50 -40c-51 -24 -84 -84 -84 -140c0 -43 15 -80 46 -110s68 -45 112 -45c31 0 64 6 100 17v19zM393 144c-28 -12 -61 -18 -100 -18
c-59 0 -104 44 -104 101c0 43 18 73 53 90c25 12 47 30 68 55c31 39 47 83 47 133v66h-18v-66c0 -45 -15 -85 -44 -121c-17 -21 -37 -38 -60 -51c-43 -24 -64 -59 -64 -106c0 -33 12 -62 35 -85c24 -23 53 -34 87 -34c37 0 71 6 100 18v18zM393 179
c-26 -11 -59 -17 -100 -17c-39 0 -69 26 -69 65c0 29 11 49 33 59c29 14 56 35 80 64c37 45 56 96 56 155v66h-18v-66c0 -54 -17 -102 -52 -144c-24 -29 -48 -48 -73 -59c-9 -4 -18 -12 -27 -25c-11 -15 -16 -32 -16 -50c0 -47 38 -83 86 -83c43 0 77 6 100 17v18z" />
    <glyph glyph-name="Agrave" unicode="&#xc0;" horiz-adv-x="819" 
d="M302 211h273l6 -18h-286zM316 247h245l7 -18h-259zM540 301h-203l102 259zM331 283h217l6 -18h-231zM596 158h-315l8 17h301zM275 140h329l54 -140h19l-228 584l10 27l238 -611h20l-249 635l10 25l257 -660h20l-268 684l10 24l276 -708h19l-286 734l10 24l296 -758h20
l-306 782h-20l-305 -782h19zM486 782h-19l-306 -782h20zM448 782h-19l-306 -782h20zM410 782h-20l-305 -782h20zM370 782h-19l-306 -782h21zM351 974h-25l138 -140h25zM402 974h-26l140 -140h25zM300 974h-25l138 -140h26z" />
    <glyph glyph-name="Aacute" unicode="&#xc1;" horiz-adv-x="819" 
d="M302 211h273l6 -18h-286zM316 247h245l7 -18h-259zM540 301h-203l102 259zM331 283h217l6 -18h-231zM596 158h-315l8 17h301zM275 140h329l54 -140h19l-228 584l10 27l238 -611h20l-249 635l10 25l257 -660h20l-268 684l10 24l276 -708h19l-286 734l10 24l296 -758h20
l-306 782h-20l-305 -782h19zM486 782h-19l-306 -782h20zM448 782h-19l-306 -782h20zM410 782h-20l-305 -782h20zM370 782h-19l-306 -782h21zM552 974h-26l-138 -140h25zM501 974h-25l-140 -140h26zM603 974h-26l-138 -140h25z" />
    <glyph glyph-name="Acircumflex" unicode="&#xc2;" horiz-adv-x="819" 
d="M302 211h273l6 -18h-286zM316 247h245l7 -18h-259zM540 301h-203l102 259zM331 283h217l6 -18h-231zM596 158h-315l8 17h301zM275 140h329l54 -140h19l-228 584l10 27l238 -611h20l-249 635l10 25l257 -660h20l-268 684l10 24l276 -708h19l-286 734l10 24l296 -758h20
l-306 782h-20l-305 -782h19zM486 782h-19l-306 -782h20zM448 782h-19l-306 -782h20zM410 782h-20l-305 -782h20zM370 782h-19l-306 -782h21zM392 974h-25l-140 -140h26zM443 974h-25l-139 -140h25zM456 936l100 -102h25l-113 114l13 13l127 -127h25l-139 140h-26l-138 -140
h25l75 76l75 -76h26l-88 89z" />
    <glyph glyph-name="Atilde" unicode="&#xc3;" horiz-adv-x="819" 
d="M302 211h273l6 -18h-286zM316 247h245l7 -18h-259zM540 301h-203l102 259zM331 283h217l6 -18h-231zM596 158h-315l8 17h301zM275 140h329l54 -140h19l-228 584l10 27l238 -611h20l-249 635l10 25l257 -660h20l-268 684l10 24l276 -708h19l-286 734l10 24l296 -758h20
l-306 782h-20l-305 -782h19zM486 782h-19l-306 -782h20zM448 782h-19l-306 -782h20zM410 782h-20l-305 -782h20zM370 782h-19l-306 -782h21zM337 940c35 0 69 -6 103 -18c34 -11 67 -17 100 -17c34 0 68 5 103 16v19c-31 -11 -66 -17 -103 -17c-33 0 -66 6 -100 17
c-33 12 -68 18 -103 18c-31 0 -64 -5 -100 -16v-19c29 11 62 17 100 17zM337 904c35 0 70 -6 103 -18c34 -11 67 -17 100 -17c36 0 70 5 103 15v18c-39 -10 -73 -15 -103 -15c-33 0 -66 6 -100 17c-34 12 -68 18 -103 18c-33 0 -67 -6 -100 -18v-19c33 13 66 19 100 19z
M540 851c-33 0 -66 6 -100 17c-33 12 -68 18 -103 18c-33 0 -67 -7 -100 -20v-20c34 15 67 22 100 22c35 0 69 -6 103 -18c34 -11 67 -17 100 -17c43 0 78 5 103 14v18c-25 -9 -59 -14 -103 -14z" />
    <glyph glyph-name="Adieresis" unicode="&#xc4;" horiz-adv-x="819" 
d="M302 211h273l6 -18h-286zM316 247h245l7 -18h-259zM540 301h-203l102 259zM331 283h217l6 -18h-231zM596 158h-315l8 17h301zM275 140h329l54 -140h19l-228 584l10 27l238 -611h20l-249 635l10 25l257 -660h20l-268 684l10 24l276 -708h19l-286 734l10 24l296 -758h20
l-306 782h-20l-305 -782h19zM486 782h-19l-306 -782h20zM448 782h-19l-306 -782h20zM410 782h-20l-305 -782h20zM370 782h-19l-306 -782h21zM318 967h-18v-133h18v133zM354 967h-18v-133h18v133zM390 967h-18v-133h18v133zM282 967h-18v-133h18v133zM523 967h-18v-133h18
v133zM559 967h-18v-133h18v133zM595 967h-18v-133h18v133zM487 967h-18v-133h18v133z" />
    <glyph glyph-name="Aring" unicode="&#xc5;" horiz-adv-x="819" 
d="M304 211h273l7 -18h-287zM318 247h245l7 -18h-259zM542 301h-203l102 259zM333 283h217l6 -18h-230zM598 158h-315l8 17h301zM277 140h329l54 -140h19l-228 584l10 27l238 -611h20l-249 635l10 25l257 -660h20l-268 684l10 24l276 -708h19l-286 734l10 24l296 -758h20
l-305 782h-21l-305 -782h19zM488 782h-19l-306 -782h20zM450 782h-19l-306 -782h20zM412 782h-20l-305 -782h20zM372 782h-19l-305 -782h20zM443 1132c-41 0 -77 -15 -106 -44s-44 -65 -44 -106s15 -77 44 -106s65 -44 106 -44s77 15 106 44c29 30 44 65 44 106
s-15 77 -44 106s-65 44 -106 44zM311 982c0 37 13 68 38 93c26 26 57 39 94 39s68 -13 93 -39c26 -25 39 -56 39 -93s-13 -68 -39 -94c-25 -25 -56 -38 -93 -38s-68 13 -94 38c-25 26 -38 57 -38 94zM443 1096c-32 0 -59 -11 -81 -34c-22 -22 -33 -49 -33 -80s11 -58 33 -81
c22 -22 49 -33 81 -33c31 0 58 11 80 33c23 23 34 50 34 81s-11 58 -34 80c-22 23 -49 34 -80 34zM347 982c0 53 43 96 96 96s96 -43 96 -96s-43 -96 -96 -96s-96 43 -96 96zM443 1060c-43 0 -78 -35 -78 -78s35 -78 78 -78s78 35 78 78s-35 78 -78 78zM383 982
c0 33 27 60 60 60s60 -27 60 -60s-27 -60 -60 -60s-60 27 -60 60z" />
    <glyph glyph-name="AE" unicode="&#xc6;" horiz-adv-x="1267" 
d="M310 211h272l7 -18h-287zM323 247h246l6 -18h-259zM548 301h-203l101 259zM338 283h217l6 -18h-230zM604 158h-315l7 17h301zM837 782h-18v-731l-285 731h-20l-306 -782h19l55 140h329l54 -140h19l-227 584l9 27l238 -611h20l-248 635l9 25l257 -660h20l-267 684l9 24
l276 -708h19l-285 734l9 24l296 -758h20zM494 782h-19l-307 -782h20zM456 782h-19l-307 -782h20zM418 782h-21l-305 -782h20zM377 782h-19l-305 -782h20zM945 782h-18v-782h18v782zM909 782h-18v-782h18v782zM873 782h-18v-782h18v782zM981 347h217v18h-217v18h217v18h-217
v18h217v18h-217v18h217v18h-217v148h292v17h-292v18h292v18h-292v18h292v18h-292v18h292v18h-292v18h292v18h-310v-782h310v18h-292v18h292v18h-292v18h292v18h-292v18h292v18h-292v18h292v18h-292v149h217v18h-217v18z" />
    <glyph glyph-name="Ccedilla" unicode="&#xc7;" horiz-adv-x="493" 
d="M497 625v18c-14 3 -30 4 -48 4c-71 0 -131 -25 -181 -75s-75 -110 -75 -181s25 -131 75 -181s110 -75 181 -75c19 0 35 2 48 5v19c-16 -4 -32 -6 -48 -6c-65 0 -121 23 -168 70s-70 103 -70 168s23 121 70 168s103 70 168 70c12 0 28 -1 48 -4zM497 661v18
c-14 3 -30 4 -48 4c-80 0 -149 -29 -206 -86s-85 -125 -85 -206s28 -150 85 -207s126 -85 206 -85c19 0 35 2 48 5v18c-13 -3 -29 -5 -48 -5c-75 0 -140 27 -194 80c-53 54 -80 119 -80 194s27 140 80 193c54 54 119 81 194 81c18 0 34 -1 48 -4zM497 697v19
c-16 2 -32 3 -48 3c-91 0 -168 -32 -232 -96c-63 -64 -95 -141 -95 -232s32 -168 95 -232c64 -64 141 -96 232 -96c18 0 34 1 48 4v18c-14 -3 -30 -4 -48 -4c-85 0 -158 30 -219 91c-60 61 -90 134 -90 219s30 158 90 219c61 61 134 91 219 91c19 0 35 -1 48 -4zM497 734v18
c-16 2 -32 3 -48 3c-101 0 -186 -36 -257 -107s-106 -156 -106 -257s35 -187 106 -258s156 -106 257 -106c11 0 27 1 48 4v18c-21 -3 -37 -4 -48 -4c-95 0 -177 34 -244 101c-67 68 -101 150 -101 245s34 177 101 244c67 68 149 102 244 102c16 0 32 -1 48 -3zM421 -31
l-13 13l-124 -124l13 -12zM446 -56l-13 13l-123 -124l12 -13zM395 -5c14 -2 32 -3 54 -3c16 0 32 1 48 3v18c-16 -2 -32 -3 -48 -3c-105 0 -194 37 -269 112s-112 164 -112 269s37 195 112 270s164 112 269 112c16 0 32 -1 48 -3v18c-16 2 -32 3 -48 3
c-111 0 -205 -39 -283 -117c-77 -78 -116 -172 -116 -283c0 -97 31 -182 92 -256c62 -73 140 -119 233 -136l-116 -115l13 -13z" />
    <glyph glyph-name="Egrave" unicode="&#xc8;" horiz-adv-x="513" 
d="M81 782h-18v-782h18v782zM189 782h-18v-782h18v782zM153 782h-18v-782h18v782zM117 782h-18v-782h18v782zM225 347h217v18h-217v18h217v18h-217v18h217v18h-217v18h217v18h-217v148h292v17h-292v18h292v18h-292v18h292v18h-292v18h292v18h-292v18h292v18h-310v-782h310
v18h-292v18h292v18h-292v18h292v18h-292v18h292v18h-292v18h292v18h-292v149h217v18h-217v18zM266 974h-25l138 -140h26zM317 974h-25l139 -140h26zM216 974h-26l139 -140h25z" />
    <glyph glyph-name="Eacute" unicode="&#xc9;" horiz-adv-x="513" 
d="M81 782h-18v-782h18v782zM189 782h-18v-782h18v782zM153 782h-18v-782h18v782zM117 782h-18v-782h18v782zM225 347h217v18h-217v18h217v18h-217v18h217v18h-217v18h217v18h-217v148h292v17h-292v18h292v18h-292v18h292v18h-292v18h292v18h-292v18h292v18h-310v-782h310
v18h-292v18h292v18h-292v18h292v18h-292v18h292v18h-292v18h292v18h-292v149h217v18h-217v18zM372 974h-25l-139 -140h26zM321 974h-25l-140 -140h26zM423 974h-26l-138 -140h25z" />
    <glyph glyph-name="Ecircumflex" unicode="&#xca;" horiz-adv-x="513" 
d="M81 782h-18v-782h18v782zM189 782h-18v-782h18v782zM153 782h-18v-782h18v782zM117 782h-18v-782h18v782zM225 347h217v18h-217v18h217v18h-217v18h217v18h-217v18h217v18h-217v148h292v17h-292v18h292v18h-292v18h292v18h-292v18h292v18h-292v18h292v18h-310v-782h310
v18h-292v18h292v18h-292v18h292v18h-292v18h292v18h-292v18h292v18h-292v149h217v18h-217v18zM255 974h-26l-139 -140h25zM305 974h-25l-138 -140h25zM318 936l101 -102h25l-113 114l13 13l126 -127h26l-140 140h-25l-139 -140h26l75 76l75 -76h25l-88 89z" />
    <glyph glyph-name="Edieresis" unicode="&#xcb;" horiz-adv-x="513" 
d="M81 782h-18v-782h18v782zM189 782h-18v-782h18v782zM153 782h-18v-782h18v782zM117 782h-18v-782h18v782zM225 347h217v18h-217v18h217v18h-217v18h217v18h-217v18h217v18h-217v148h292v17h-292v18h292v18h-292v18h292v18h-292v18h292v18h-292v18h292v18h-310v-782h310
v18h-292v18h292v18h-292v18h292v18h-292v18h292v18h-292v18h292v18h-292v149h217v18h-217v18zM196 967h-18v-133h18v133zM232 967h-18v-133h18v133zM267 967h-18v-133h18v133zM160 967h-18v-133h18v133zM401 967h-18v-133h18v133zM437 967h-18v-133h18v133zM473 967h-18
v-133h18v133zM365 967h-18v-133h18v133z" />
    <glyph glyph-name="Igrave" unicode="&#xcc;" horiz-adv-x="225" 
d="M117 782h-18v-782h18v782zM153 782h-18v-782h18v782zM189 782h-18v-782h18v782zM225 782h-18v-782h18v782zM81 782h-18v-782h18v782zM76 974h-25l138 -140h26zM127 974h-26l140 -140h25zM25 974h-25l138 -140h26z" />
    <glyph glyph-name="Iacute" unicode="&#xcd;" horiz-adv-x="225" 
d="M117 782h-18v-782h18v782zM153 782h-18v-782h18v782zM189 782h-18v-782h18v782zM225 782h-18v-782h18v782zM81 782h-18v-782h18v782zM245 974h-25l-139 -140h26zM195 974h-26l-139 -140h25zM296 974h-25l-139 -140h26z" />
    <glyph glyph-name="Icircumflex" unicode="&#xce;" horiz-adv-x="225" 
d="M117 782h-18v-782h18v782zM153 782h-18v-782h18v782zM189 782h-18v-782h18v782zM225 782h-18v-782h18v782zM81 782h-18v-782h18v782zM107 974h-26l-139 -140h25zM158 974h-26l-138 -140h25zM170 936l101 -102h25l-113 114l13 13l126 -127h26l-140 140h-25l-139 -140h26
l75 76l75 -76h25l-87 89z" />
    <glyph glyph-name="Idieresis" unicode="&#xcf;" horiz-adv-x="225" 
d="M117 782h-18v-782h18v782zM153 782h-18v-782h18v782zM189 782h-18v-782h18v782zM225 782h-18v-782h18v782zM81 782h-18v-782h18v782zM26 967h-18v-133h18v133zM62 967h-18v-133h18v133zM98 967h-18v-133h18v133zM-10 967h-17v-133h17v133zM232 967h-18v-133h18v133z
M267 967h-18v-133h18v133zM303 967h-18v-133h18v133zM196 967h-18v-133h18v133z" />
    <glyph glyph-name="Eth" unicode="&#xd0;" horiz-adv-x="601" 
d="M225 36c99 2 183 37 252 105s103 151 103 250s-34 182 -103 250s-153 103 -252 105v18c103 -2 191 -39 264 -111s109 -159 109 -262s-36 -190 -109 -262s-161 -109 -264 -111v18zM225 72c89 2 164 34 226 95s93 136 93 224c0 89 -31 163 -93 224c-61 61 -137 93 -226 95
v18c94 -2 174 -35 239 -100s98 -144 98 -237s-33 -172 -98 -237s-145 -98 -239 -100v18zM225 108c79 2 145 30 200 84c55 55 83 121 83 199c0 79 -27 145 -82 199s-122 82 -201 84v18c84 -2 155 -32 213 -90c59 -57 88 -128 88 -211s-29 -154 -88 -212
c-58 -57 -129 -87 -213 -89v18zM225 144c69 2 128 26 176 73s72 105 72 174s-24 126 -72 173c-47 47 -106 72 -176 74v18c74 -2 137 -28 188 -79s77 -113 77 -186s-26 -135 -77 -186s-114 -77 -188 -79v18zM99 373v-18h-18v18h18zM135 373v-18h-18v18h18zM171 373v-18h-18
v18h18zM207 373v-18h-18v18h18zM99 409v-18h-18v18h18zM135 409v-18h-18v18h18zM171 409v-18h-18v18h18zM207 409v-18h-18v18h18zM99 445v-18h-18v18h18zM135 445v-18h-18v18h18zM171 445v-18h-18v18h18zM207 445v-18h-18v18h18zM225 319v18h149v18h-149v18h149v18h-149v18
h149v18h-149v18h149v18h-149v158c64 -3 118 -26 163 -70c45 -43 67 -97 67 -160s-22 -117 -67 -161c-45 -43 -99 -66 -163 -68v139h149v18h-149zM189 319v18h18v-18h-18zM153 319v18h18v-18h-18zM117 319v18h18v-18h-18zM81 319v18h18v-18h-18zM0 319v-18h63v-301h18v301h18
v-301h18v301h18v-301h18v301h18v-301h18v301h18v-301h18c108 0 200 38 276 113c77 76 115 169 115 278s-38 202 -114 277c-75 76 -168 114 -277 114h-18v-319h-18v319h-18v-319h-18v319h-18v-319h-18v319h-18v-319h-18v319h-18v-319h-63v-18h63v-18h-63v-18h63v-18h-63v-18
h63v-18h-63v-18h63v-18h-63z" />
    <glyph glyph-name="Ntilde" unicode="&#xd1;" horiz-adv-x="702" 
d="M209 782h-21l450 -782h21zM168 782h-21l449 -782h22zM126 782h-20l449 -782h21zM593 187v595h-18v-563l-18 30v533h-18v-502l-290 502h-20l450 -782h22v782h-18v-750l-18 30v720h-18v-688l-18 31v657h-18v-626zM99 720v-720h18v689l18 -31v-658h18v626l18 -32v-594h18
v563l18 -31v-532h18v501l288 -501h22l-453 782h-19v-782h18v752zM278 940c35 0 69 -6 103 -18c34 -11 67 -17 100 -17c34 0 68 5 103 16v19c-31 -11 -66 -17 -103 -17c-33 0 -66 6 -100 17c-33 12 -68 18 -103 18c-31 0 -64 -5 -100 -16v-19c29 11 62 17 100 17zM278 904
c35 0 70 -6 103 -18c34 -11 67 -17 100 -17c36 0 70 5 103 15v18c-39 -10 -73 -15 -103 -15c-33 0 -66 6 -100 17c-34 12 -68 18 -103 18c-33 0 -67 -6 -100 -18v-19c33 13 66 19 100 19zM481 851c-33 0 -66 6 -100 17c-33 12 -68 18 -103 18c-33 0 -67 -7 -100 -20v-20
c34 15 67 22 100 22c35 0 69 -6 103 -18c34 -11 67 -17 100 -17c42 0 76 5 103 14v18c-25 -9 -59 -14 -103 -14z" />
    <glyph glyph-name="Ograve" unicode="&#xd2;" 
d="M446 -8c111 0 205 39 283 116c78 78 117 172 117 283s-39 205 -117 283s-172 117 -283 117s-205 -39 -283 -117c-77 -78 -116 -172 -116 -283s39 -205 116 -283c78 -77 172 -116 283 -116zM64 391c0 105 37 195 112 270s165 112 270 112s195 -37 270 -112
s112 -165 112 -270s-37 -194 -112 -269s-165 -112 -270 -112s-195 37 -270 112s-112 164 -112 269zM446 27c101 0 186 35 257 106s107 157 107 258s-36 186 -107 257s-156 107 -257 107s-187 -36 -258 -107s-106 -156 -106 -257s35 -187 106 -258s157 -106 258 -106z
M100 391c0 95 34 177 101 244c68 68 150 102 245 102s177 -34 244 -102c68 -67 102 -149 102 -244s-34 -177 -102 -245c-67 -67 -149 -101 -244 -101s-177 34 -245 101c-67 68 -101 150 -101 245zM446 63c91 0 168 32 232 96s96 141 96 232s-32 168 -96 232s-141 96 -232 96
s-168 -32 -232 -96s-96 -141 -96 -232s32 -168 96 -232s141 -96 232 -96zM136 391c0 85 30 158 91 219s134 91 219 91s158 -30 219 -91s91 -134 91 -219s-30 -158 -91 -219s-134 -91 -219 -91s-158 30 -219 91s-91 134 -91 219zM446 99c81 0 149 28 206 85s86 126 86 207
s-29 149 -86 206s-125 86 -206 86s-150 -29 -207 -86s-85 -125 -85 -206s28 -150 85 -207s126 -85 207 -85zM172 391c0 75 27 140 80 193c54 54 119 81 194 81s140 -27 193 -81c54 -53 81 -118 81 -193s-27 -140 -81 -194c-53 -53 -118 -80 -193 -80s-140 27 -194 80
c-53 54 -80 119 -80 194zM446 135c71 0 132 25 181 75c50 50 75 110 75 181s-25 132 -75 181c-49 50 -110 75 -181 75s-131 -25 -181 -75c-50 -49 -75 -110 -75 -181s25 -131 75 -181s110 -75 181 -75zM208 391c0 65 23 121 70 168s103 70 168 70s121 -23 168 -70
s70 -103 70 -168s-23 -121 -70 -168s-103 -70 -168 -70s-121 23 -168 70s-70 103 -70 168zM377 974h-25l138 -140h26zM428 974h-25l139 -140h26zM327 974h-26l139 -140h25z" />
    <glyph glyph-name="Oacute" unicode="&#xd3;" 
d="M448 -8c111 0 205 39 283 116c78 78 117 172 117 283s-39 205 -117 283s-172 117 -283 117s-205 -39 -283 -117c-77 -78 -116 -172 -116 -283s39 -205 116 -283c78 -77 172 -116 283 -116zM67 391c0 105 37 195 112 270s164 112 269 112s195 -37 270 -112
s112 -165 112 -270s-37 -195 -112 -270c-75 -74 -165 -111 -270 -111s-194 37 -269 112s-112 164 -112 269zM448 27c101 0 186 35 257 106s107 157 107 258s-36 186 -107 257s-156 107 -257 107s-186 -36 -257 -107s-106 -156 -106 -257s35 -187 106 -258s156 -106 257 -106
zM103 391c0 95 34 177 101 244c67 68 149 102 244 102c96 0 178 -34 245 -102c67 -67 101 -149 101 -244s-34 -177 -101 -245c-67 -67 -149 -101 -245 -101c-95 0 -177 34 -244 101c-67 68 -101 150 -101 245zM448 63c91 0 168 32 232 96s96 141 96 232s-32 168 -96 232
s-141 96 -232 96s-168 -32 -232 -96c-63 -64 -95 -141 -95 -232s32 -168 95 -232c64 -64 141 -96 232 -96zM138 391c0 85 30 158 91 219s134 91 219 91s158 -30 219 -91s91 -134 91 -219s-30 -158 -91 -219s-134 -91 -219 -91s-158 30 -219 91s-91 134 -91 219zM448 99
c81 0 149 28 206 85s86 126 86 207s-29 149 -86 206s-125 86 -206 86c-80 0 -149 -29 -206 -86s-86 -125 -86 -206s29 -150 86 -207s126 -85 206 -85zM174 391c0 75 27 140 80 193c54 54 119 81 194 81s140 -27 193 -81c54 -53 81 -118 81 -193s-27 -140 -81 -194
c-53 -53 -118 -80 -193 -80s-140 27 -194 80c-53 54 -80 119 -80 194zM448 135c71 0 132 25 181 75c50 50 75 110 75 181s-25 132 -75 181c-49 50 -110 75 -181 75s-131 -25 -181 -75s-75 -110 -75 -181s25 -131 75 -181s110 -75 181 -75zM210 391c0 65 23 121 70 168
s103 70 168 70s121 -23 168 -70s70 -103 70 -168s-23 -121 -70 -168s-103 -70 -168 -70s-121 23 -168 70s-70 103 -70 168zM578 974h-25l-139 -140h26zM527 974h-25l-139 -140h25zM629 974h-25l-139 -140h25z" />
    <glyph glyph-name="Ocircumflex" unicode="&#xd4;" 
d="M446 -8c111 0 205 39 283 116c78 78 117 172 117 283s-39 205 -117 283s-172 117 -283 117s-205 -39 -283 -117c-77 -78 -116 -172 -116 -283s39 -205 116 -283c78 -77 172 -116 283 -116zM64 391c0 105 37 195 112 270s165 112 270 112s195 -37 270 -112
s112 -165 112 -270s-37 -194 -112 -269s-165 -112 -270 -112s-195 37 -270 112s-112 164 -112 269zM446 27c101 0 186 35 257 106s107 157 107 258s-36 186 -107 257s-156 107 -257 107s-187 -36 -258 -107s-106 -156 -106 -257s35 -187 106 -258s157 -106 258 -106z
M100 391c0 95 34 177 101 244c68 68 150 102 245 102s177 -34 244 -102c68 -67 102 -149 102 -244s-34 -177 -102 -245c-67 -67 -149 -101 -244 -101s-177 34 -245 101c-67 68 -101 150 -101 245zM446 63c91 0 168 32 232 96s96 141 96 232s-32 168 -96 232s-141 96 -232 96
s-168 -32 -232 -96s-96 -141 -96 -232s32 -168 96 -232s141 -96 232 -96zM136 391c0 85 30 158 91 219s134 91 219 91s158 -30 219 -91s91 -134 91 -219s-30 -158 -91 -219s-134 -91 -219 -91s-158 30 -219 91s-91 134 -91 219zM446 99c81 0 149 28 206 85s86 126 86 207
s-29 149 -86 206s-125 86 -206 86s-150 -29 -207 -86s-85 -125 -85 -206s28 -150 85 -207s126 -85 207 -85zM172 391c0 75 27 140 80 193c54 54 119 81 194 81s140 -27 193 -81c54 -53 81 -118 81 -193s-27 -140 -81 -194c-53 -53 -118 -80 -193 -80s-140 27 -194 80
c-53 54 -80 119 -80 194zM446 135c71 0 132 25 181 75c50 50 75 110 75 181s-25 132 -75 181c-49 50 -110 75 -181 75s-131 -25 -181 -75c-50 -49 -75 -110 -75 -181s25 -131 75 -181s110 -75 181 -75zM208 391c0 65 23 121 70 168s103 70 168 70s121 -23 168 -70
s70 -103 70 -168s-23 -121 -70 -168s-103 -70 -168 -70s-121 23 -168 70s-70 103 -70 168zM402 974h-26l-139 -140h25zM452 974h-25l-138 -140h25zM465 936l101 -102h25l-113 114l12 13l127 -127h26l-140 140h-25l-139 -140h26l75 76l75 -76h25l-88 89z" />
    <glyph glyph-name="Otilde" unicode="&#xd5;" 
d="M451 -8c111 0 205 39 283 116c78 78 117 172 117 283s-39 205 -117 283s-172 117 -283 117s-205 -39 -283 -117c-77 -78 -116 -172 -116 -283s39 -205 116 -283c78 -77 172 -116 283 -116zM70 391c0 105 37 195 112 270s164 112 269 112s195 -37 270 -112
s112 -165 112 -270s-37 -195 -112 -270c-75 -74 -165 -111 -270 -111s-194 37 -269 112s-112 164 -112 269zM451 27c101 0 186 35 257 106s107 157 107 258s-36 186 -107 257s-156 107 -257 107c-100 0 -186 -36 -257 -107s-106 -156 -106 -257s35 -187 106 -258
s157 -106 257 -106zM106 391c0 95 34 177 101 244c67 68 149 102 244 102c96 0 178 -34 245 -102c67 -67 101 -149 101 -244s-34 -177 -101 -245c-67 -67 -149 -101 -245 -101c-95 0 -177 34 -244 101c-67 68 -101 150 -101 245zM451 63c91 0 168 32 232 96s96 141 96 232
s-32 168 -96 232s-141 96 -232 96c-90 0 -167 -32 -231 -96s-96 -141 -96 -232s32 -168 96 -232s141 -96 231 -96zM142 391c0 85 30 158 90 219c61 61 134 91 219 91c86 0 159 -30 219 -91c61 -61 91 -134 91 -219s-30 -158 -91 -219c-60 -61 -133 -91 -219 -91
c-85 0 -158 30 -219 91c-60 61 -90 134 -90 219zM451 99c81 0 149 28 206 85s86 126 86 207s-29 149 -86 206s-125 86 -206 86c-80 0 -149 -29 -206 -86s-85 -125 -85 -206s28 -150 85 -207s126 -85 206 -85zM178 391c0 75 27 140 80 193c53 54 118 81 193 81
c76 0 141 -27 194 -81c53 -53 80 -118 80 -193s-27 -140 -80 -194c-53 -53 -118 -80 -194 -80c-75 0 -140 27 -193 80c-53 54 -80 119 -80 194zM451 135c71 0 132 25 181 75c50 50 75 110 75 181s-25 132 -75 181c-49 50 -110 75 -181 75s-131 -25 -181 -75
c-49 -50 -74 -110 -74 -181s25 -131 74 -181c50 -50 110 -75 181 -75zM214 391c0 65 23 121 69 168c47 47 103 70 168 70s121 -23 168 -70s70 -103 70 -168s-23 -121 -70 -168s-103 -70 -168 -70s-121 23 -168 70c-46 47 -69 103 -69 168zM347 940c34 0 68 -6 102 -18
c34 -11 68 -17 101 -17c35 0 69 5 102 16v19c-30 -11 -64 -17 -102 -17c-33 0 -67 6 -101 17c-33 12 -67 18 -102 18c-30 0 -64 -5 -101 -16v-19c29 11 62 17 101 17zM347 904c35 0 69 -6 102 -18c34 -11 68 -17 101 -17c37 0 71 5 102 15v18c-37 -10 -71 -15 -102 -15
c-33 0 -67 6 -101 17c-34 12 -68 18 -102 18c-33 0 -66 -6 -101 -18v-19c34 13 68 19 101 19zM550 851c-33 0 -67 6 -101 17c-33 12 -67 18 -102 18c-33 0 -66 -7 -101 -20v-20c35 15 69 22 101 22c34 0 68 -6 102 -18c34 -11 68 -17 101 -17c43 0 77 5 102 14v18
c-25 -9 -59 -14 -102 -14z" />
    <glyph glyph-name="Odieresis" unicode="&#xd6;" 
d="M446 -8c111 0 205 39 283 116c78 78 117 172 117 283s-39 205 -117 283s-172 117 -283 117s-205 -39 -283 -117c-77 -78 -116 -172 -116 -283s39 -205 116 -283c78 -77 172 -116 283 -116zM64 391c0 105 37 195 112 270s165 112 270 112s195 -37 270 -112
s112 -165 112 -270s-37 -194 -112 -269s-165 -112 -270 -112s-195 37 -270 112s-112 164 -112 269zM446 27c101 0 186 35 257 106s107 157 107 258s-36 186 -107 257s-156 107 -257 107s-187 -36 -258 -107s-106 -156 -106 -257s35 -187 106 -258s157 -106 258 -106z
M100 391c0 95 34 177 101 244c68 68 150 102 245 102s177 -34 244 -102c68 -67 102 -149 102 -244s-34 -177 -102 -245c-67 -67 -149 -101 -244 -101s-177 34 -245 101c-67 68 -101 150 -101 245zM446 63c91 0 168 32 232 96s96 141 96 232s-32 168 -96 232s-141 96 -232 96
s-168 -32 -232 -96s-96 -141 -96 -232s32 -168 96 -232s141 -96 232 -96zM136 391c0 85 30 158 91 219s134 91 219 91s158 -30 219 -91s91 -134 91 -219s-30 -158 -91 -219s-134 -91 -219 -91s-158 30 -219 91s-91 134 -91 219zM446 99c81 0 149 28 206 85s86 126 86 207
s-29 149 -86 206s-125 86 -206 86s-150 -29 -207 -86s-85 -125 -85 -206s28 -150 85 -207s126 -85 207 -85zM172 391c0 75 27 140 80 193c54 54 119 81 194 81s140 -27 193 -81c54 -53 81 -118 81 -193s-27 -140 -81 -194c-53 -53 -118 -80 -193 -80s-140 27 -194 80
c-53 54 -80 119 -80 194zM446 135c71 0 132 25 181 75c50 50 75 110 75 181s-25 132 -75 181c-49 50 -110 75 -181 75s-131 -25 -181 -75c-50 -49 -75 -110 -75 -181s25 -131 75 -181s110 -75 181 -75zM208 391c0 65 23 121 70 168s103 70 168 70s121 -23 168 -70
s70 -103 70 -168s-23 -121 -70 -168s-103 -70 -168 -70s-121 23 -168 70s-70 103 -70 168zM329 967h-18v-133h18v133zM365 967h-18v-133h18v133zM401 967h-18v-133h18v133zM293 967h-18v-133h18v133zM534 967h-18v-133h18v133zM570 967h-18v-133h18v133zM606 967h-18v-133
h18v133zM498 967h-18v-133h18v133z" />
    <glyph glyph-name="multiply" unicode="&#xd7;" horiz-adv-x="719" 
d="M379 401l13 13l13 -13l-13 -12zM354 376l13 13l12 -13l-12 -13zM417 363l-12 13l12 13l13 -13zM392 338l-13 12l13 13l13 -13zM354 325l13 13l12 -13l-12 -13zM328 350l13 13l13 -13l-13 -12zM443 338l-13 12l13 13l13 -13zM417 312l-12 13l12 13l13 -13zM392 287l-13 13
l13 12l13 -12zM354 274l13 13l12 -13l-12 -13zM328 300l13 12l13 -12l-13 -13zM303 325l13 13l12 -13l-12 -13zM468 312l-12 13l12 13l13 -13zM443 287l-13 13l13 12l13 -12zM417 261l-12 13l12 13l13 -13zM392 236l-13 13l13 12l13 -12zM679 498l-13 12l-172 -172l-13 12
l173 173l-13 13l-173 -173l-12 13l172 172l-13 13l-172 -172l-13 12l173 173l-13 13l-173 -173l-12 13l172 172l-12 13l-173 -172l-173 172l-12 -13l172 -172l-12 -13l-173 173l-13 -13l173 -173l-13 -12l-172 172l-13 -13l172 -172l-12 -13l-173 173l-13 -13l173 -173
l-13 -12l-172 172l-13 -12l172 -173l-172 -173l13 -12l172 172l13 -12l-173 -173l13 -13l173 173l12 -13l-172 -172l13 -13l172 172l13 -12l-173 -173l13 -13l173 173l12 -13l-172 -172l12 -13l173 172l173 -172l12 13l-172 172l12 13l173 -173l13 13l-173 173l13 12
l172 -172l13 13l-172 172l12 13l173 -173l13 13l-173 173l13 12l172 -172l13 12l-172 173z" />
    <glyph glyph-name="Oslash" unicode="&#xd8;" 
d="M700 651c-4 5 -8 9 -13 13l12 12c5 -4 9 -8 14 -12zM675 626c-5 4 -9 8 -14 12l13 13c5 -4 9 -8 13 -12zM649 600c-4 5 -8 9 -13 13l13 12c5 -4 9 -8 13 -12zM624 575c-4 5 -8 9 -13 12l12 13c5 -4 9 -8 13 -12zM275 226c-4 5 -8 9 -12 13l335 335c4 -4 8 -8 13 -12z
M249 201c-4 4 -8 8 -12 13l13 12c3 -5 7 -9 12 -13zM224 175c-4 4 -8 8 -12 13l12 13c4 -5 8 -9 13 -13zM198 150c-4 4 -8 8 -12 13l13 13c4 -5 8 -9 12 -14zM173 125c-4 4 -8 8 -12 13l12 12c4 -5 8 -9 13 -13zM725 625c-4 5 -8 9 -12 14l12 12c4 -5 8 -9 12 -14zM699 599
c-4 5 -8 9 -12 14l13 13c4 -5 8 -9 12 -14zM674 574c-4 5 -8 9 -12 14l13 12c4 -4 8 -8 11 -13zM648 549c-3 5 -7 9 -11 13l12 13c4 -5 8 -9 12 -14zM302 202c-5 4 -9 8 -14 12l335 335c4 -5 8 -9 12 -14zM276 176c-5 4 -9 8 -14 12l13 12c4 -4 8 -8 13 -11zM250 151
c-5 3 -9 7 -13 11l12 13c5 -4 9 -8 14 -12zM225 125c-5 4 -9 8 -14 12l13 13c5 -4 9 -8 14 -12zM200 100c-5 4 -9 8 -14 12l12 12c5 -4 9 -8 14 -12zM747 596c-3 5 -7 10 -11 15l13 12c3 -5 7 -9 10 -14zM721 570c-3 5 -7 10 -11 15l13 13c4 -5 8 -10 11 -15zM695 544
c-3 5 -7 10 -11 15l13 13c4 -5 8 -10 11 -15zM669 518c-3 5 -7 11 -10 16l13 12l9 -15zM333 182c-6 3 -11 6 -16 9l329 329c3 -5 6 -10 9 -16zM306 156l-15 9l12 13c5 -3 11 -7 16 -10zM280 129c-5 3 -10 7 -15 11l13 13c5 -4 10 -8 15 -11zM254 103c-5 3 -10 7 -15 11
l13 13c5 -4 10 -8 15 -11zM229 78c-5 3 -10 7 -15 11l12 12c5 -4 10 -8 15 -11zM663 487c14 -30 21 -62 21 -96c0 -65 -23 -121 -70 -168s-103 -70 -168 -70c-34 0 -66 7 -96 21zM691 514c19 -39 29 -80 29 -123c0 -75 -27 -140 -81 -194c-53 -53 -118 -80 -193 -80
c-43 0 -84 10 -123 29l13 14c35 -17 71 -25 110 -25c71 0 132 25 181 74c50 50 75 111 75 182c0 39 -8 75 -25 110zM717 541c26 -47 39 -97 39 -150c0 -85 -30 -158 -91 -219s-134 -91 -219 -91c-53 0 -103 13 -150 39l13 13c43 -23 88 -34 137 -34c81 0 149 28 206 85
s86 126 86 207c0 49 -11 94 -34 137zM744 568c32 -55 48 -114 48 -177c0 -95 -34 -177 -102 -245c-67 -67 -149 -101 -244 -101c-63 0 -122 16 -177 48l14 14c50 -29 104 -44 163 -44c91 0 168 32 232 96s96 141 96 232c0 59 -15 113 -44 163zM769 593
c39 -61 59 -129 59 -202c0 -105 -37 -194 -112 -269s-165 -112 -270 -112c-73 0 -140 19 -202 58l12 12c58 -35 121 -53 190 -53c101 0 186 35 257 106s107 157 107 258c0 69 -18 132 -53 190zM233 286c-17 33 -25 68 -25 105c0 65 23 121 70 168s103 70 168 70
c37 0 72 -8 105 -25zM206 259c-23 41 -34 85 -34 132c0 75 27 140 80 193c54 54 119 81 194 81c47 0 91 -11 132 -34l-13 -13c-37 19 -77 29 -119 29c-71 0 -132 -25 -182 -75c-49 -49 -74 -110 -74 -181c0 -42 10 -82 29 -119zM180 233c-29 49 -44 101 -44 158
c0 85 30 158 91 219s134 91 219 91c57 0 109 -15 158 -44l-13 -13c-45 26 -93 39 -145 39c-81 0 -150 -29 -207 -86s-85 -125 -85 -206c0 -52 13 -100 39 -145zM153 206c-35 57 -53 118 -53 185c0 95 34 177 101 244c68 68 150 102 245 102c67 0 128 -18 185 -53l-13 -13
c-53 32 -110 48 -172 48c-91 0 -168 -32 -232 -96s-96 -141 -96 -232c0 -62 16 -119 48 -172zM128 181c-43 63 -64 133 -64 210c0 105 37 195 112 270s165 112 270 112c77 0 147 -21 210 -64l-12 -12c-60 39 -126 58 -198 58c-101 0 -187 -36 -258 -107s-106 -156 -106 -257
c0 -72 19 -138 58 -198zM151 178c3 -5 7 -9 11 -14l-13 -13c-3 5 -7 10 -11 15zM177 204c3 -5 7 -10 10 -15l-13 -12c-3 5 -7 9 -10 14zM202 230c4 -5 8 -10 11 -15l-13 -13c-3 5 -7 10 -11 15zM228 256c3 -5 7 -10 10 -15l-12 -13c-4 5 -8 10 -11 15zM568 595
c5 -3 10 -6 15 -10l-331 -331c-4 5 -7 10 -10 15zM594 622c5 -3 10 -7 15 -11l-13 -12c-5 3 -10 7 -15 10zM620 648c5 -4 10 -8 15 -11l-13 -13c-5 3 -10 7 -15 11zM646 673c5 -3 9 -7 14 -10l-12 -13c-5 3 -10 7 -15 10zM671 699c5 -3 10 -7 15 -11l-13 -13
c-5 4 -9 8 -14 11zM742 770l-12 13l-60 -60c-67 45 -142 68 -224 68c-111 0 -205 -39 -283 -117c-77 -78 -116 -172 -116 -283c0 -81 23 -156 68 -223l-67 -67l13 -13l64 65c4 -5 8 -9 12 -14l-64 -63l13 -13l62 62c4 -5 8 -9 13 -13l-62 -62l13 -13l61 62c5 -4 9 -8 14 -12
l-63 -62l13 -13l64 64c5 -4 9 -8 14 -11l-65 -66l12 -13l69 69c65 -42 137 -63 215 -63c111 0 205 39 283 116c78 78 117 172 117 283c0 78 -21 150 -63 216l61 61l-13 13l-58 -59c-4 5 -8 10 -11 15l57 56l-13 13l-56 -55c-4 5 -8 9 -12 13l55 55l-13 13l-54 -55
c-5 4 -9 8 -13 12l55 55l-13 13l-56 -56c-5 4 -9 8 -14 11z" />
    <glyph glyph-name="Ugrave" unicode="&#xd9;" horiz-adv-x="641" 
d="M641 280v502h-18v-502c0 -75 -27 -138 -80 -191s-116 -79 -191 -79s-139 26 -192 79s-79 116 -79 191v502h-18v-502c0 -79 28 -147 84 -204c57 -56 125 -84 205 -84s148 28 204 84c57 57 85 125 85 204zM605 280v502h-18v-502c0 -65 -23 -120 -69 -166
c-45 -46 -101 -69 -166 -69s-120 23 -166 69s-69 101 -69 166v502h-18v-502c0 -69 25 -129 74 -179c49 -49 109 -74 179 -74s130 25 179 74c49 50 74 110 74 179zM569 280v502h-18v-502c0 -55 -20 -102 -59 -141s-85 -58 -140 -58s-102 19 -141 58s-58 86 -58 141v502h-18
v-502c0 -59 21 -110 64 -153s94 -64 153 -64s110 21 153 64s64 94 64 153zM533 280v502h-18v-502c0 -45 -16 -83 -48 -115c-31 -32 -70 -48 -115 -48s-83 16 -115 48s-48 70 -48 115v502h-18v-502c0 -49 18 -92 53 -128c36 -35 79 -53 128 -53s92 18 127 53
c36 36 54 79 54 128zM497 280v502h-18v-502c0 -35 -12 -65 -37 -90s-55 -37 -90 -37s-65 12 -90 37s-37 55 -37 90v502h-18v-502c0 -40 14 -74 42 -103c29 -28 63 -42 103 -42s74 14 102 42c29 29 43 63 43 103zM309 974h-26l139 -140h25zM359 974h-25l140 -140h25zM258 974
h-25l138 -140h25z" />
    <glyph glyph-name="Uacute" unicode="&#xda;" horiz-adv-x="641" 
d="M641 280v502h-18v-502c0 -75 -27 -138 -80 -191s-116 -79 -191 -79s-139 26 -192 79s-79 116 -79 191v502h-18v-502c0 -79 28 -147 84 -204c57 -56 125 -84 205 -84s148 28 204 84c57 57 85 125 85 204zM605 280v502h-18v-502c0 -65 -23 -120 -69 -166
c-45 -46 -101 -69 -166 -69s-120 23 -166 69s-69 101 -69 166v502h-18v-502c0 -69 25 -129 74 -179c49 -49 109 -74 179 -74s130 25 179 74c49 50 74 110 74 179zM569 280v502h-18v-502c0 -55 -20 -102 -59 -141s-85 -58 -140 -58s-102 19 -141 58s-58 86 -58 141v502h-18
v-502c0 -59 21 -110 64 -153s94 -64 153 -64s110 21 153 64s64 94 64 153zM533 280v502h-18v-502c0 -45 -16 -83 -48 -115c-31 -32 -70 -48 -115 -48s-83 16 -115 48s-48 70 -48 115v502h-18v-502c0 -49 18 -92 53 -128c36 -35 79 -53 128 -53s92 18 127 53
c36 36 54 79 54 128zM497 280v502h-18v-502c0 -35 -12 -65 -37 -90s-55 -37 -90 -37s-65 12 -90 37s-37 55 -37 90v502h-18v-502c0 -40 14 -74 42 -103c29 -28 63 -42 103 -42s74 14 102 42c29 29 43 63 43 103zM425 974h-25l-139 -140h25zM374 974h-25l-140 -140h26z
M476 974h-26l-138 -140h25z" />
    <glyph glyph-name="Ucircumflex" unicode="&#xdb;" horiz-adv-x="641" 
d="M641 280v502h-18v-502c0 -75 -27 -138 -80 -191s-116 -79 -191 -79s-139 26 -192 79s-79 116 -79 191v502h-18v-502c0 -79 28 -147 84 -204c57 -56 125 -84 205 -84s148 28 204 84c57 57 85 125 85 204zM605 280v502h-18v-502c0 -65 -23 -120 -69 -166
c-45 -46 -101 -69 -166 -69s-120 23 -166 69s-69 101 -69 166v502h-18v-502c0 -69 25 -129 74 -179c49 -49 109 -74 179 -74s130 25 179 74c49 50 74 110 74 179zM569 280v502h-18v-502c0 -55 -20 -102 -59 -141s-85 -58 -140 -58s-102 19 -141 58s-58 86 -58 141v502h-18
v-502c0 -59 21 -110 64 -153s94 -64 153 -64s110 21 153 64s64 94 64 153zM533 280v502h-18v-502c0 -45 -16 -83 -48 -115c-31 -32 -70 -48 -115 -48s-83 16 -115 48s-48 70 -48 115v502h-18v-502c0 -49 18 -92 53 -128c36 -35 79 -53 128 -53s92 18 127 53
c36 36 54 79 54 128zM497 280v502h-18v-502c0 -35 -12 -65 -37 -90s-55 -37 -90 -37s-65 12 -90 37s-37 55 -37 90v502h-18v-502c0 -40 14 -74 42 -103c29 -28 63 -42 103 -42s74 14 102 42c29 29 43 63 43 103zM318 974h-25l-140 -140h26zM369 974h-25l-139 -140h25z
M382 936l100 -102h25l-113 114l13 13l127 -127h25l-139 140h-26l-138 -140h25l75 76l75 -76h26l-88 89z" />
    <glyph glyph-name="Udieresis" unicode="&#xdc;" horiz-adv-x="641" 
d="M641 280v502h-18v-502c0 -75 -27 -138 -80 -191s-116 -79 -191 -79s-139 26 -192 79s-79 116 -79 191v502h-18v-502c0 -79 28 -147 84 -204c57 -56 125 -84 205 -84s148 28 204 84c57 57 85 125 85 204zM605 280v502h-18v-502c0 -65 -23 -120 -69 -166
c-45 -46 -101 -69 -166 -69s-120 23 -166 69s-69 101 -69 166v502h-18v-502c0 -69 25 -129 74 -179c49 -49 109 -74 179 -74s130 25 179 74c49 50 74 110 74 179zM569 280v502h-18v-502c0 -55 -20 -102 -59 -141s-85 -58 -140 -58s-102 19 -141 58s-58 86 -58 141v502h-18
v-502c0 -59 21 -110 64 -153s94 -64 153 -64s110 21 153 64s64 94 64 153zM533 280v502h-18v-502c0 -45 -16 -83 -48 -115c-31 -32 -70 -48 -115 -48s-83 16 -115 48s-48 70 -48 115v502h-18v-502c0 -49 18 -92 53 -128c36 -35 79 -53 128 -53s92 18 127 53
c36 36 54 79 54 128zM497 280v502h-18v-502c0 -35 -12 -65 -37 -90s-55 -37 -90 -37s-65 12 -90 37s-37 55 -37 90v502h-18v-502c0 -40 14 -74 42 -103c29 -28 63 -42 103 -42s74 14 102 42c29 29 43 63 43 103zM238 967h-18v-133h18v133zM274 967h-18v-133h18v133zM310 967
h-18v-133h18v133zM202 967h-18v-133h18v133zM443 967h-18v-133h18v133zM479 967h-18v-133h18v133zM515 967h-18v-133h18v133zM407 967h-18v-133h18v133z" />
    <glyph glyph-name="Yacute" unicode="&#xdd;" horiz-adv-x="690" 
d="M438 281v-281h18v281l249 501h-19l-239 -482l-9 18l228 464h-19l-218 -445l-9 18l208 427h-19l-198 -408l-9 19l189 389h-19l-179 -370l-9 18l169 352h-19l-159 -332l-159 332h-19zM420 0v281l-242 501h-19l243 -501v-281h18zM384 0v281l-243 501h-19l244 -501v-281h18z
M348 0v281l-245 501h-19l246 -501v-281h18zM312 0v281l-249 501h-19l250 -501v-281h18zM430 974h-25l-139 -140h26zM379 974h-25l-139 -140h25zM481 974h-25l-139 -140h25z" />
    <glyph glyph-name="Thorn" unicode="&#xde;" horiz-adv-x="594" 
d="M117 620h-18v-620h18v620zM153 620h-18v-620h18v620zM189 620h-18v-620h18v620zM81 620h-18v-620h18v620zM225 602h122c63 0 117 -22 161 -66s66 -98 66 -161s-22 -116 -66 -161c-44 -44 -98 -66 -161 -66h-122v18h122c57 0 106 20 147 61s62 91 62 148s-21 106 -62 147
s-90 62 -147 62h-122v18zM225 566h122c53 0 98 -19 135 -56s56 -82 56 -135s-19 -98 -56 -135s-82 -56 -135 -56h-122v18h122c47 0 88 17 122 51s51 75 51 122s-17 88 -51 122c-33 34 -74 51 -122 51h-122v18zM225 530h122c43 0 79 -15 109 -46c31 -30 46 -66 46 -109
s-15 -79 -46 -110c-30 -30 -66 -45 -109 -45h-122v18h122c37 0 69 13 96 40s41 60 41 97s-13 69 -40 96s-59 41 -97 41h-122v18zM225 494h122c33 0 61 -12 84 -35s35 -51 35 -84s-12 -61 -35 -84s-51 -35 -84 -35h-122v18h122c56 0 101 45 101 101s-45 101 -101 101h-122v18
zM225 459h122c45 0 83 -39 83 -84s-38 -84 -83 -84h-122v168zM347 620h-140v-620h18v130h122c67 0 125 24 173 72s72 106 72 173s-24 125 -72 173s-106 72 -173 72z" />
    <glyph glyph-name="germandbls" unicode="&#xdf;" horiz-adv-x="978" 
d="M970 636l15 10c-36 85 -120 145 -216 145c-65 0 -120 -23 -165 -69c-45 -45 -68 -100 -68 -165c0 -61 21 -113 62 -158c41 -44 92 -68 151 -73c45 -4 82 -42 82 -87c0 -47 -38 -86 -85 -86c-38 0 -64 17 -78 51l-15 -9c19 -40 50 -60 93 -60c57 0 103 47 103 104
c0 56 -41 100 -100 105c-55 5 -102 28 -140 68c-37 41 -56 89 -56 145c0 59 21 110 64 152c43 43 93 64 152 64c89 0 168 -56 201 -137zM907 600l14 9c-23 64 -83 110 -152 110c-45 0 -83 -16 -114 -48c-31 -31 -47 -69 -47 -114c0 -42 14 -78 43 -109s63 -48 104 -51
s75 -20 104 -51c29 -30 44 -66 44 -107c0 -43 -15 -81 -46 -112s-68 -46 -111 -46c-62 0 -108 27 -138 82l-15 -10c29 -55 88 -90 153 -90c48 0 89 17 123 52c35 35 52 76 52 124c0 47 -16 86 -47 119s-70 52 -118 56c-37 3 -68 19 -93 46s-38 60 -38 97c0 39 14 73 42 101
c29 29 63 43 102 43c64 0 119 -41 138 -101zM840 561l18 11c-7 41 -45 75 -89 75c-49 0 -90 -39 -90 -90c0 -48 35 -85 84 -89c59 -5 109 -29 150 -72s62 -95 62 -157c0 -63 -22 -117 -67 -162s-99 -67 -162 -67c-87 0 -153 37 -197 112l-16 -10c45 -73 125 -120 213 -120
c68 0 126 24 174 72c49 49 73 107 73 175c0 66 -23 123 -69 171c-44 45 -97 70 -159 75c-37 3 -67 33 -67 72s32 72 71 72c37 0 68 -31 71 -68zM874 581l16 9c-15 55 -64 93 -121 93c-35 0 -64 -12 -89 -37c-24 -25 -36 -54 -36 -89c0 -32 11 -60 33 -84
c23 -24 50 -38 82 -41c52 -5 95 -25 129 -62c34 -36 51 -80 51 -131c0 -53 -19 -99 -57 -137c-37 -38 -83 -57 -136 -57c-71 0 -135 39 -168 98l-15 -11c44 -70 105 -105 183 -105c58 0 108 21 149 62c41 42 62 92 62 150c0 57 -19 105 -58 144c-38 40 -84 62 -138 67
c-57 5 -100 51 -100 107c0 29 11 55 32 76s47 32 76 32c51 0 96 -36 105 -84zM938 617l15 10c-28 76 -100 128 -184 128c-55 0 -101 -19 -139 -58s-57 -85 -57 -140c0 -51 17 -96 51 -133c35 -37 77 -58 127 -62c33 -3 60 -16 82 -40c23 -23 34 -51 34 -83
c0 -33 -12 -62 -36 -86c-23 -24 -52 -36 -85 -36c-49 0 -85 22 -108 67l-15 -11c25 -49 66 -74 123 -74c39 0 71 14 98 41s41 60 41 99c0 37 -13 69 -39 95c-25 27 -57 42 -94 45c-45 4 -84 23 -116 57c-31 34 -47 74 -47 121c0 49 18 92 53 127s78 53 127 53
c76 0 145 -49 169 -120zM481 636l15 10c-36 85 -120 145 -216 145c-65 0 -120 -23 -165 -69c-45 -45 -68 -100 -68 -165c0 -61 21 -113 62 -158c41 -44 92 -68 151 -73c45 -4 82 -42 82 -87c0 -47 -38 -86 -85 -86c-38 0 -64 17 -78 51l-15 -9c19 -40 50 -60 93 -60
c57 0 103 47 103 104c0 56 -41 100 -100 105c-55 5 -102 28 -140 68c-37 41 -56 89 -56 145c0 59 21 110 64 152c43 43 93 64 152 64c89 0 168 -56 201 -137zM418 600l14 9c-23 64 -83 110 -152 110c-45 0 -83 -16 -114 -48c-31 -31 -47 -69 -47 -114c0 -42 14 -78 43 -109
s63 -48 104 -51s75 -20 104 -51c29 -30 44 -66 44 -107c0 -43 -15 -81 -46 -112s-68 -46 -111 -46c-62 0 -108 27 -138 82l-15 -10c29 -55 88 -90 153 -90c48 0 89 17 123 52c35 35 52 76 52 124c0 47 -16 86 -47 119s-70 52 -118 56c-37 3 -68 19 -93 46s-38 60 -38 97
c0 39 14 73 42 101c29 29 63 43 102 43c64 0 119 -41 138 -101zM351 561l18 11c-7 41 -45 75 -89 75c-49 0 -90 -39 -90 -90c0 -48 35 -85 84 -89c59 -5 109 -29 150 -72s62 -95 62 -157c0 -63 -22 -117 -67 -162s-99 -67 -162 -67c-87 0 -153 37 -197 112l-16 -10
c45 -73 125 -120 213 -120c68 0 126 24 174 72c49 49 73 107 73 175c0 66 -23 123 -69 171c-44 45 -97 70 -159 75c-37 3 -67 33 -67 72s32 72 71 72c37 0 68 -31 71 -68zM385 581l16 9c-15 55 -64 93 -121 93c-35 0 -64 -12 -89 -37c-24 -25 -36 -54 -36 -89
c0 -32 11 -60 33 -84c23 -24 50 -38 82 -41c52 -5 95 -25 129 -62c34 -36 51 -80 51 -131c0 -53 -19 -99 -57 -137c-37 -38 -83 -57 -136 -57c-71 0 -135 39 -168 98l-15 -11c44 -70 105 -105 183 -105c58 0 108 21 149 62c41 42 62 92 62 150c0 57 -19 105 -58 144
c-38 40 -84 62 -138 67c-57 5 -100 51 -100 107c0 29 11 55 32 76s47 32 76 32c51 0 96 -36 105 -84zM449 617l15 10c-28 76 -100 128 -184 128c-55 0 -101 -19 -139 -58s-57 -85 -57 -140c0 -51 17 -96 51 -133c35 -37 77 -58 127 -62c33 -3 60 -16 82 -40
c23 -23 34 -51 34 -83c0 -33 -12 -62 -36 -86c-23 -24 -52 -36 -85 -36c-49 0 -85 22 -108 67l-15 -11c25 -49 66 -74 123 -74c39 0 71 14 98 41s41 60 41 99c0 37 -13 69 -39 95c-25 27 -57 42 -94 45c-45 4 -84 23 -116 57c-31 34 -47 74 -47 121c0 49 18 92 53 127
s78 53 127 53c76 0 145 -49 169 -120z" />
    <glyph glyph-name="agrave" unicode="&#xe0;" horiz-adv-x="819" 
d="M302 211h273l6 -18h-286zM316 247h245l7 -18h-259zM540 301h-203l102 259zM331 283h217l6 -18h-231zM596 158h-315l8 17h301zM275 140h329l54 -140h19l-228 584l10 27l238 -611h20l-249 635l10 25l257 -660h20l-268 684l10 24l276 -708h19l-286 734l10 24l296 -758h20
l-306 782h-20l-305 -782h19zM486 782h-19l-306 -782h20zM448 782h-19l-306 -782h20zM410 782h-20l-305 -782h20zM370 782h-19l-306 -782h21zM351 974h-25l138 -140h25zM402 974h-26l140 -140h25zM300 974h-25l138 -140h26z" />
    <glyph glyph-name="aacute" unicode="&#xe1;" horiz-adv-x="819" 
d="M302 211h273l6 -18h-286zM316 247h245l7 -18h-259zM540 301h-203l102 259zM331 283h217l6 -18h-231zM596 158h-315l8 17h301zM275 140h329l54 -140h19l-228 584l10 27l238 -611h20l-249 635l10 25l257 -660h20l-268 684l10 24l276 -708h19l-286 734l10 24l296 -758h20
l-306 782h-20l-305 -782h19zM486 782h-19l-306 -782h20zM448 782h-19l-306 -782h20zM410 782h-20l-305 -782h20zM370 782h-19l-306 -782h21zM552 974h-26l-138 -140h25zM501 974h-25l-140 -140h26zM603 974h-26l-138 -140h25z" />
    <glyph glyph-name="acircumflex" unicode="&#xe2;" horiz-adv-x="819" 
d="M302 211h273l6 -18h-286zM316 247h245l7 -18h-259zM540 301h-203l102 259zM331 283h217l6 -18h-231zM596 158h-315l8 17h301zM275 140h329l54 -140h19l-228 584l10 27l238 -611h20l-249 635l10 25l257 -660h20l-268 684l10 24l276 -708h19l-286 734l10 24l296 -758h20
l-306 782h-20l-305 -782h19zM486 782h-19l-306 -782h20zM448 782h-19l-306 -782h20zM410 782h-20l-305 -782h20zM370 782h-19l-306 -782h21zM392 974h-25l-140 -140h26zM443 974h-25l-139 -140h25zM456 936l100 -102h25l-113 114l13 13l127 -127h25l-139 140h-26l-138 -140
h25l75 76l75 -76h26l-88 89z" />
    <glyph glyph-name="atilde" unicode="&#xe3;" horiz-adv-x="819" 
d="M302 211h273l6 -18h-286zM316 247h245l7 -18h-259zM540 301h-203l102 259zM331 283h217l6 -18h-231zM596 158h-315l8 17h301zM275 140h329l54 -140h19l-228 584l10 27l238 -611h20l-249 635l10 25l257 -660h20l-268 684l10 24l276 -708h19l-286 734l10 24l296 -758h20
l-306 782h-20l-305 -782h19zM486 782h-19l-306 -782h20zM448 782h-19l-306 -782h20zM410 782h-20l-305 -782h20zM370 782h-19l-306 -782h21zM337 940c35 0 69 -6 103 -18c34 -11 67 -17 100 -17c34 0 68 5 103 16v19c-31 -11 -66 -17 -103 -17c-33 0 -66 6 -100 17
c-33 12 -68 18 -103 18c-31 0 -64 -5 -100 -16v-19c29 11 62 17 100 17zM337 904c35 0 70 -6 103 -18c34 -11 67 -17 100 -17c36 0 70 5 103 15v18c-39 -10 -73 -15 -103 -15c-33 0 -66 6 -100 17c-34 12 -68 18 -103 18c-33 0 -67 -6 -100 -18v-19c33 13 66 19 100 19z
M540 851c-33 0 -66 6 -100 17c-33 12 -68 18 -103 18c-33 0 -67 -7 -100 -20v-20c34 15 67 22 100 22c35 0 69 -6 103 -18c34 -11 67 -17 100 -17c43 0 78 5 103 14v18c-25 -9 -59 -14 -103 -14z" />
    <glyph glyph-name="adieresis" unicode="&#xe4;" horiz-adv-x="819" 
d="M302 211h273l6 -18h-286zM316 247h245l7 -18h-259zM540 301h-203l102 259zM331 283h217l6 -18h-231zM596 158h-315l8 17h301zM275 140h329l54 -140h19l-228 584l10 27l238 -611h20l-249 635l10 25l257 -660h20l-268 684l10 24l276 -708h19l-286 734l10 24l296 -758h20
l-306 782h-20l-305 -782h19zM486 782h-19l-306 -782h20zM448 782h-19l-306 -782h20zM410 782h-20l-305 -782h20zM370 782h-19l-306 -782h21zM318 967h-18v-133h18v133zM354 967h-18v-133h18v133zM390 967h-18v-133h18v133zM282 967h-18v-133h18v133zM523 967h-18v-133h18
v133zM559 967h-18v-133h18v133zM595 967h-18v-133h18v133zM487 967h-18v-133h18v133z" />
    <glyph glyph-name="aring" unicode="&#xe5;" horiz-adv-x="819" 
d="M304 211h273l7 -18h-287zM318 247h245l7 -18h-259zM542 301h-203l102 259zM333 283h217l6 -18h-230zM598 158h-315l8 17h301zM277 140h329l54 -140h19l-228 584l10 27l238 -611h20l-249 635l10 25l257 -660h20l-268 684l10 24l276 -708h19l-286 734l10 24l296 -758h20
l-305 782h-21l-305 -782h19zM488 782h-19l-306 -782h20zM450 782h-19l-306 -782h20zM412 782h-20l-305 -782h20zM372 782h-19l-305 -782h20zM443 1132c-41 0 -77 -15 -106 -44s-44 -65 -44 -106s15 -77 44 -106s65 -44 106 -44s77 15 106 44c29 30 44 65 44 106
s-15 77 -44 106s-65 44 -106 44zM311 982c0 37 13 68 38 93c26 26 57 39 94 39s68 -13 93 -39c26 -25 39 -56 39 -93s-13 -68 -39 -94c-25 -25 -56 -38 -93 -38s-68 13 -94 38c-25 26 -38 57 -38 94zM443 1096c-32 0 -59 -11 -81 -34c-22 -22 -33 -49 -33 -80s11 -58 33 -81
c22 -22 49 -33 81 -33c31 0 58 11 80 33c23 23 34 50 34 81s-11 58 -34 80c-22 23 -49 34 -80 34zM347 982c0 53 43 96 96 96s96 -43 96 -96s-43 -96 -96 -96s-96 43 -96 96zM443 1060c-43 0 -78 -35 -78 -78s35 -78 78 -78s78 35 78 78s-35 78 -78 78zM383 982
c0 33 27 60 60 60s60 -27 60 -60s-27 -60 -60 -60s-60 27 -60 60z" />
    <glyph glyph-name="ae" unicode="&#xe6;" horiz-adv-x="1267" 
d="M310 211h272l7 -18h-287zM323 247h246l6 -18h-259zM548 301h-203l101 259zM338 283h217l6 -18h-230zM604 158h-315l7 17h301zM837 782h-18v-731l-285 731h-20l-306 -782h19l55 140h329l54 -140h19l-227 584l9 27l238 -611h20l-248 635l9 25l257 -660h20l-267 684l9 24
l276 -708h19l-285 734l9 24l296 -758h20zM494 782h-19l-307 -782h20zM456 782h-19l-307 -782h20zM418 782h-21l-305 -782h20zM377 782h-19l-305 -782h20zM945 782h-18v-782h18v782zM909 782h-18v-782h18v782zM873 782h-18v-782h18v782zM981 347h217v18h-217v18h217v18h-217
v18h217v18h-217v18h217v18h-217v148h292v17h-292v18h292v18h-292v18h292v18h-292v18h292v18h-292v18h292v18h-310v-782h310v18h-292v18h292v18h-292v18h292v18h-292v18h292v18h-292v18h292v18h-292v149h217v18h-217v18z" />
    <glyph glyph-name="ccedilla" unicode="&#xe7;" horiz-adv-x="493" 
d="M497 625v18c-14 3 -30 4 -48 4c-71 0 -131 -25 -181 -75s-75 -110 -75 -181s25 -131 75 -181s110 -75 181 -75c19 0 35 2 48 5v19c-16 -4 -32 -6 -48 -6c-65 0 -121 23 -168 70s-70 103 -70 168s23 121 70 168s103 70 168 70c12 0 28 -1 48 -4zM497 661v18
c-14 3 -30 4 -48 4c-80 0 -149 -29 -206 -86s-85 -125 -85 -206s28 -150 85 -207s126 -85 206 -85c19 0 35 2 48 5v18c-13 -3 -29 -5 -48 -5c-75 0 -140 27 -194 80c-53 54 -80 119 -80 194s27 140 80 193c54 54 119 81 194 81c18 0 34 -1 48 -4zM497 697v19
c-16 2 -32 3 -48 3c-91 0 -168 -32 -232 -96c-63 -64 -95 -141 -95 -232s32 -168 95 -232c64 -64 141 -96 232 -96c18 0 34 1 48 4v18c-14 -3 -30 -4 -48 -4c-85 0 -158 30 -219 91c-60 61 -90 134 -90 219s30 158 90 219c61 61 134 91 219 91c19 0 35 -1 48 -4zM497 734v18
c-16 2 -32 3 -48 3c-101 0 -186 -36 -257 -107s-106 -156 -106 -257s35 -187 106 -258s156 -106 257 -106c11 0 27 1 48 4v18c-21 -3 -37 -4 -48 -4c-95 0 -177 34 -244 101c-67 68 -101 150 -101 245s34 177 101 244c67 68 149 102 244 102c16 0 32 -1 48 -3zM421 -31
l-13 13l-124 -124l13 -12zM446 -56l-13 13l-123 -124l12 -13zM395 -5c14 -2 32 -3 54 -3c16 0 32 1 48 3v18c-16 -2 -32 -3 -48 -3c-105 0 -194 37 -269 112s-112 164 -112 269s37 195 112 270s164 112 269 112c16 0 32 -1 48 -3v18c-16 2 -32 3 -48 3
c-111 0 -205 -39 -283 -117c-77 -78 -116 -172 -116 -283c0 -97 31 -182 92 -256c62 -73 140 -119 233 -136l-116 -115l13 -13z" />
    <glyph glyph-name="egrave" unicode="&#xe8;" horiz-adv-x="513" 
d="M81 782h-18v-782h18v782zM189 782h-18v-782h18v782zM153 782h-18v-782h18v782zM117 782h-18v-782h18v782zM225 347h217v18h-217v18h217v18h-217v18h217v18h-217v18h217v18h-217v148h292v17h-292v18h292v18h-292v18h292v18h-292v18h292v18h-292v18h292v18h-310v-782h310
v18h-292v18h292v18h-292v18h292v18h-292v18h292v18h-292v18h292v18h-292v149h217v18h-217v18zM266 974h-25l138 -140h26zM317 974h-25l139 -140h26zM216 974h-26l139 -140h25z" />
    <glyph glyph-name="eacute" unicode="&#xe9;" horiz-adv-x="513" 
d="M81 782h-18v-782h18v782zM189 782h-18v-782h18v782zM153 782h-18v-782h18v782zM117 782h-18v-782h18v782zM225 347h217v18h-217v18h217v18h-217v18h217v18h-217v18h217v18h-217v148h292v17h-292v18h292v18h-292v18h292v18h-292v18h292v18h-292v18h292v18h-310v-782h310
v18h-292v18h292v18h-292v18h292v18h-292v18h292v18h-292v18h292v18h-292v149h217v18h-217v18zM372 974h-25l-139 -140h26zM321 974h-25l-140 -140h26zM423 974h-26l-138 -140h25z" />
    <glyph glyph-name="ecircumflex" unicode="&#xea;" horiz-adv-x="513" 
d="M81 782h-18v-782h18v782zM189 782h-18v-782h18v782zM153 782h-18v-782h18v782zM117 782h-18v-782h18v782zM225 347h217v18h-217v18h217v18h-217v18h217v18h-217v18h217v18h-217v148h292v17h-292v18h292v18h-292v18h292v18h-292v18h292v18h-292v18h292v18h-310v-782h310
v18h-292v18h292v18h-292v18h292v18h-292v18h292v18h-292v18h292v18h-292v149h217v18h-217v18zM255 974h-26l-139 -140h25zM305 974h-25l-138 -140h25zM318 936l101 -102h25l-113 114l13 13l126 -127h26l-140 140h-25l-139 -140h26l75 76l75 -76h25l-88 89z" />
    <glyph glyph-name="edieresis" unicode="&#xeb;" horiz-adv-x="513" 
d="M81 782h-18v-782h18v782zM189 782h-18v-782h18v782zM153 782h-18v-782h18v782zM117 782h-18v-782h18v782zM225 347h217v18h-217v18h217v18h-217v18h217v18h-217v18h217v18h-217v148h292v17h-292v18h292v18h-292v18h292v18h-292v18h292v18h-292v18h292v18h-310v-782h310
v18h-292v18h292v18h-292v18h292v18h-292v18h292v18h-292v18h292v18h-292v149h217v18h-217v18zM196 967h-18v-133h18v133zM232 967h-18v-133h18v133zM267 967h-18v-133h18v133zM160 967h-18v-133h18v133zM401 967h-18v-133h18v133zM437 967h-18v-133h18v133zM473 967h-18
v-133h18v133zM365 967h-18v-133h18v133z" />
    <glyph glyph-name="igrave" unicode="&#xec;" horiz-adv-x="225" 
d="M117 782h-18v-782h18v782zM153 782h-18v-782h18v782zM189 782h-18v-782h18v782zM225 782h-18v-782h18v782zM81 782h-18v-782h18v782zM76 974h-25l138 -140h26zM127 974h-26l140 -140h25zM25 974h-25l138 -140h26z" />
    <glyph glyph-name="iacute" unicode="&#xed;" horiz-adv-x="225" 
d="M117 782h-18v-782h18v782zM153 782h-18v-782h18v782zM189 782h-18v-782h18v782zM225 782h-18v-782h18v782zM81 782h-18v-782h18v782zM245 974h-25l-139 -140h26zM195 974h-26l-139 -140h25zM296 974h-25l-139 -140h26z" />
    <glyph glyph-name="icircumflex" unicode="&#xee;" horiz-adv-x="225" 
d="M117 782h-18v-782h18v782zM153 782h-18v-782h18v782zM189 782h-18v-782h18v782zM225 782h-18v-782h18v782zM81 782h-18v-782h18v782zM107 974h-26l-139 -140h25zM158 974h-26l-138 -140h25zM170 936l101 -102h25l-113 114l13 13l126 -127h26l-140 140h-25l-139 -140h26
l75 76l75 -76h25l-87 89z" />
    <glyph glyph-name="idieresis" unicode="&#xef;" horiz-adv-x="225" 
d="M117 782h-18v-782h18v782zM153 782h-18v-782h18v782zM189 782h-18v-782h18v782zM225 782h-18v-782h18v782zM81 782h-18v-782h18v782zM26 967h-18v-133h18v133zM62 967h-18v-133h18v133zM98 967h-18v-133h18v133zM-10 967h-17v-133h17v133zM232 967h-18v-133h18v133z
M267 967h-18v-133h18v133zM303 967h-18v-133h18v133zM196 967h-18v-133h18v133z" />
    <glyph glyph-name="eth" unicode="&#xf0;" horiz-adv-x="601" 
d="M225 36c99 2 183 37 252 105s103 151 103 250s-34 182 -103 250s-153 103 -252 105v18c103 -2 191 -39 264 -111s109 -159 109 -262s-36 -190 -109 -262s-161 -109 -264 -111v18zM225 72c89 2 164 34 226 95s93 136 93 224c0 89 -31 163 -93 224c-61 61 -137 93 -226 95
v18c94 -2 174 -35 239 -100s98 -144 98 -237s-33 -172 -98 -237s-145 -98 -239 -100v18zM225 108c79 2 145 30 200 84c55 55 83 121 83 199c0 79 -27 145 -82 199s-122 82 -201 84v18c84 -2 155 -32 213 -90c59 -57 88 -128 88 -211s-29 -154 -88 -212
c-58 -57 -129 -87 -213 -89v18zM225 144c69 2 128 26 176 73s72 105 72 174s-24 126 -72 173c-47 47 -106 72 -176 74v18c74 -2 137 -28 188 -79s77 -113 77 -186s-26 -135 -77 -186s-114 -77 -188 -79v18zM99 373v-18h-18v18h18zM135 373v-18h-18v18h18zM171 373v-18h-18
v18h18zM207 373v-18h-18v18h18zM99 409v-18h-18v18h18zM135 409v-18h-18v18h18zM171 409v-18h-18v18h18zM207 409v-18h-18v18h18zM99 445v-18h-18v18h18zM135 445v-18h-18v18h18zM171 445v-18h-18v18h18zM207 445v-18h-18v18h18zM225 319v18h149v18h-149v18h149v18h-149v18
h149v18h-149v18h149v18h-149v158c64 -3 118 -26 163 -70c45 -43 67 -97 67 -160s-22 -117 -67 -161c-45 -43 -99 -66 -163 -68v139h149v18h-149zM189 319v18h18v-18h-18zM153 319v18h18v-18h-18zM117 319v18h18v-18h-18zM81 319v18h18v-18h-18zM0 319v-18h63v-301h18v301h18
v-301h18v301h18v-301h18v301h18v-301h18v301h18v-301h18c108 0 200 38 276 113c77 76 115 169 115 278s-38 202 -114 277c-75 76 -168 114 -277 114h-18v-319h-18v319h-18v-319h-18v319h-18v-319h-18v319h-18v-319h-18v319h-18v-319h-63v-18h63v-18h-63v-18h63v-18h-63v-18
h63v-18h-63v-18h63v-18h-63z" />
    <glyph glyph-name="ntilde" unicode="&#xf1;" horiz-adv-x="702" 
d="M209 782h-21l450 -782h21zM168 782h-21l449 -782h22zM126 782h-20l449 -782h21zM593 187v595h-18v-563l-18 30v533h-18v-502l-290 502h-20l450 -782h22v782h-18v-750l-18 30v720h-18v-688l-18 31v657h-18v-626zM99 720v-720h18v689l18 -31v-658h18v626l18 -32v-594h18
v563l18 -31v-532h18v501l288 -501h22l-453 782h-19v-782h18v752zM278 940c35 0 69 -6 103 -18c34 -11 67 -17 100 -17c34 0 68 5 103 16v19c-31 -11 -66 -17 -103 -17c-33 0 -66 6 -100 17c-33 12 -68 18 -103 18c-31 0 -64 -5 -100 -16v-19c29 11 62 17 100 17zM278 904
c35 0 70 -6 103 -18c34 -11 67 -17 100 -17c36 0 70 5 103 15v18c-39 -10 -73 -15 -103 -15c-33 0 -66 6 -100 17c-34 12 -68 18 -103 18c-33 0 -67 -6 -100 -18v-19c33 13 66 19 100 19zM481 851c-33 0 -66 6 -100 17c-33 12 -68 18 -103 18c-33 0 -67 -7 -100 -20v-20
c34 15 67 22 100 22c35 0 69 -6 103 -18c34 -11 67 -17 100 -17c42 0 76 5 103 14v18c-25 -9 -59 -14 -103 -14z" />
    <glyph glyph-name="ograve" unicode="&#xf2;" 
d="M446 -8c111 0 205 39 283 116c78 78 117 172 117 283s-39 205 -117 283s-172 117 -283 117s-205 -39 -283 -117c-77 -78 -116 -172 -116 -283s39 -205 116 -283c78 -77 172 -116 283 -116zM64 391c0 105 37 195 112 270s165 112 270 112s195 -37 270 -112
s112 -165 112 -270s-37 -194 -112 -269s-165 -112 -270 -112s-195 37 -270 112s-112 164 -112 269zM446 27c101 0 186 35 257 106s107 157 107 258s-36 186 -107 257s-156 107 -257 107s-187 -36 -258 -107s-106 -156 -106 -257s35 -187 106 -258s157 -106 258 -106z
M100 391c0 95 34 177 101 244c68 68 150 102 245 102s177 -34 244 -102c68 -67 102 -149 102 -244s-34 -177 -102 -245c-67 -67 -149 -101 -244 -101s-177 34 -245 101c-67 68 -101 150 -101 245zM446 63c91 0 168 32 232 96s96 141 96 232s-32 168 -96 232s-141 96 -232 96
s-168 -32 -232 -96s-96 -141 -96 -232s32 -168 96 -232s141 -96 232 -96zM136 391c0 85 30 158 91 219s134 91 219 91s158 -30 219 -91s91 -134 91 -219s-30 -158 -91 -219s-134 -91 -219 -91s-158 30 -219 91s-91 134 -91 219zM446 99c81 0 149 28 206 85s86 126 86 207
s-29 149 -86 206s-125 86 -206 86s-150 -29 -207 -86s-85 -125 -85 -206s28 -150 85 -207s126 -85 207 -85zM172 391c0 75 27 140 80 193c54 54 119 81 194 81s140 -27 193 -81c54 -53 81 -118 81 -193s-27 -140 -81 -194c-53 -53 -118 -80 -193 -80s-140 27 -194 80
c-53 54 -80 119 -80 194zM446 135c71 0 132 25 181 75c50 50 75 110 75 181s-25 132 -75 181c-49 50 -110 75 -181 75s-131 -25 -181 -75c-50 -49 -75 -110 -75 -181s25 -131 75 -181s110 -75 181 -75zM208 391c0 65 23 121 70 168s103 70 168 70s121 -23 168 -70
s70 -103 70 -168s-23 -121 -70 -168s-103 -70 -168 -70s-121 23 -168 70s-70 103 -70 168zM377 974h-25l138 -140h26zM428 974h-25l139 -140h26zM327 974h-26l139 -140h25z" />
    <glyph glyph-name="oacute" unicode="&#xf3;" 
d="M448 -8c111 0 205 39 283 116c78 78 117 172 117 283s-39 205 -117 283s-172 117 -283 117s-205 -39 -283 -117c-77 -78 -116 -172 -116 -283s39 -205 116 -283c78 -77 172 -116 283 -116zM67 391c0 105 37 195 112 270s164 112 269 112s195 -37 270 -112
s112 -165 112 -270s-37 -195 -112 -270c-75 -74 -165 -111 -270 -111s-194 37 -269 112s-112 164 -112 269zM448 27c101 0 186 35 257 106s107 157 107 258s-36 186 -107 257s-156 107 -257 107s-186 -36 -257 -107s-106 -156 -106 -257s35 -187 106 -258s156 -106 257 -106
zM103 391c0 95 34 177 101 244c67 68 149 102 244 102c96 0 178 -34 245 -102c67 -67 101 -149 101 -244s-34 -177 -101 -245c-67 -67 -149 -101 -245 -101c-95 0 -177 34 -244 101c-67 68 -101 150 -101 245zM448 63c91 0 168 32 232 96s96 141 96 232s-32 168 -96 232
s-141 96 -232 96s-168 -32 -232 -96c-63 -64 -95 -141 -95 -232s32 -168 95 -232c64 -64 141 -96 232 -96zM138 391c0 85 30 158 91 219s134 91 219 91s158 -30 219 -91s91 -134 91 -219s-30 -158 -91 -219s-134 -91 -219 -91s-158 30 -219 91s-91 134 -91 219zM448 99
c81 0 149 28 206 85s86 126 86 207s-29 149 -86 206s-125 86 -206 86c-80 0 -149 -29 -206 -86s-86 -125 -86 -206s29 -150 86 -207s126 -85 206 -85zM174 391c0 75 27 140 80 193c54 54 119 81 194 81s140 -27 193 -81c54 -53 81 -118 81 -193s-27 -140 -81 -194
c-53 -53 -118 -80 -193 -80s-140 27 -194 80c-53 54 -80 119 -80 194zM448 135c71 0 132 25 181 75c50 50 75 110 75 181s-25 132 -75 181c-49 50 -110 75 -181 75s-131 -25 -181 -75s-75 -110 -75 -181s25 -131 75 -181s110 -75 181 -75zM210 391c0 65 23 121 70 168
s103 70 168 70s121 -23 168 -70s70 -103 70 -168s-23 -121 -70 -168s-103 -70 -168 -70s-121 23 -168 70s-70 103 -70 168zM578 974h-25l-139 -140h26zM527 974h-25l-139 -140h25zM629 974h-25l-139 -140h25z" />
    <glyph glyph-name="ocircumflex" unicode="&#xf4;" 
d="M446 -8c111 0 205 39 283 116c78 78 117 172 117 283s-39 205 -117 283s-172 117 -283 117s-205 -39 -283 -117c-77 -78 -116 -172 -116 -283s39 -205 116 -283c78 -77 172 -116 283 -116zM64 391c0 105 37 195 112 270s165 112 270 112s195 -37 270 -112
s112 -165 112 -270s-37 -194 -112 -269s-165 -112 -270 -112s-195 37 -270 112s-112 164 -112 269zM446 27c101 0 186 35 257 106s107 157 107 258s-36 186 -107 257s-156 107 -257 107s-187 -36 -258 -107s-106 -156 -106 -257s35 -187 106 -258s157 -106 258 -106z
M100 391c0 95 34 177 101 244c68 68 150 102 245 102s177 -34 244 -102c68 -67 102 -149 102 -244s-34 -177 -102 -245c-67 -67 -149 -101 -244 -101s-177 34 -245 101c-67 68 -101 150 -101 245zM446 63c91 0 168 32 232 96s96 141 96 232s-32 168 -96 232s-141 96 -232 96
s-168 -32 -232 -96s-96 -141 -96 -232s32 -168 96 -232s141 -96 232 -96zM136 391c0 85 30 158 91 219s134 91 219 91s158 -30 219 -91s91 -134 91 -219s-30 -158 -91 -219s-134 -91 -219 -91s-158 30 -219 91s-91 134 -91 219zM446 99c81 0 149 28 206 85s86 126 86 207
s-29 149 -86 206s-125 86 -206 86s-150 -29 -207 -86s-85 -125 -85 -206s28 -150 85 -207s126 -85 207 -85zM172 391c0 75 27 140 80 193c54 54 119 81 194 81s140 -27 193 -81c54 -53 81 -118 81 -193s-27 -140 -81 -194c-53 -53 -118 -80 -193 -80s-140 27 -194 80
c-53 54 -80 119 -80 194zM446 135c71 0 132 25 181 75c50 50 75 110 75 181s-25 132 -75 181c-49 50 -110 75 -181 75s-131 -25 -181 -75c-50 -49 -75 -110 -75 -181s25 -131 75 -181s110 -75 181 -75zM208 391c0 65 23 121 70 168s103 70 168 70s121 -23 168 -70
s70 -103 70 -168s-23 -121 -70 -168s-103 -70 -168 -70s-121 23 -168 70s-70 103 -70 168zM402 974h-26l-139 -140h25zM452 974h-25l-138 -140h25zM465 936l101 -102h25l-113 114l12 13l127 -127h26l-140 140h-25l-139 -140h26l75 76l75 -76h25l-88 89z" />
    <glyph glyph-name="otilde" unicode="&#xf5;" 
d="M451 -8c111 0 205 39 283 116c78 78 117 172 117 283s-39 205 -117 283s-172 117 -283 117s-205 -39 -283 -117c-77 -78 -116 -172 -116 -283s39 -205 116 -283c78 -77 172 -116 283 -116zM70 391c0 105 37 195 112 270s164 112 269 112s195 -37 270 -112
s112 -165 112 -270s-37 -195 -112 -270c-75 -74 -165 -111 -270 -111s-194 37 -269 112s-112 164 -112 269zM451 27c101 0 186 35 257 106s107 157 107 258s-36 186 -107 257s-156 107 -257 107c-100 0 -186 -36 -257 -107s-106 -156 -106 -257s35 -187 106 -258
s157 -106 257 -106zM106 391c0 95 34 177 101 244c67 68 149 102 244 102c96 0 178 -34 245 -102c67 -67 101 -149 101 -244s-34 -177 -101 -245c-67 -67 -149 -101 -245 -101c-95 0 -177 34 -244 101c-67 68 -101 150 -101 245zM451 63c91 0 168 32 232 96s96 141 96 232
s-32 168 -96 232s-141 96 -232 96c-90 0 -167 -32 -231 -96s-96 -141 -96 -232s32 -168 96 -232s141 -96 231 -96zM142 391c0 85 30 158 90 219c61 61 134 91 219 91c86 0 159 -30 219 -91c61 -61 91 -134 91 -219s-30 -158 -91 -219c-60 -61 -133 -91 -219 -91
c-85 0 -158 30 -219 91c-60 61 -90 134 -90 219zM451 99c81 0 149 28 206 85s86 126 86 207s-29 149 -86 206s-125 86 -206 86c-80 0 -149 -29 -206 -86s-85 -125 -85 -206s28 -150 85 -207s126 -85 206 -85zM178 391c0 75 27 140 80 193c53 54 118 81 193 81
c76 0 141 -27 194 -81c53 -53 80 -118 80 -193s-27 -140 -80 -194c-53 -53 -118 -80 -194 -80c-75 0 -140 27 -193 80c-53 54 -80 119 -80 194zM451 135c71 0 132 25 181 75c50 50 75 110 75 181s-25 132 -75 181c-49 50 -110 75 -181 75s-131 -25 -181 -75
c-49 -50 -74 -110 -74 -181s25 -131 74 -181c50 -50 110 -75 181 -75zM214 391c0 65 23 121 69 168c47 47 103 70 168 70s121 -23 168 -70s70 -103 70 -168s-23 -121 -70 -168s-103 -70 -168 -70s-121 23 -168 70c-46 47 -69 103 -69 168zM347 940c34 0 68 -6 102 -18
c34 -11 68 -17 101 -17c35 0 69 5 102 16v19c-30 -11 -64 -17 -102 -17c-33 0 -67 6 -101 17c-33 12 -67 18 -102 18c-30 0 -64 -5 -101 -16v-19c29 11 62 17 101 17zM347 904c35 0 69 -6 102 -18c34 -11 68 -17 101 -17c37 0 71 5 102 15v18c-37 -10 -71 -15 -102 -15
c-33 0 -67 6 -101 17c-34 12 -68 18 -102 18c-33 0 -66 -6 -101 -18v-19c34 13 68 19 101 19zM550 851c-33 0 -67 6 -101 17c-33 12 -67 18 -102 18c-33 0 -66 -7 -101 -20v-20c35 15 69 22 101 22c34 0 68 -6 102 -18c34 -11 68 -17 101 -17c43 0 77 5 102 14v18
c-25 -9 -59 -14 -102 -14z" />
    <glyph glyph-name="odieresis" unicode="&#xf6;" 
d="M446 -8c111 0 205 39 283 116c78 78 117 172 117 283s-39 205 -117 283s-172 117 -283 117s-205 -39 -283 -117c-77 -78 -116 -172 -116 -283s39 -205 116 -283c78 -77 172 -116 283 -116zM64 391c0 105 37 195 112 270s165 112 270 112s195 -37 270 -112
s112 -165 112 -270s-37 -194 -112 -269s-165 -112 -270 -112s-195 37 -270 112s-112 164 -112 269zM446 27c101 0 186 35 257 106s107 157 107 258s-36 186 -107 257s-156 107 -257 107s-187 -36 -258 -107s-106 -156 -106 -257s35 -187 106 -258s157 -106 258 -106z
M100 391c0 95 34 177 101 244c68 68 150 102 245 102s177 -34 244 -102c68 -67 102 -149 102 -244s-34 -177 -102 -245c-67 -67 -149 -101 -244 -101s-177 34 -245 101c-67 68 -101 150 -101 245zM446 63c91 0 168 32 232 96s96 141 96 232s-32 168 -96 232s-141 96 -232 96
s-168 -32 -232 -96s-96 -141 -96 -232s32 -168 96 -232s141 -96 232 -96zM136 391c0 85 30 158 91 219s134 91 219 91s158 -30 219 -91s91 -134 91 -219s-30 -158 -91 -219s-134 -91 -219 -91s-158 30 -219 91s-91 134 -91 219zM446 99c81 0 149 28 206 85s86 126 86 207
s-29 149 -86 206s-125 86 -206 86s-150 -29 -207 -86s-85 -125 -85 -206s28 -150 85 -207s126 -85 207 -85zM172 391c0 75 27 140 80 193c54 54 119 81 194 81s140 -27 193 -81c54 -53 81 -118 81 -193s-27 -140 -81 -194c-53 -53 -118 -80 -193 -80s-140 27 -194 80
c-53 54 -80 119 -80 194zM446 135c71 0 132 25 181 75c50 50 75 110 75 181s-25 132 -75 181c-49 50 -110 75 -181 75s-131 -25 -181 -75c-50 -49 -75 -110 -75 -181s25 -131 75 -181s110 -75 181 -75zM208 391c0 65 23 121 70 168s103 70 168 70s121 -23 168 -70
s70 -103 70 -168s-23 -121 -70 -168s-103 -70 -168 -70s-121 23 -168 70s-70 103 -70 168zM329 967h-18v-133h18v133zM365 967h-18v-133h18v133zM401 967h-18v-133h18v133zM293 967h-18v-133h18v133zM534 967h-18v-133h18v133zM570 967h-18v-133h18v133zM606 967h-18v-133
h18v133zM498 967h-18v-133h18v133z" />
    <glyph glyph-name="divide" unicode="&#xf7;" horiz-adv-x="466" 
d="M63 301v-18h398v18h-398zM63 337v-18h398v18h-398zM63 373v-18h398v18h-398zM63 409v-18h398v18h-398zM63 265v-18h398v18h-398zM236 176h-18v-175h18v175zM272 176h-18v-175h18v175zM308 176h-18v-175h18v175zM344 176h-18v-175h18v175zM200 176h-18v-175h18v175z
M236 658h-18v-175h18v175zM272 658h-18v-175h18v175zM308 658h-18v-175h18v175zM344 658h-18v-175h18v175zM200 658h-18v-175h18v175z" />
    <glyph glyph-name="oslash" unicode="&#xf8;" 
d="M700 651c-4 5 -8 9 -13 13l12 12c5 -4 9 -8 14 -12zM675 626c-5 4 -9 8 -14 12l13 13c5 -4 9 -8 13 -12zM649 600c-4 5 -8 9 -13 13l13 12c5 -4 9 -8 13 -12zM624 575c-4 5 -8 9 -13 12l12 13c5 -4 9 -8 13 -12zM275 226c-4 5 -8 9 -12 13l335 335c4 -4 8 -8 13 -12z
M249 201c-4 4 -8 8 -12 13l13 12c3 -5 7 -9 12 -13zM224 175c-4 4 -8 8 -12 13l12 13c4 -5 8 -9 13 -13zM198 150c-4 4 -8 8 -12 13l13 13c4 -5 8 -9 12 -14zM173 125c-4 4 -8 8 -12 13l12 12c4 -5 8 -9 13 -13zM725 625c-4 5 -8 9 -12 14l12 12c4 -5 8 -9 12 -14zM699 599
c-4 5 -8 9 -12 14l13 13c4 -5 8 -9 12 -14zM674 574c-4 5 -8 9 -12 14l13 12c4 -4 8 -8 11 -13zM648 549c-3 5 -7 9 -11 13l12 13c4 -5 8 -9 12 -14zM302 202c-5 4 -9 8 -14 12l335 335c4 -5 8 -9 12 -14zM276 176c-5 4 -9 8 -14 12l13 12c4 -4 8 -8 13 -11zM250 151
c-5 3 -9 7 -13 11l12 13c5 -4 9 -8 14 -12zM225 125c-5 4 -9 8 -14 12l13 13c5 -4 9 -8 14 -12zM200 100c-5 4 -9 8 -14 12l12 12c5 -4 9 -8 14 -12zM747 596c-3 5 -7 10 -11 15l13 12c3 -5 7 -9 10 -14zM721 570c-3 5 -7 10 -11 15l13 13c4 -5 8 -10 11 -15zM695 544
c-3 5 -7 10 -11 15l13 13c4 -5 8 -10 11 -15zM669 518c-3 5 -7 11 -10 16l13 12l9 -15zM333 182c-6 3 -11 6 -16 9l329 329c3 -5 6 -10 9 -16zM306 156l-15 9l12 13c5 -3 11 -7 16 -10zM280 129c-5 3 -10 7 -15 11l13 13c5 -4 10 -8 15 -11zM254 103c-5 3 -10 7 -15 11
l13 13c5 -4 10 -8 15 -11zM229 78c-5 3 -10 7 -15 11l12 12c5 -4 10 -8 15 -11zM663 487c14 -30 21 -62 21 -96c0 -65 -23 -121 -70 -168s-103 -70 -168 -70c-34 0 -66 7 -96 21zM691 514c19 -39 29 -80 29 -123c0 -75 -27 -140 -81 -194c-53 -53 -118 -80 -193 -80
c-43 0 -84 10 -123 29l13 14c35 -17 71 -25 110 -25c71 0 132 25 181 74c50 50 75 111 75 182c0 39 -8 75 -25 110zM717 541c26 -47 39 -97 39 -150c0 -85 -30 -158 -91 -219s-134 -91 -219 -91c-53 0 -103 13 -150 39l13 13c43 -23 88 -34 137 -34c81 0 149 28 206 85
s86 126 86 207c0 49 -11 94 -34 137zM744 568c32 -55 48 -114 48 -177c0 -95 -34 -177 -102 -245c-67 -67 -149 -101 -244 -101c-63 0 -122 16 -177 48l14 14c50 -29 104 -44 163 -44c91 0 168 32 232 96s96 141 96 232c0 59 -15 113 -44 163zM769 593
c39 -61 59 -129 59 -202c0 -105 -37 -194 -112 -269s-165 -112 -270 -112c-73 0 -140 19 -202 58l12 12c58 -35 121 -53 190 -53c101 0 186 35 257 106s107 157 107 258c0 69 -18 132 -53 190zM233 286c-17 33 -25 68 -25 105c0 65 23 121 70 168s103 70 168 70
c37 0 72 -8 105 -25zM206 259c-23 41 -34 85 -34 132c0 75 27 140 80 193c54 54 119 81 194 81c47 0 91 -11 132 -34l-13 -13c-37 19 -77 29 -119 29c-71 0 -132 -25 -182 -75c-49 -49 -74 -110 -74 -181c0 -42 10 -82 29 -119zM180 233c-29 49 -44 101 -44 158
c0 85 30 158 91 219s134 91 219 91c57 0 109 -15 158 -44l-13 -13c-45 26 -93 39 -145 39c-81 0 -150 -29 -207 -86s-85 -125 -85 -206c0 -52 13 -100 39 -145zM153 206c-35 57 -53 118 -53 185c0 95 34 177 101 244c68 68 150 102 245 102c67 0 128 -18 185 -53l-13 -13
c-53 32 -110 48 -172 48c-91 0 -168 -32 -232 -96s-96 -141 -96 -232c0 -62 16 -119 48 -172zM128 181c-43 63 -64 133 -64 210c0 105 37 195 112 270s165 112 270 112c77 0 147 -21 210 -64l-12 -12c-60 39 -126 58 -198 58c-101 0 -187 -36 -258 -107s-106 -156 -106 -257
c0 -72 19 -138 58 -198zM151 178c3 -5 7 -9 11 -14l-13 -13c-3 5 -7 10 -11 15zM177 204c3 -5 7 -10 10 -15l-13 -12c-3 5 -7 9 -10 14zM202 230c4 -5 8 -10 11 -15l-13 -13c-3 5 -7 10 -11 15zM228 256c3 -5 7 -10 10 -15l-12 -13c-4 5 -8 10 -11 15zM568 595
c5 -3 10 -6 15 -10l-331 -331c-4 5 -7 10 -10 15zM594 622c5 -3 10 -7 15 -11l-13 -12c-5 3 -10 7 -15 10zM620 648c5 -4 10 -8 15 -11l-13 -13c-5 3 -10 7 -15 11zM646 673c5 -3 9 -7 14 -10l-12 -13c-5 3 -10 7 -15 10zM671 699c5 -3 10 -7 15 -11l-13 -13
c-5 4 -9 8 -14 11zM742 770l-12 13l-60 -60c-67 45 -142 68 -224 68c-111 0 -205 -39 -283 -117c-77 -78 -116 -172 -116 -283c0 -81 23 -156 68 -223l-67 -67l13 -13l64 65c4 -5 8 -9 12 -14l-64 -63l13 -13l62 62c4 -5 8 -9 13 -13l-62 -62l13 -13l61 62c5 -4 9 -8 14 -12
l-63 -62l13 -13l64 64c5 -4 9 -8 14 -11l-65 -66l12 -13l69 69c65 -42 137 -63 215 -63c111 0 205 39 283 116c78 78 117 172 117 283c0 78 -21 150 -63 216l61 61l-13 13l-58 -59c-4 5 -8 10 -11 15l57 56l-13 13l-56 -55c-4 5 -8 9 -12 13l55 55l-13 13l-54 -55
c-5 4 -9 8 -13 12l55 55l-13 13l-56 -56c-5 4 -9 8 -14 11z" />
    <glyph glyph-name="ugrave" unicode="&#xf9;" horiz-adv-x="641" 
d="M641 280v502h-18v-502c0 -75 -27 -138 -80 -191s-116 -79 -191 -79s-139 26 -192 79s-79 116 -79 191v502h-18v-502c0 -79 28 -147 84 -204c57 -56 125 -84 205 -84s148 28 204 84c57 57 85 125 85 204zM605 280v502h-18v-502c0 -65 -23 -120 -69 -166
c-45 -46 -101 -69 -166 -69s-120 23 -166 69s-69 101 -69 166v502h-18v-502c0 -69 25 -129 74 -179c49 -49 109 -74 179 -74s130 25 179 74c49 50 74 110 74 179zM569 280v502h-18v-502c0 -55 -20 -102 -59 -141s-85 -58 -140 -58s-102 19 -141 58s-58 86 -58 141v502h-18
v-502c0 -59 21 -110 64 -153s94 -64 153 -64s110 21 153 64s64 94 64 153zM533 280v502h-18v-502c0 -45 -16 -83 -48 -115c-31 -32 -70 -48 -115 -48s-83 16 -115 48s-48 70 -48 115v502h-18v-502c0 -49 18 -92 53 -128c36 -35 79 -53 128 -53s92 18 127 53
c36 36 54 79 54 128zM497 280v502h-18v-502c0 -35 -12 -65 -37 -90s-55 -37 -90 -37s-65 12 -90 37s-37 55 -37 90v502h-18v-502c0 -40 14 -74 42 -103c29 -28 63 -42 103 -42s74 14 102 42c29 29 43 63 43 103zM309 974h-26l139 -140h25zM359 974h-25l140 -140h25zM258 974
h-25l138 -140h25z" />
    <glyph glyph-name="uacute" unicode="&#xfa;" horiz-adv-x="641" 
d="M641 280v502h-18v-502c0 -75 -27 -138 -80 -191s-116 -79 -191 -79s-139 26 -192 79s-79 116 -79 191v502h-18v-502c0 -79 28 -147 84 -204c57 -56 125 -84 205 -84s148 28 204 84c57 57 85 125 85 204zM605 280v502h-18v-502c0 -65 -23 -120 -69 -166
c-45 -46 -101 -69 -166 -69s-120 23 -166 69s-69 101 -69 166v502h-18v-502c0 -69 25 -129 74 -179c49 -49 109 -74 179 -74s130 25 179 74c49 50 74 110 74 179zM569 280v502h-18v-502c0 -55 -20 -102 -59 -141s-85 -58 -140 -58s-102 19 -141 58s-58 86 -58 141v502h-18
v-502c0 -59 21 -110 64 -153s94 -64 153 -64s110 21 153 64s64 94 64 153zM533 280v502h-18v-502c0 -45 -16 -83 -48 -115c-31 -32 -70 -48 -115 -48s-83 16 -115 48s-48 70 -48 115v502h-18v-502c0 -49 18 -92 53 -128c36 -35 79 -53 128 -53s92 18 127 53
c36 36 54 79 54 128zM497 280v502h-18v-502c0 -35 -12 -65 -37 -90s-55 -37 -90 -37s-65 12 -90 37s-37 55 -37 90v502h-18v-502c0 -40 14 -74 42 -103c29 -28 63 -42 103 -42s74 14 102 42c29 29 43 63 43 103zM425 974h-25l-139 -140h25zM374 974h-25l-140 -140h26z
M476 974h-26l-138 -140h25z" />
    <glyph glyph-name="ucircumflex" unicode="&#xfb;" horiz-adv-x="641" 
d="M641 280v502h-18v-502c0 -75 -27 -138 -80 -191s-116 -79 -191 -79s-139 26 -192 79s-79 116 -79 191v502h-18v-502c0 -79 28 -147 84 -204c57 -56 125 -84 205 -84s148 28 204 84c57 57 85 125 85 204zM605 280v502h-18v-502c0 -65 -23 -120 -69 -166
c-45 -46 -101 -69 -166 -69s-120 23 -166 69s-69 101 -69 166v502h-18v-502c0 -69 25 -129 74 -179c49 -49 109 -74 179 -74s130 25 179 74c49 50 74 110 74 179zM569 280v502h-18v-502c0 -55 -20 -102 -59 -141s-85 -58 -140 -58s-102 19 -141 58s-58 86 -58 141v502h-18
v-502c0 -59 21 -110 64 -153s94 -64 153 -64s110 21 153 64s64 94 64 153zM533 280v502h-18v-502c0 -45 -16 -83 -48 -115c-31 -32 -70 -48 -115 -48s-83 16 -115 48s-48 70 -48 115v502h-18v-502c0 -49 18 -92 53 -128c36 -35 79 -53 128 -53s92 18 127 53
c36 36 54 79 54 128zM497 280v502h-18v-502c0 -35 -12 -65 -37 -90s-55 -37 -90 -37s-65 12 -90 37s-37 55 -37 90v502h-18v-502c0 -40 14 -74 42 -103c29 -28 63 -42 103 -42s74 14 102 42c29 29 43 63 43 103zM318 974h-25l-140 -140h26zM369 974h-25l-139 -140h25z
M382 936l100 -102h25l-113 114l13 13l127 -127h25l-139 140h-26l-138 -140h25l75 76l75 -76h26l-88 89z" />
    <glyph glyph-name="udieresis" unicode="&#xfc;" horiz-adv-x="641" 
d="M641 280v502h-18v-502c0 -75 -27 -138 -80 -191s-116 -79 -191 -79s-139 26 -192 79s-79 116 -79 191v502h-18v-502c0 -79 28 -147 84 -204c57 -56 125 -84 205 -84s148 28 204 84c57 57 85 125 85 204zM605 280v502h-18v-502c0 -65 -23 -120 -69 -166
c-45 -46 -101 -69 -166 -69s-120 23 -166 69s-69 101 -69 166v502h-18v-502c0 -69 25 -129 74 -179c49 -49 109 -74 179 -74s130 25 179 74c49 50 74 110 74 179zM569 280v502h-18v-502c0 -55 -20 -102 -59 -141s-85 -58 -140 -58s-102 19 -141 58s-58 86 -58 141v502h-18
v-502c0 -59 21 -110 64 -153s94 -64 153 -64s110 21 153 64s64 94 64 153zM533 280v502h-18v-502c0 -45 -16 -83 -48 -115c-31 -32 -70 -48 -115 -48s-83 16 -115 48s-48 70 -48 115v502h-18v-502c0 -49 18 -92 53 -128c36 -35 79 -53 128 -53s92 18 127 53
c36 36 54 79 54 128zM497 280v502h-18v-502c0 -35 -12 -65 -37 -90s-55 -37 -90 -37s-65 12 -90 37s-37 55 -37 90v502h-18v-502c0 -40 14 -74 42 -103c29 -28 63 -42 103 -42s74 14 102 42c29 29 43 63 43 103zM238 967h-18v-133h18v133zM274 967h-18v-133h18v133zM310 967
h-18v-133h18v133zM202 967h-18v-133h18v133zM443 967h-18v-133h18v133zM479 967h-18v-133h18v133zM515 967h-18v-133h18v133zM407 967h-18v-133h18v133z" />
    <glyph glyph-name="yacute" unicode="&#xfd;" horiz-adv-x="690" 
d="M438 281v-281h18v281l249 501h-19l-239 -482l-9 18l228 464h-19l-218 -445l-9 18l208 427h-19l-198 -408l-9 19l189 389h-19l-179 -370l-9 18l169 352h-19l-159 -332l-159 332h-19zM420 0v281l-242 501h-19l243 -501v-281h18zM384 0v281l-243 501h-19l244 -501v-281h18z
M348 0v281l-245 501h-19l246 -501v-281h18zM312 0v281l-249 501h-19l250 -501v-281h18zM430 974h-25l-139 -140h26zM379 974h-25l-139 -140h25zM481 974h-25l-139 -140h25z" />
    <glyph glyph-name="thorn" unicode="&#xfe;" horiz-adv-x="594" 
d="M117 620h-18v-620h18v620zM153 620h-18v-620h18v620zM189 620h-18v-620h18v620zM81 620h-18v-620h18v620zM225 602h122c63 0 117 -22 161 -66s66 -98 66 -161s-22 -116 -66 -161c-44 -44 -98 -66 -161 -66h-122v18h122c57 0 106 20 147 61s62 91 62 148s-21 106 -62 147
s-90 62 -147 62h-122v18zM225 566h122c53 0 98 -19 135 -56s56 -82 56 -135s-19 -98 -56 -135s-82 -56 -135 -56h-122v18h122c47 0 88 17 122 51s51 75 51 122s-17 88 -51 122c-33 34 -74 51 -122 51h-122v18zM225 530h122c43 0 79 -15 109 -46c31 -30 46 -66 46 -109
s-15 -79 -46 -110c-30 -30 -66 -45 -109 -45h-122v18h122c37 0 69 13 96 40s41 60 41 97s-13 69 -40 96s-59 41 -97 41h-122v18zM225 494h122c33 0 61 -12 84 -35s35 -51 35 -84s-12 -61 -35 -84s-51 -35 -84 -35h-122v18h122c56 0 101 45 101 101s-45 101 -101 101h-122v18
zM225 459h122c45 0 83 -39 83 -84s-38 -84 -83 -84h-122v168zM347 620h-140v-620h18v130h122c67 0 125 24 173 72s72 106 72 173s-24 125 -72 173s-106 72 -173 72z" />
    <glyph glyph-name="ydieresis" unicode="&#xff;" horiz-adv-x="690" 
d="M438 281v-281h18v281l249 501h-19l-239 -482l-9 18l228 464h-19l-218 -445l-9 18l208 427h-19l-198 -408l-9 19l189 389h-19l-179 -370l-9 18l169 352h-19l-159 -332l-159 332h-19zM420 0v281l-242 501h-19l243 -501v-281h18zM384 0v281l-243 501h-19l244 -501v-281h18z
M348 0v281l-245 501h-19l246 -501v-281h18zM312 0v281l-249 501h-19l250 -501v-281h18zM260 967h-18v-133h18v133zM296 967h-18v-133h18v133zM332 967h-18v-133h18v133zM224 967h-18v-133h18v133zM465 967h-18v-133h18v133zM501 967h-18v-133h18v133zM537 967h-18v-133h18
v133zM429 967h-18v-133h18v133z" />
    <glyph glyph-name="Zcaron" unicode="&#x17d;" horiz-adv-x="618" 
d="M59 782v-18h540l9 18h-549zM59 746v-18h523l9 18h-532zM59 710v-18h505l9 18h-514zM59 674v-18h488l9 18h-497zM510 621l-303 -621h411v18h-381l8 18h373v18h-364l8 18h356v18h-346l8 18h338v18h-329l8 18h321v18h-313l233 476h-479v-17h291l-302 -621h20l302 621h19
l-302 -621h20l303 621h20l-302 -621h19l303 621h19l-302 -621h20l302 621h21zM331 834h26l139 140h-25zM281 834h25l138 140h-25zM268 872l-101 102h-25l113 -114l-13 -13l-126 127h-26l140 -140h25l139 140h-26l-75 -76l-75 76h-25l88 -89z" />
    <glyph glyph-name="zcaron" unicode="&#x17e;" horiz-adv-x="618" 
d="M59 782v-18h540l9 18h-549zM59 746v-18h523l9 18h-532zM59 710v-18h505l9 18h-514zM59 674v-18h488l9 18h-497zM510 621l-303 -621h411v18h-381l8 18h373v18h-364l8 18h356v18h-346l8 18h338v18h-329l8 18h321v18h-313l233 476h-479v-17h291l-302 -621h20l302 621h19
l-302 -621h20l303 621h20l-302 -621h19l303 621h19l-302 -621h20l302 621h21zM331 834h26l139 140h-25zM281 834h25l138 140h-25zM268 872l-101 102h-25l113 -114l-13 -13l-126 127h-26l140 -140h25l139 140h-26l-75 -76l-75 76h-25l88 -89z" />
    <glyph glyph-name="cedilla" unicode="&#xb8;" horiz-adv-x="458" 
d="M307 -31l-13 13l-124 -124l13 -12zM332 -56l-13 13l-123 -124l12 -13zM281 -5l-13 12l-123 -123l13 -13z" />
    <glyph glyph-name="space" unicode=" " horiz-adv-x="174" 
 />
  </font>
</defs>
</svg>
